<svg id="Layer_1" enable-background="new 0 0 496 496" height="512" viewBox="0 0 496 496" width="512" xmlns="http://www.w3.org/2000/svg"><path d="m433.6 225.969-.13.2c-14.519 14.508-18.4 35.436-31.54 48.15v-21.56c0-9.21-7.08-17.14-16.28-17.57-9.81-.46-17.93 7.37-17.93 17.08v32.55c-11.735-1.861 6.667-3.197-102.62 10.21v-59.86l158.9-38.62c2.58 5.33-1.19 17.64 1.98 22.83 1.028 1.7 5.974 5.438 7.62 6.59z" fill="#b3cec9"/><path d="m422.901 224.295c-7.114 12.133-11.708 25.063-20.971 34.025v-5.77c0-9.21-7.08-17.14-16.28-17.57-9.81-.46-17.93 7.37-17.93 17.08v16.76c-2.9-.46-6.01-1.33-8.55-1.33l-50.536 6.2c-23.134 2.838-43.534-15.212-43.534-38.52 0-.132 142.037-34.522 141.875-34.482 8.767-2.131 17.231 4.28 17.698 13.29.097 1.873.816 5.903-1.772 10.317z" fill="#cae0dd"/><path d="m482.53 158.789c-7.03 12.79-20.9 21.49-36.87 21.49-13.489 25.395-9.259 16.248-18.88 40.1-4.55-4.38-8.32-9.53-11.09-15.24-5.228-10.785-5.21-19.183-5.21-27.2 3.711-1.856 6.908-5.236 8.44-9.58 5.126-14.538 5.808-15.125 5.53-20.13 18.42-14.819 46.534-9.842 58.08 10.56z" fill="#6d6d6d"/><path d="m487.45 177.069c0 40.294.41 39.879-1.2 44.4-2.98 8.38-11.17 14.39-20.79 14.39-14.22 0-27.967-5.24-38.68-15.48 9.62-23.849 5.391-14.707 18.88-40.1 15.948 0 29.914-8.741 36.87-21.49 3.076 5.249 4.92 11.591 4.92 18.28z" fill="#f9cfac"/><path d="m487.45 177.069c0 40.294.41 39.879-1.2 44.4-5.814 6.586-12.549 9.024-20.95 5.507-15.91-6.659-22.93-25.392-15.942-41.16l2.662-6.007c12.45-1.85 23.09-9.03 29.36-19.07.55-.34 1.1-.7 1.63-1.08 2.84 5.2 4.44 11.12 4.44 17.41z" fill="#ffe4cc"/><path d="m424.51 149.649c0 3.79-1.033 5.751-4.07 14.38-1.775 5.042-2.938 9.913-9.21 13.5-13.787 8.044-30.757-5.256-25.44-20.3 1.159-3.281.267-.77 4.63-13.15 3.144-8.922 13.11-13.67 22.28-10.59 7.261 2.432 11.81 9.092 11.81 16.16z" fill="#6d6d6d"/><path d="m265.1 235.17v59.86l-188.13 17.11v-34.21c137.339-52.825 101.314-38.214 122.47-49.02 8.36-4.28 18.93-8.56 27.77-8.56 12.266-.001 28.776 7.958 37.89 14.82z" fill="#5fc68f"/><path d="m265.1 235.17c0 24.828-18.904 45.778-43.879 48.048l-125.927 11.446c-9.84.894-18.324-6.854-18.324-16.734 0-.1-3.403 1.309 111.17-42.76 0 0 2.94-1.99 11.3-6.26 8.36-4.28 18.93-8.56 27.77-8.56 12.266-.001 28.776 7.958 37.89 14.82z" fill="#7adbae"/><path d="m76.97 277.93v34.21l-42.76 8.55-7.03 35.157c-.978 4.889-6.133 7.681-10.783 5.88-9.593-3.716-16.397-13.033-16.397-23.938v-29.04c0-8.01 5.57-14.95 13.39-16.69z" fill="#f9cfac"/><path d="m76.97 277.93c0 9.784-6.906 18.211-16.503 20.13l-26.257 5.25-4.024 20.125c-3.574 17.872-30.186 15.628-30.186-3.026v-11.66c0-8.01 5.57-14.95 13.39-16.69z" fill="#ffe4cc"/><path d="m478.89 363.449h-76.96c-18.894 0-34.21-15.316-34.21-34.21v-76.97c0-6.09 3.19-11.44 8-14.47 11.423-7.214 26.21 1.161 26.21 14.96v76.48c38.831 0 45.121 1.485 55.512-5.573 7.374-5.009 17.468-2.398 21.458 5.573.061.123 6.581-.501 12.1 5 10.702 10.737 3.092 29.21-12.11 29.21z" fill="#f9cfac"/><path d="m496 346.159c-2.63 1.66-5.76 2.62-9.1 2.62h-76.97c-18.894 0-34.21-15.316-34.21-34.21v-76.77c11.423-7.214 26.21 1.161 26.21 14.96v76.48c38.831 0 45.121 1.485 55.512-5.573 7.374-5.009 17.468-2.398 21.458 5.573.061.123 6.581-.501 12.1 5 3.05 3.06 4.95 7.27 5 11.92z" fill="#ffe4cc"/><path d="m478.96 153.629c-19.414 12.768-57.379 13.661-80.778 6.052-6.512-2.118-10.033-9.142-7.762-15.602 6.123-17.414 32.459-14.205 34.03 4.15 16.712-13.444 41.347-10.64 54.51 5.4z" fill="#797a7a"/></svg>