<svg id="Layer_1" enable-background="new 0 0 496.172 496.172" height="512" viewBox="0 0 496.172 496.172" width="512" xmlns="http://www.w3.org/2000/svg"><path d="m91.1 349.723v40.49l-50.61 10.12-8.649 43.252c-.924 4.62-5.622 7.445-10.138 6.103-12.549-3.729-21.703-15.347-21.703-29.105v-34.38c0-9.49 6.59-17.7 15.85-19.76z" fill="#f9cfac"/><path d="m91.1 349.723c0 12.328-8.685 23.047-20.896 25.488l-29.714 5.942-4.773 23.87c-4.233 21.167-35.717 18.5-35.717-3.63v-15.19c0-9.49 6.59-17.7 15.85-19.76z" fill="#ffe4cc"/><path d="m477.917 450.943h-52.777c-11.178 0-20.24-9.062-20.24-20.24v-213.15c0-8 4.64-14.91 11.37-18.19 13.642-6.683 29.12 3.609 29.12 18.77v197.38l10.36 1.3c14.076 1.749 25.369 11.892 28.953 25.21 1.209 4.492-2.134 8.92-6.786 8.92z" fill="#f9cfac"/><path d="m472.032 439.763h-36.772c-11.178 0-20.24-9.062-20.24-20.24 0-233.089-.537-215.351 1.25-220.16 13.642-6.683 29.12 3.609 29.12 18.77v197.38c11.51 1.444 22.121 1.538 31.968 12.771 3.914 4.463.61 11.479-5.326 11.479z" fill="#ffe4cc"/><path d="m421.5 65.473c0 4.468-.937 6.033-6.38 21.46-1.772 5.021-4.664 8.861-9.34 11.54-17.109 9.44-36.269-6.545-30.11-24.03 1.75-4.969.595-1.72 5.48-15.57 3.725-10.562 15.52-16.18 26.37-12.53 8.299 2.783 13.98 10.441 13.98 19.13z" fill="#6d6d6d"/><path d="m344.16 329.473c-100.61 30.6-121.47 40.49-253.06 60.74v-40.49c141.72-40.49 121.47-60.74 155.09-80.98 9.52-5.73 22.41-10.12 32.87-10.12 10.965 0 27.058.811 35.8 7.41 2.321 5.037 14.136 30.588 29.3 63.44z" fill="#5fc68f"/><path d="m288.853 327.659c-54.94 16.921-89.018 26.335-176.32 40.329-11.208 1.797-21.433-6.85-21.433-18.266 141.72-40.49 121.47-60.74 155.09-80.98 9.52-5.73 22.41-10.12 32.87-10.12 17.53 0 29.331 2.572 34.74 6.61 1.339 1 .906.469 1.82 2.45 11.031 23.91-1.462 52.184-26.767 59.977z" fill="#7adbae"/><path d="m490.18 76.293c-8.33 15.13-24.74 25.43-43.64 25.43-15.972 30.061-10.967 19.238-22.35 47.47-5.862-5.649-10.079-11.763-13.13-18.04-5.742-11.861-6.16-20.934-6.16-32.2 9.134-4.872 9.779-10.749 15.46-26.89.965-2.741 1.314-5.599 1.07-8.28 21.657-17.37 54.863-11.912 68.75 12.51z" fill="#6d6d6d"/><path d="m496 97.923v44.29c0 13.971-11.658 25.3-26.03 25.3-17.182 0-33.406-6.46-45.78-18.32 11.382-28.228 6.376-17.407 22.35-47.47 18.345 0 35.029-9.812 43.64-25.43 3.832 6.585 5.82 14.004 5.82 21.63z" fill="#f9cfac"/><path d="m496 142.213c0 4.98-1.47 9.61-4.03 13.52-6.961 4.54-13.919 4.79-22.21 3.84-20.415-2.338-34.349-25.977-24.791-46.773l5.151-11.207c14.4-1 27.09-7.99 35.45-18.41 1.98-1.59 3.84-3.34 5.54-5.21 6.476 12.373 4.89 18.75 4.89 64.24z" fill="#ffe4cc"/><path d="m445.39 286.833v-68.7c0-10.9-8.38-20.28-19.27-20.8-11.62-.54-21.22 8.72-21.22 20.22v89.88c-31.76 13.77-60.74 22.04-60.74 22.04l-28.54-61.79c28.803-17.014 74.166-49.693 89.28-79.92 6.54-13.1 13.09-30.41 16.89-41.01 10.629 11.31 24.665 18.51 40.47 20.32 15.583 53.059 52.05 77.544-16.87 119.76z" fill="#b3cec9"/><path d="m484.83 226.983c-4.11 14.97-19.87 28.87-39.44 40.86v-47.257c0-10.9-8.38-20.28-19.27-20.8-11.62-.54-21.22 8.72-21.22 20.22v68.438c-3.146 1.364-6.264 2.674-9.33 3.927-28.334 11.583-60.445-1.449-73.11-28.867 19.53-12.21 66.56-43.98 82.44-75.74 6.54-13.1 13.09-30.41 16.89-41.01 10.629 11.31 24.665 18.51 40.47 20.32 8.67 29.519 19.27 42.309 22.57 59.909z" fill="#cae0dd"/><path d="m482.67 66.623c-17.221 22.773-64.535 27.26-93.35 12.662-7.462-3.781-10.949-12.522-8.17-20.412 3.708-10.527 15.493-16.189 26.37-12.53 7.99 2.68 13.24 9.7 13.91 17.44 18.656-14.963 45.589-12.811 61.24 2.84z" fill="#797a7a"/></svg>