<svg id="Layer_1" enable-background="new 0 0 496 496" height="512" viewBox="0 0 496 496" width="512" xmlns="http://www.w3.org/2000/svg"><path d="m264.53 286.581c-2.99 80.03-.48 57.86-8.81 121.24-.01.05-.01.11-.02.16-2.5 18.83-18.57 32.91-37.57 32.91h-218.13c0-13.287 8.086-25.279 20.47-30.23 34.309-13.717 33.46-13.86 38.2-13.86 7.55 0 14.05 4.53 16.92 11.02 2.247 0-8.054 1.359 121.14-16.88-9.018-80.256-30.876-95.231-20.37-137.43 11.02-44.09 77.15-44.09 77.15-44.09.564 3.95 10.439 73.075 11.02 77.16z" fill="#f9cfac"/><path d="m264.16 283.981c-2.41 67.9-.49 50.45-8.44 110.95-.01.05-.01.11-.02.16-2.5 18.83-18.57 32.91-37.57 32.91h-215.47c3.34-7.75 9.65-14.08 17.81-17.34l31.34-12.54c9.244-3.689 19.753.595 23.78 9.7 2.247 0-8.054 1.359 121.14-16.88-.5-4.45-1.04-8.67-1.59-12.66l1.59-.22c-6.847-60.466-21.185-86.284-22.84-108.63.39-5.63 1.27-11.1 2.47-15.92 11.02-44.09 77.15-44.09 77.15-44.09z" fill="#ffe4cc"/><path d="m264.53 286.581c-2.99 80.03-.48 57.86-8.81 121.24-.01.05-.01.11-.02.16-2.5 18.83-18.57 32.91-37.57 32.91h-74.84v-42.41l53.44-7.54c-9.212-81.334-30.892-95.418-20.37-137.43 9.11-36.44 55.85-42.76 71.81-43.86 3.35-.23 5.34-.23 5.34-.23 7.233 50.665 4.724 33.098 11.02 77.16z" fill="#5fc68f"/><path d="m259.42 250.821-2.18 22.34c-2.99 80.03-.48 57.86-8.81 121.24-.01.05-.01.11-.02.16-2.5 18.83-18.57 32.91-37.57 32.91h-38.56c-16.011 0-28.99-12.979-28.99-28.99 0-.1-1.602.226 53.44-7.54-9.212-81.334-30.892-95.418-20.37-137.43 9.11-36.44 55.85-42.76 71.81-43.86 3.35-.23 5.34-.23 5.34-.23z" fill="#7adbae"/><path d="m496 440.891h-66.13c-12.18 0-22.05-9.87-22.05-22.05v-176.8c0-22.959 31.318-31.01 41.79-9.41 3.286 6.818 2.3-3.656 2.3 169.68 13.245 1.657 24.223 1.907 34.71 13.79 5.851 6.605 9.38 15.376 9.38 24.79z" fill="#f9cfac"/><path d="m493.71 428.001h-47.84c-12.18 0-22.05-9.87-22.05-22.05 0-192.902-.776-179.617 1.81-185.54 14.15-2.747 26.28 8.557 26.28 22.24v159.66l11.27 1.41c13.61 1.699 25.565 10.78 30.53 24.28z" fill="#ffe4cc"/><path d="m451.91 243.101c0-4.776-1.501-9.281-3.94-12.86-12.114-18.059-40.15-9.428-40.15 12.25v66.13c-48.51-2.82-72.73 9.14-143.29-22.04l-11.02-77.16c44.084 0 90.491 58.581 154.49-53.42l32.89 31.38c7.627 17.747 11.948 36.731 11.02 55.72z" fill="#b3cec9"/><path d="m451.91 243.101c0-4.776-1.501-9.281-3.94-12.86-12.114-18.059-40.15-9.428-40.15 12.25v50.13c-23.48-1.36-41.26.73-61.36-.27-46.15-2.31-84.13-37.14-90.66-82.88 43.412 1.93 89.312 56.584 152.2-53.47l32.89 31.38c7.627 17.747 11.948 36.731 11.02 55.72z" fill="#cae0dd"/><path d="m478.64 88.931c-9.07 16.48-26.94 27.7-47.52 27.7-17.39 32.739-11.939 20.951-24.33 51.69-5.87-5.65-10.73-12.29-14.3-19.65-6.976-14.407-6.71-25.688-6.71-35.06 4.983-2.567 8.932-6.851 10.87-12.35 6.539-18.551 7.428-19.334 7.14-25.94 23.753-19.097 59.937-12.714 74.85 13.61z" fill="#6d6d6d"/><path d="m484.98 112.491c0 52.197 1.027 53.235-3.3 61.13-4.76 8.72-14.19 14.65-25.04 14.65-18.529 0-36.256-6.926-49.85-19.95 12.391-30.739 6.941-18.953 24.33-51.69 20.317 0 38.299-10.973 47.52-27.7 3.971 6.729 6.34 14.988 6.34 23.56z" fill="#f9cfac"/><path d="m484.98 112.491c0 52.197 1.027 53.235-3.3 61.13-26.146 14.47-63.263-17.595-47.602-52.053l2.362-5.197c15.82-1.5 29.63-9.66 38.43-21.56 1.68-1.24 3.28-2.58 4.79-4.01 3.41 6.51 5.32 13.89 5.32 21.69z" fill="#ffe4cc"/><path d="m403.85 77.151c0 4.877-2.573 6.53-6.34 21.66-1.468 5.898-4.234 10.535-10.77 14.27-17.754 10.31-39.661-6.644-32.79-26.16 2.411-6.849 1.048-2.999 5.97-16.95 8.326-23.6 43.93-17.426 43.93 7.18z" fill="#6d6d6d"/><path d="m474.73 83.141c-19.685 19.845-77.124 21.775-106.315 7.587-7.699-3.742-11.342-12.684-8.496-20.757 4.036-11.447 16.849-17.637 28.71-13.65 8.71 2.92 14.43 10.57 15.16 19 21.561-17.334 53.875-13.935 70.941 7.82z" fill="#797a7a"/></svg>