<svg id="Layer_1" enable-background="new 0 0 496.102 496.102" height="512" viewBox="0 0 496.102 496.102" width="512" xmlns="http://www.w3.org/2000/svg"><path d="m391.399 238.837-71.3 119.68s-16 42.34-56 42.34c-3.979 0-36.19 3.38-44.62-9.54 2.694-7.19-2.031 5.412 28.62-76.31l124.97-109.59c.202-.171-1.27-2.689 18.33 33.42z" fill="#5fc68f"/><path d="m372.265 245.6-59.467 99.817s-16 42.34-56 42.34c-18.462 0-29.408-17.54-23.568-33.108l14.868-39.642 124.97-109.59c6.749 12.432 6.63 27.706-.803 40.183z" fill="#7adbae"/><path d="m496.099 129.757c0 5.311 1.09 1.93-34.55 66.17-6.652 11.989-22.84 14.47-32.77 5.01l-37.38 37.9-18.2-33.54c9.822-8.568-8.437 7.314 100.8-87.96 7.743-6.753 22.1.076 22.1 12.42z" fill="#f9cfac"/><path d="m493.049 120.677-31.5 56.76c-6.65 11.99-22.84 14.47-32.77 5.01l-20.61 20.897c-8.345 8.461-22.492 6.458-28.16-3.987-.054-.1-2.64 2.259 93.99-82.02 5.511-4.807 14.499-2.684 19.05 3.34z" fill="#ffe4cc"/><path d="m248.099 315.007-28.62 76.31c-72.678-50.312-91.52-60.73-117.9-91.13-11.93-13.77-29.55-57.79-33.78-94.14 6.842 2.577 14.351 4.04 22.24 4.04 5.18 0 9.98-1.56 13.94-4.23l10.58 4.23c20.698-.152 20.071-.161 22.06 0 19.23 1.52 35.17 17.62 35.17 38.15 1.07.936 75.324 65.912 76.31 66.77z" fill="#b3cec9"/><path d="m247.479 314.467c-12.021 32.055-51.006 44.297-79.197 24.782-21.443-14.844-39.758-26.616-62.403-52.712-10.24-11.82-24.67-45.93-31.22-78.35 4.91 1.24 10.07 1.9 15.38 1.9 5.18 0 9.98-1.56 13.94-4.23l10.58 4.23c20.698-.152 20.071-.161 22.06 0 19.23 1.52 35.17 17.62 35.17 38.15z" fill="#cae0dd"/><path d="m109.079 124.117c-7.85 14.26-23.31 23.97-41.13 23.97-15.048 28.32-10.333 18.121-21.05 44.73-5.08-4.89-9.29-10.63-12.38-17-5.876-12.147-5.81-21.548-5.81-30.35 3.624-1.749 7.192-5.256 9.05-9.74.257-.613-.177.536 5.52-15.59 1.029-2.912 1.149-5.216 1.02-7.8 20.583-16.556 51.878-10.94 64.78 11.78z" fill="#6d6d6d"/><path d="m114.559 144.507c0 45.098.816 45.587-2.46 52.16-4.005 7.968-12.384 13.42-22.06 13.42-15.934 0-31.317-5.918-43.14-17.27 10.716-26.608 6.001-16.408 21.05-44.73 17.823 0 33.381-9.781 41.13-23.97 3.515 6.233 5.48 12.853 5.48 20.39z" fill="#f9cfac"/><path d="m114.559 144.507c0 45.098.816 45.587-2.46 52.16-4.547 2.736-10.672 4.308-16.067 3.08-20.959-4.771-34.927-27.842-24.043-51.83 14.51-1.21 27.11-8.88 34.76-20.02 1.04-.83 2.03-1.7 2.99-2.6 3.08 5.74 4.82 12.28 4.82 19.21z" fill="#ffe4cc"/><path d="m44.359 113.927c0 4.173-.834 5.333-6.24 20.86-1.419 4.077-4.416 7.847-8.57 10.23-15.245 9.032-34.513-5.93-28.38-22.64l5.169-14.668c3.51-9.95 14.621-15.252 24.841-11.812 7.806 2.619 13.18 9.802 13.18 18.03z" fill="#6d6d6d"/><path d="m333.949 229.317c-.09 10.55-9.01 18.92-19.57 18.92h-189.79c-12.442 0-21.986-11.394-19.04-23.51 1.962-8.348 9.515-14.64 18.55-14.64h144.71c9.7 0 16.16-2.16 22.13-6.22 8.23-5.59 19.48-2.67 23.93 6.22 10.56 0 19.146 8.547 19.08 19.23z" fill="#f9cfac"/><path d="m333.419 224.717c-2.04 8.48-9.93 14.71-19.04 14.71h-189.79c-9.1 0-16.99-6.22-19.04-14.7 1.962-8.348 9.515-14.64 18.55-14.64h144.71c9.7 0 16.16-2.16 22.13-6.22 8.23-5.59 19.48-2.67 23.93 6.22 8.927 0 16.551 6.146 18.55 14.63z" fill="#ffe4cc"/><path d="m102.288 115.294c-10.516 20.144-55.529 25.597-84.02 16.612-10.092-3.183-15.442-14.214-11.93-24.196 3.486-9.907 14.576-15.267 24.841-11.812 7.54 2.53 12.49 9.14 13.12 16.44 17.129-13.778 42.36-12.553 57.989 2.956z" fill="#797a7a"/></svg>