<svg id="Layer_1" enable-background="new 0 0 496.008 496.008" height="512" viewBox="0 0 496.008 496.008" width="512" xmlns="http://www.w3.org/2000/svg"><path d="m196.298 30.328c0 4.467-.865 5.877-6.61 22.11-1.667 4.711-4.959 8.473-9.08 10.83-15.251 8.938-36.104-4.388-30.03-24.11l5.429-15.407c3.73-10.55 15.501-16.163 26.331-12.523 8.385 2.816 13.96 10.535 13.96 19.1z" fill="#6d6d6d"/><path d="m311.303 496.008h-55.169c-13.147 0-22.796-12.36-19.605-25.114 5.11-20.426 2.028.483 14.929-112.626-45.911-4.161-62.255-3.937-91.95-3.74-10.454.141-30.792-5.124-40.42-10.1-24.352-12.613-30.816-50.004-20.21-70.74l80.84 10.1c71.31 17.51 42.912 4.138 97.81 24.63 18.554 6.926 26.005 24.02 22.74 39.87-7.889 38.301-6.43 31.168-23.97 116.28l25.3 6.33c7.544 1.886 13.612 6.979 16.903 13.603 2.629 5.294-1.287 11.507-7.198 11.507z" fill="#f9cfac"/><path d="m300.143 496.008h-44.009c-13.151 0-22.797-12.356-19.605-25.114 5.104-20.404 2.028.483 14.929-112.626-41.291-3.742-57.502-3.906-94.3-3.8-7.817.023-28.062-4.868-38.07-10.04-24.52-12.7-30.09-48.93-20.84-69.42l70.31 8.78c71.31 17.51 42.919 4.09 97.81 24.63 18.678 6.989 25.988 24.122 22.74 39.87-7.915 38.373-1.686 8.203-23.98 116.28l25.31 6.33c7.544 1.886 13.612 6.979 16.903 13.603 2.629 5.294-1.287 11.507-7.198 11.507z" fill="#ffe4cc"/><path d="m300.268 348.288c-4.45 21.603-1.788 8.686-11.71 56.77h-42.44c1.863-16.319.66-5.778 5.34-46.79-45.19-4.052-59.668-3.93-91.95-3.74-11.1.08-31.15-5.3-40.42-10.1-24.056-12.463-30.921-49.319-20.21-70.74l80.84 10.1c71.31 17.51 42.912 4.138 97.81 24.63 6.09 2.273 10.581 4.912 15.2 10.4 6.71 7.91 9.761 18.69 7.54 29.47z" fill="#5fc68f"/><path d="m293.318 335.238c-2.993 14.56-4.866 23.605-4.839 23.472-3.981 19.291-20.975 33.298-40.871 33.298l3.85-33.74c-1.55-.139-15.568-14.046-37.358-15.47-26.498-1.732-41.045-1.44-61.542-1.32-11.1.08-31.15-5.3-40.42-10.1-5.74-2.97-10.43-7.23-14.14-12.27-5.7-15.42-5.1-33.46.88-45.42l80.84 10.1c71.31 17.51 42.912 4.138 97.81 24.63 6.09 2.273 10.581 4.912 15.2 10.4 1.47 5.2 1.743 10.811.59 16.42z" fill="#7adbae"/><path d="m264.858 41.128c-8.31 15.11-24.69 25.39-43.57 25.39-15.936 30.012-10.945 19.215-22.3 47.4-5.39-5.18-9.84-11.27-13.12-18.02-6.183-12.79-6.15-22.685-6.15-32.15 3.263-1.579 6.557-4.56 8.64-8.34 1.097-2.023.837-1.595 6.8-18.5 1.045-2.962 1.212-5.269 1.07-8.26 22.083-17.756 55.148-11.281 68.63 12.48z" fill="#6d6d6d"/><path d="m270.668 62.728c0 47.374.643 47.653-1.9 53.71-3.86 9.25-13.18 15.77-24.08 15.77-16.919 0-33.045-6.315-45.282-17.909-.622-.488-1.329 1.88 8.602-22.771l13.28-25.01c18.775 0 35.255-10.215 43.57-25.39 3.96 6.853 5.81 14.248 5.81 21.6z" fill="#f9cfac"/><path d="m270.668 62.728c0 47.374.643 47.653-1.9 53.71-5.777 2.491-13.572 2.803-18.395 1.262-20.714-6.617-32.09-30.097-22.464-51.612 14.66-1.9 27.27-10.05 34.91-21.6.96-.63 1.89-1.3 2.79-2 3.239 6.06 5.059 12.95 5.059 20.24z" fill="#ffe4cc"/><path d="m270.668 192.838c0 20.21-23.17 43.38-30.31 50.53-10.11 10.1-60.64 40.42-60.64 40.42l-80.84-10.1c0-29.984 79.492-70.14 100.528-159.389.183-.055 5.215 5.531 14.542 10.389 12.299 6.464-1.568-3.33 26.41 17.62 12.457 11.473 30.31 33.576 30.31 50.53z" fill="#b3cec9"/><path d="m254.038 182.548c0 19.207-23.3 45.789-36.852 55.949-30.777 23.073-69.41 33.088-107.579 28.321l-9.048-1.13c11.51-29.18 79.03-69.4 98.6-150.36 8.846 4.329-.953-2.422 24.57 16.69 12.456 11.474 30.309 33.576 30.309 50.53z" fill="#cae0dd"/><path d="m402.048 21.448c0 5.68-2.26 11.14-6.28 15.16-2.891 2.891-121.251 121.241-149.96 149.95-4.19 4.19-9.67 6.28-15.15 6.28-15.147 0-25.58-15.344-19.89-29.44 2.254-5.657-5.276 2.847 109.21-111.64 8.509-8.509 14.706-18.902 18.186-30.199 3.548-11.517 15.503-18.349 27.284-15.271 13.346-13.346 36.6-4.113 36.6 15.16z" fill="#f9cfac"/><path d="m400.498 13.448c-2.376 5.907 8.745-6.327-154.69 157.11-10.906 10.906-29.364 7.029-35.04-7.16 2.312-5.802-4.377 1.947 109.21-111.64 8.509-8.509 14.706-18.902 18.186-30.199 3.548-11.517 15.503-18.349 27.284-15.271 10.836-10.835 29.358-7.121 35.05 7.16z" fill="#ffe4cc"/><path d="m253.578 28.178c-5.577 24.946-53.934 34.952-85.74 22.186-10.435-4.188-15.568-16.009-11.831-26.614 3.694-10.483 15.435-16.185 26.331-12.523 7.98 2.68 13.22 9.69 13.89 17.42 16.615-13.358 40.586-13.5 57.35-.469z" fill="#797a7a"/></svg>