<svg id="Layer_1" enable-background="new 0 0 495.99 495.99" height="512" viewBox="0 0 495.99 495.99" width="512" xmlns="http://www.w3.org/2000/svg"><path d="m415.99 253.489v42.52h-176v-72c66.405 0 106.071 12.301 176 29.48z" fill="#5fc68f"/><path d="m415.99 253.489c0 19.012-15.403 34.52-34.52 34.52h-141.48v-64c66.405 0 106.071 12.301 176 29.48z" fill="#7adbae"/><path d="m495.99 242.582v37.427c0 8.837-7.163 16-16 16h-64v-42.52l55.24 13.57c5.025-20.109 5.148-25.318 12.256-30.792 5.099-3.927 12.504-.122 12.504 6.315z" fill="#f9cfac"/><path d="m495.99 242.582v29.427c0 8.837-7.163 16-16 16h-64v-34.52l55.24 13.57c5.025-20.109 5.148-25.318 12.256-30.792 5.099-3.927 12.504-.122 12.504 6.315z" fill="#ffe4cc"/><path d="m82.16 256.759c-6.557 6.813-14.953 11.778-24.51 14-6.211 1.421-10.318 1.25-15.2 1.25-3.918-7.25-10.43-8.406-21.25-12.22-2.273-.801-4.254-.985-6.54-.85-14.037-17.43-8.95-43.646 9.88-54.33 12.171 6.681 20.1 19.806 20.1 34.49 23.694 12.587 15.269 8.701 37.52 17.66z" fill="#6d6d6d"/><path d="m62.41 248.539c-10.209 6.422-18.694 7.47-30.13 7.47-1.743-3.486-4.914-6.46-8.96-7.89-13.286-4.697-13.512-4.917-16.02-5.16-3.008-15.384 4.273-30.993 17.24-38.35 2.86 1.57 5.5 3.51 7.86 5.75 1.34 3.99 2.07 8.28 2.07 12.74l8.5 4.52c1.09 3.63 1.67 7.48 1.67 11.48z" fill="#6d6d6d"/><path d="m96.64 220.579c0 13.465-5.055 26.341-14.48 36.18-22.264-8.964-13.839-5.078-37.52-17.66 0-14.94-8.14-27.91-20.1-34.49 10.333-5.97 15.839-4.6 52.1-4.6 11.207 0 20 9.379 20 20.57z" fill="#f9cfac"/><path d="m95.97 215.309c-1.065 16.655-20.956 29.595-38.907 21.146-7.09-3.337-12.34-9.639-14.543-17.259-1.994-6.897-5.788-12.993-10.82-17.707 6.394-1.949 7.053-1.48 44.94-1.48 9.28 0 17.07 6.49 19.33 15.3z" fill="#ffe4cc"/><path d="m43.41 284.959c-2.87 8.55-11.98 13.1-20.33 10.15l-12.3-4.33c-16.513-5.825-13.173-30.836 4.38-31.87 2.006-.071 3.871.115 6.04.88 14.458 5.096 12.63 4.45 12.91 4.57 7.888 3.146 12.133 12.194 9.3 20.6z" fill="#6d6d6d"/><path d="m62.41 248.539c-10.333 6.501-18.912 7.47-30.13 7.47 6.687 13.014-5.666 27.933-19.37 23.1-13.021-4.592-12.405-4.358-12.91-4.56.376-8.27 6.683-14.919 14.66-15.61-14.037-17.43-8.95-43.646 9.88-54.33 12.171 6.681 20.1 19.806 20.1 34.49z" fill="#797a7a"/><path d="m239.99 224.009v72c-109.908 0-131.131.835-136-2.15v.33c-19.523-3.861-29.76-11.236-48-22.18l1.66-1.25c13.727-3.192 25.088-12.327 31.27-22.76 25.39-.368 21.051-18.15 47.23-23.18 21.033-4.057 28.67 7.19 47.16 7.19z" fill="#b3cec9"/><path d="m239.99 224.009v64c-104.768 0-123.318 1.05-128-1.82-18.847-3.728-29.249-10.929-43.38-19.41 6.637-3.331 12.33-8.128 16.6-13.51 2.365-1.878 4.713-4.176 5.72-5.35 21.09-1.26 21.74-16.11 37-20.69 5.177-2.063 10.8-3.22 16.74-3.22 15.886 0 22.849 8 38.64 8z" fill="#cae0dd"/><path d="m287.99 280.139c-.07 8.85-7.56 15.87-16.41 15.87h-159.59c-10.627 0-18.223-10.187-15.44-20.19 1.811-6.798 8.045-11.81 15.44-11.81 132.308 0 123.743.209 128-.49 11.182-1.757 11.841-7.11 19.68-7.11 5.01 0 9.88 2.73 12.32 7.6 8.89 0 16.059 7.214 16 16.13z" fill="#f9cfac"/><path d="m287.42 275.789c-1.91 6.86-8.39 11.83-15.84 11.83h-159.59c-7.255 0-13.56-4.885-15.44-11.8 1.811-6.798 8.045-11.81 15.44-11.81h121.37c7.146 0 12.914-1.382 18.56-5.21 6.796-4.635 16.291-2.332 20.07 5.21 7.413 0 13.617 5.024 15.43 11.78z" fill="#ffe4cc"/></svg>