<svg id="Layer_1" enable-background="new 0 0 495.989 495.989" height="512" viewBox="0 0 495.989 495.989" width="512" xmlns="http://www.w3.org/2000/svg"><path d="m495.986 246.762c-.25 15.15-13.07 27.09-28.22 27.09h-275.233c-18.142 0-31.159-16.932-26.228-34.87 3.201-11.677 13.879-20.24 26.57-20.24h209.03c14.09 0 23.47-3.17 32.14-9.1 11.78-8.06 28-3.67 34.38 9.1 15.502 0 27.789 12.655 27.561 28.02z" fill="#f9cfac"/><path d="m494.996 238.992c-3.3 11.77-14.44 20.28-27.23 20.28h-274.34c-12.78 0-23.84-8.52-27.12-20.29 3.201-11.677 13.879-20.24 26.57-20.24h209.03c14.09 0 23.47-3.17 32.14-9.1 11.78-8.06 28-3.67 34.38 9.1 12.733 0 23.403 8.582 26.57 20.25z" fill="#ffe4cc"/><path d="m247.986 273.852c0 27.56-42.59 50.48-55.11 56.23-25.11 11.54-73.1 47.81-81.42 54.16-1.843-.251 8.683-.075-111.445-1.29 2.158-42.575 133.889-184.023 215.975-223.95l-5.81 10.5c4.439 15.353 13.249 29.205 23.58 39.3.101.099-.078-.136 5.96 9.94h-46.84c-7.61 0-14.5 3.08-19.49 8.07-17.227 17.261-5.083 47.04 19.49 47.04z" fill="#b3cec9"/><path d="m223.986 273.852c0 27.56-42.59 50.48-55.11 56.23-22.569 10.372-75.654 53.813-168.865 52.87 1.93-38.08 107.145-154.79 188.005-207.8 4.749 13.083 11.948 23.858 21.75 33.66l5.95 9.93h-23.73c-15.409 0-27.868 12.637-27.554 28.13.305 15.084 13.015 26.98 28.102 26.98z" fill="#cae0dd"/><path d="m489.256 419.952-26.65 46.65c-3.38 5.91-8.76 10.26-15.01 12.4-5.894 2.006 18.13 1.561-377.22 1.41-39.182-.083-70.332-31.796-70.375-70.34-.001-1.054 0-25.356 0-27.12 1.595 0-14.614-.149 110.205 1.12 1.876.255 297.266 40.533 303.11 41.33l55.11-41.33c18.441 0 29.957 19.93 20.83 35.88z" fill="#f9cfac"/><path d="m490.766 399.322c-.87 2.25.755-.787-28.16 49.8-5.019 8.781-14.305 13.903-23.98 13.88-375.054-.902-369.428 1.127-382.21-1.48-32.65-6.618-56.369-35.318-56.405-68.93v-9.64c1.602 0-14.624-.149 110.195 1.12 1.876.255 297.266 40.533 303.11 41.33l55.11-41.33c10.61 0 18.94 6.59 22.34 15.25z" fill="#ffe4cc"/><path d="m316.876 412.252v68.19c-81.86 0-194.13-.01-246.5-.03-39.048-.042-70.334-31.691-70.375-70.34v-27.12c1.595 0-14.614-.149 110.205 1.12z" fill="#5fc68f"/><path d="m316.876 412.252v50.75c-81.86 0-194.13-.01-246.5-.03-39.05-.042-70.324-31.693-70.365-70.34v-9.68l110.195 1.12z" fill="#7adbae"/><path d="m340.345 139.802c-22.58 6.55-48.29.67-66.48-17.52-44.312 13.562-29.067 7.96-67.2 24.18-.314-16.84 4.17-33.171 12.98-47.17 5.531-8.786 10.383-13.32 16.81-19.76 6.229 2.122 13.812 1.904 20.52-1.3 22.991-10.982 23.891-10.736 29.24-16.62 38.326 4.152 64.079 42.269 54.13 78.19z" fill="#6d6d6d"/><path d="m340.345 139.802c-2.58 9.72-7.66 18.87-15.22 26.43l-42.63 42.62c-13.465 13.485-35.605 13.108-49.4-.69-16.211-16.211-25.905-37.94-26.43-61.7 38.111-16.213 22.926-10.629 67.2-24.18 18.088 18.088 43.834 24.128 66.48 17.52z" fill="#f9cfac"/><path d="m329.566 141.962c-2.894 3.681-1.482 1.993-47.07 47.61-13.238 13.246-35.059 13.302-48.73-.04-13.343-13.022-21.225-28.16-24.82-44.04 35.259-14.998 20.609-9.648 64.92-23.21 15.349 15.35 36.039 21.93 55.7 19.68z" fill="#ffe4cc"/><path d="m286.215 61.612c-5.137 5.875-5.717 5.384-29.24 16.62-22.085 10.549-47.009-11.308-38.95-34.79 2.27-6.64 7.07-12.37 13.89-15.63l20.25-9.7c15.085-7.214 33.445.675 38.94 16.89 3.161 9.36 1.277 19.557-4.89 26.61z" fill="#6d6d6d"/><g fill="#797a7a"><path d="m291.105 35.002c-2.285 6.771-7.209 12.419-13.89 15.63l-20.24 9.69c-15.133 7.212-33.467-.701-38.95-16.88 2.27-6.64 7.07-12.37 13.89-15.63l20.25-9.7c15.086-7.214 33.446.675 38.94 16.89z"/><path d="m334.175 93.192c-28.427 21.078-80.369 23.874-114.53 6.1 5.531-8.786 10.383-13.32 16.81-19.76 6.229 2.122 13.812 1.904 20.52-1.3 22.991-10.982 23.891-10.736 29.24-16.62 20.164 2.185 37.952 14.112 47.96 31.58z"/></g></svg>