<svg id="Layer_1" enable-background="new 0 0 495.99 495.99" height="512" viewBox="0 0 495.99 495.99" width="512" xmlns="http://www.w3.org/2000/svg"><path d="m125.522 485.293c1.657 5.319-2.457 10.697-8.028 10.697h-75.185c-15.63 0-28.298-12.68-28.28-28.32.081-71.168.02-256.87.07-392.62.042-40.153 32.605-72.199 72.21-72.235 30.555-.028 22.93 0 27.84 0l-1.13 111.345c-.032 2.818 2.751-20.29-42.45 339.4l29.12 7.28c12.062 3.008 21.978 12.08 25.833 24.453z" fill="#f9cfac"/><path d="m102.836 474.463c5.766 9.424-1.295 21.527-12.343 21.527h-48.184c-15.63 0-28.298-12.68-28.28-28.32.081-71.168.02-256.87.07-392.62.042-40.153 32.605-72.2 72.21-72.235h10.69l-1.13 111.345c-.032 2.815 2.751-20.29-42.45 339.4l29.12 7.28c8.999 2.245 17.118 8.428 20.297 13.623z" fill="#ffe4cc"/><path d="m438.459 261.57c-21.14-11.64-35.53-34.57-35.53-60.98-42.012-22.32-26.89-15.328-66.33-31.22 16.117-16.798 38.461-26.96 62.79-26.96h7.41c2.953 6.048 8.855 11.055 16.002 13.58 24.355 8.603 25.422 10.044 33.127 9.53 24.802 30.835 15.86 77.149-17.469 96.05z" fill="#6d6d6d"/><path d="m438.459 261.57c-8.93 5.18-19.25 8.13-30.23 8.13h-61.88c-19.53 0-35.35-16.28-35.35-36.37 0-24.77 9.543-47.097 25.49-63.85.165-.165-2.159-1.024 31.43 12.51l35.01 18.6c0 26.095 14.11 49.169 35.53 60.98z" fill="#f9cfac"/><path d="m426.509 253.15c-11.743 3.765-13.657 2.84-80.16 2.84-17.78 0-32.48-13.49-34.97-31.07 1.832-20.574 10.366-39.951 25.11-55.44.165-.165-2.159-1.024 31.43 12.51l35.01 18.6c0 21.06 9.15 39.91 23.58 52.56z" fill="#ffe4cc"/><path d="m444.369 164.01-21.73-7.65c-6.63-2.35-11.88-6.97-15.17-12.71-13.214-23.551 8.983-50.749 33.57-42.08 22.753 8.022 28.481 8.708 34.98 17.42 16.996 22.733-5.251 54.368-31.65 45.02z" fill="#6d6d6d"/><path d="m438.809 150.4c-22.495-7.935-28.491-8.708-34.99-17.46-2.906-21.163 17.152-38.445 37.22-31.37 22.753 8.022 28.481 8.708 34.98 17.42 2.913 20.963-16.902 38.574-37.21 31.41z" fill="#797a7a"/><path d="m323.429 162.86c-87.836-49.836-115.63-174.123-210.44-161.88v1.81l1.16.025c-.228 22.453-.899 88.956-1.13 111.345 1.32 1.72 43.75 56.98 56.54 84.82 5.91 12.86 29.44 56.58 57.72 56.58h69.57c6.079-12.171 2.835-5.682 14.38-28.76 1.564-22.697 11.225-42.576 25.26-57.32-6.106-2.729-12.448-6.213-13.06-6.62z" fill="#b3cec9"/><path d="m113.929.86c-1.013 97.695 43.097 146.838 55.63 174.11 5.91 12.86 29.44 56.58 57.72 56.58h69.57c6.079-12.171 2.835-5.682 14.38-28.76 1-14.51 5.31-28.09 12.2-39.93-87.19-49.47-116.68-174.4-209.5-162z" fill="#cae0dd"/><path d="m114.149 2.815c0 1.601.151-14.84-1.15 113.125l-26.65 212.05h-72.28c0-84.03.01-199.2.03-252.94.042-39.855 32.327-72.193 72.21-72.235h27.84z" fill="#5fc68f"/><path d="m114.149 2.815c0 .105-36.651 269.883-36.635 269.764-4.289 31.583-31.255 55.411-63.445 55.411 0-84.03.01-199.2.03-252.94.042-39.855 32.327-72.193 72.21-72.235h27.84z" fill="#7adbae"/><path d="m392.049 456.59c2.906 6.796 3.121 14.513.29 21.66-9.471 23.557-42.47 23.489-52.55.04-23.762-55.278-3.241-7.521-111.35-259.28-7.844-18.267 6.05-31.126 6.05-31.23 14.135-14.078 38.064-9.422 45.93 8.91l84.68 197.15c5.68 13.24 12.43 20.79 21.48 26.56 11.843 7.535 15.651 23.976 5.47 36.19z" fill="#f9cfac"/><path d="m392.049 456.59c2.13 4.98 2.73 10.23 2.01 15.22-14.395 14.339-38.282 8.933-46.21-9.52-23.752-55.283-3.211-7.538-111.36-259.28-2.139-4.98-2.73-10.23-2-15.22 0-.126 3.705-3.753 8.78-5.93 14.451-6.193 31.014.53 37.15 14.83l84.68 197.15c5.68 13.24 12.43 20.79 21.48 26.56 11.843 7.535 15.651 23.976 5.47 36.19z" fill="#ffe4cc"/><path d="m461.989 174.55c-38.248 15.807-93.552 11.184-120.98-9.45 15.61-14.203 36.132-22.69 58.38-22.69h7.41c2.953 6.048 8.855 11.055 16.002 13.58 24.355 8.603 25.422 10.044 33.127 9.53 2.261 2.81 4.301 5.83 6.061 9.03z" fill="#797a7a"/></svg>