<svg id="Layer_1" enable-background="new 0 0 496 496" height="512" viewBox="0 0 496 496" width="512" xmlns="http://www.w3.org/2000/svg"><path d="m270.575 59.849c0 18.63-6.071 30.186-11.343 42.159-8.916 20.25-40.543 20.262-49.465 0-5.943-13.497-11.34-24.058-11.34-42.16 0-29.014 38.849-43.859 61.583-23.191 6.527 5.933 10.565 14.133 10.565 23.192z" fill="#ffe4cc"/><path d="m270.575 59.849c0 4.34-.368 8.661-1.098 12.941-1.61-5.82-4.94-11.02-9.47-15.13-19.92-18.148-53.742-9.218-60.48 15.14-2.552-14.925-1.183-27.885 11.07-37.51 23.025-18.572 59.978-3.872 59.978 24.559z" fill="#6d6d6d"/><path d="m216.464 31.879v-13.843c0-9.965 8.071-18.036 18.036-18.036 9.98 0 18.036 8.071 18.036 18.036v13.843z" fill="#6d6d6d"/><path d="m295.237 130-6.47-8.1c-3.11-3.11-7.19-4.66-11.27-4.66h-85.99c-4.08 0-8.16 1.55-11.27 4.66-.298.373-6.323 7.916-6.71 8.4 9.371 50.574 15.88 32.74 15.88 113.19h90.18c0-41.782 1.062-55.863 6.16-74.17 1.026-3.73 10.618-37.957 9.49-39.32z" fill="#b3cec9"/><path d="m283.832 127.604-5.255-6.579c-2.526-2.526-5.84-3.785-9.154-3.785h-69.843c-3.314 0-6.628 1.259-9.154 3.785-.242.303-5.136 6.43-5.45 6.823 6.193 33.423 11.739 31.256 12.675 70.151.465 19.338 16.263 34.784 35.606 34.784 24.348 0 37.618-17.028 38.098-34.971.397-15.25 1.047-24.91 4.768-38.272.857-3.11 8.624-30.831 7.709-31.936z" fill="#cae0dd"/><path d="m357.127 297.76-77.54-54.27h-90.18c-10.731 66.404-1.204 109.889 8.32 180.43h36.77v-126.32l63.13 18.04v36.07h42.49c29.103 0 40.453-37.493 17.01-53.95z" fill="#5fc68f"/><path d="m357.127 297.76-77.54-54.27h-90.18c-9.482 58.679-2.734 87.421 6.02 152.44 2.163 16.068 21.904 22.698 33.35 11.22 3.53-3.55 5.72-8.45 5.72-13.85v-95.23c0-5.75 5.5-9.9 11.03-8.32 75.329 21.526 53.619 15.413 92.1 25.89-41.233 0-40 .1-40 0 0 13.846 11.224 25.07 25.07 25.07h17.42c14.5 0 26.57-10.4 29.14-24.15-1.445-7.68-5.829-14.377-12.13-18.8z" fill="#7adbae"/><g fill="#f9cfac"><path d="m234.497 423.92v64.08c0 4.42-3.58 8-8 8h-53.85c-6.15 0-10.1-6.71-6.94-11.97 1.963-3.927 7.491-8.778 14.15-10.44l23.76-5.94c-1.429-10.634-.251-1.97-5.89-43.73 1.678 0-3.213.157 36.77 0z"/><path d="m234.497 423.92v56.08c0 4.42-3.58 8-8 8h-53.85c-3.06 0-5.57-1.66-6.94-3.97 1.963-3.927 7.491-8.778 14.15-10.44l23.76-5.94-1.04-7.74 1.04-.26-4.81-35.73z"/><path d="m297.627 315.64v36.07h-36.07c-4.635 18.512-4.964 25.019-12.84 31.18-3.96 3.09-8.92 4.89-14.22 4.89v-56.14c0-8.837 7.163-16 16-16z"/></g><path d="m297.627 315.64v25.4h-36.07c-4.635 18.512-4.964 25.019-12.84 31.18-3.96 3.09-8.92 4.89-14.22 4.89v-45.47c0-8.837 7.163-16 16-16z" fill="#ffe4cc"/><path d="m230.537 153.624c2.089-.332 3.961 1.351 3.961 3.467v50.329c0 4.995-4.053 9.02-9.02 9.02h-79.16c-16.865 0-26.034-19.568-15.65-32.55 49.32-61.657 41.045-51.317 49.57-61.99 6.208-6.207 16.32-6.22 22.54 0 6.154 6.154 6.28 16.27 0 22.55-27.962 35.626-23.93 30.492-35.28 44.93h39.95l3.31-18.96c2.995-9.024 10.786-15.369 19.779-16.796z" fill="#f9cfac"/><path d="m322.687 216.44h-79.17c-4.977 0-9.02-4.05-9.02-9.02v-50.33c0-2.115 1.871-3.798 3.961-3.467 8.878 1.409 16.741 7.645 19.779 16.796l3.32 18.96h39.95c-10.676-13.581-1.898-2.407-35.29-44.93-6.278-6.278-6.156-16.394 0-22.55 6.282-6.261 16.385-6.165 22.55 0 37.969 47.535 4.912 6.162 49.57 61.99 10.394 12.995 1.172 32.551-15.65 32.551z" fill="#f9cfac"/><path d="m219.961 157.963c4.408-3.144 10.536.154 10.536 5.568v33.559c0 4.995-4.053 9.02-9.02 9.02h-79.16c-6.509 0-12.327-3.125-15.96-7.95-.454-5.265 1.155-10.326 4.31-14.27 49.32-61.657 41.045-51.317 49.57-61.99 6.854-6.853 18.036-5.737 23.2.72.06 4.16-1.49 8.33-4.66 11.5-23.172 29.523-28.561 36.378-28.437 36.219-4.169 5.307-5.366 12.527-2.843 19.04h39.95l3.31-18.96c1.663-5.008 4.853-9.352 9.204-12.456z" fill="#ffe4cc"/><path d="m342.637 198.18c-3.596 4.773-9.423 7.93-15.95 7.93h-79.17c-4.967 0-9.02-4.04-9.02-9.02v-33.567c0-5.415 6.133-8.71 10.537-5.56 4.488 3.211 7.58 7.569 9.203 12.457l3.32 18.96h39.95c2.437-6.293 1.472-13.548-2.843-19.04-11.888-15.132-5.416-6.892-28.447-36.219-3.17-3.17-4.72-7.34-4.66-11.5 5.109-6.388 16.292-7.637 23.21-.72 37.969 47.535 4.912 6.162 49.57 61.99 3.093 3.866 4.763 8.91 4.3 14.289z" fill="#ffe4cc"/><path d="m259.457 36.18c-13.563 5.449-36.824 4.994-48.86-.89 14.126-11.394 35.434-10.855 48.86.89z" fill="#797a7a"/></svg>