<svg id="Layer_1" enable-background="new 0 0 496.014 496.014" height="512" viewBox="0 0 496.014 496.014" width="512" xmlns="http://www.w3.org/2000/svg"><path d="m264.007 84.294h-32c0-12.977-.091-13.313.27-15.22 2.336-12.578 17.919-17.479 27.05-8.38 5.948 5.949 4.68 12.482 4.68 23.6z" fill="#6d6d6d"/><path d="m300.517 178.634c-6.791 36.401-12.51 23.643-12.51 93.38h-80c0-69.695-5.923-58.073-12.51-93.38 12.547 6.886 27.167-4.975 23.03-18.62h58.96c-4.197 13.575 10.456 25.544 23.03 18.62z" fill="#b3cec9"/><g fill="#cae0dd"><path d="m208.347 176.014c-.454 0-.34.363-.34-1.82z"/><path d="m288.007 160.014c0 16.533.205 13.037-.57 17.25-.01.01-.02.03-.02.06-4.659 19.527-7.285 27.485-8.36 48.439-.849 16.557-14.472 29.571-31.05 29.571-16.69 0-30.207-13.126-31.05-29.571-1.075-20.954-3.701-28.912-8.36-48.439-.837-2.51-.59-6.807-.59-17.31z"/><path d="m288.007 174.194c0 2.183.113 1.82-.34 1.82z"/></g><path d="m366.817 22.334c-13.172 33.022-45.942 115.067-59.15 148.22-1.329 3.336-3.744 6.16-6.96 7.98-1.298 5.906-1.115 5.057-.19.1-13.239 7.289-28.158-6.27-22.57-19.94l44.99-112.73c3.01-7.55 3.34-13.26 2.04-19.17-1.811-8.315 4.105-16.026 12.28-16.7 3.265-8.234 12.653-12.261 20.91-8.89 8.062 3.272 11.978 12.785 8.65 21.13z" fill="#f9cfac"/><path d="m360.817 14.334c-13.173 33.021-45.942 115.067-59.15 148.22-1.329 3.336-3.744 6.16-6.96 7.98-1.298 5.906-1.115 5.057-.19.1-5.444 2.998-12.003 2.537-16.88-.91-.098.101-2.01-5.355.31-11.03l44.99-112.73c3.01-7.55 3.34-13.26 2.04-19.17-1.811-8.315 4.105-16.026 12.28-16.7 3.795-9.571 15.611-13.066 23.86-7.29 1.24 3.63 1.22 7.72-.3 11.53z" fill="#ffe4cc"/><path d="m195.497 178.634c.908 4.868 1.131 5.913-.19-.1-3.05-1.73-5.56-4.47-6.96-7.98-13.223-33.142-45.967-115.203-59.15-148.22-3.277-8.207.437-17.773 8.65-21.13 8.392-3.426 17.735.815 20.91 8.89 8.31.69 14.08 8.55 12.28 16.7-1.3 5.91-.97 11.62 2.04 19.17l44.99 112.73c5.523 13.513-9.189 27.284-22.57 19.94z" fill="#f9cfac"/><path d="m218.676 168.714c-4.937 4.296-12.16 5.224-18.18 1.92.908 4.868 1.131 5.913-.19-.1-3.05-1.73-5.56-4.47-6.96-7.98-13.223-33.142-45.979-115.198-59.15-148.22-1.38-3.46-1.52-7.16-.61-10.53 8.326-7.118 21.215-3.767 25.17 6.29 8.31.69 14.08 8.55 12.28 16.7-1.3 5.91-.97 11.62 2.04 19.17l44.99 112.73c1.218 2.978 1.528 6.561.61 10.02z" fill="#ffe4cc"/><path d="m312.007 496.014h-128c0-9.4 6.4-17.6 15.52-19.88l21.08-5.27c-14.01-103.774-22.281-138.932-12.6-198.85h80c9.999 61.883.776 99.772-12.6 198.85l21.08 5.27c9.12 2.28 15.52 10.48 15.52 19.88z" fill="#ffe4cc"/><path d="m280.656 432.014h-65.3c-9.092-67.38-16.603-102.73-7.35-160h80c9.48 58.674 1.177 96.812-7.35 160z" fill="#7adbae"/><path d="m280.007 109.104c0 16.51-5.355 26.721-10.06 37.4-7.918 17.973-35.966 17.965-43.88 0-2.552-5.792-11.828-24.046-9.88-40.46 1.647-14.38 14.998-26.03 31.82-26.03 17.506 0 32 12.87 32 29.09z" fill="#f9cfac"/><path d="m279.827 106.044c-.953 13.597-5.235 21.916-9.88 32.46-7.918 17.973-35.966 17.965-43.88 0-4.771-10.83-8.9-18.838-9.88-32.46 2.749-23.997 35.298-34.942 54.45-17.51 5.049 4.58 8.41 10.7 9.19 17.51z" fill="#ffe4cc"/><path d="m280.007 109.104c0 4.898-.522 9.884-1.62 14.82-9.707-26.499-51.058-26.483-60.76 0-2.8-12.626-2.695-23.494 5.04-32.58 18.363-21.906 57.34-9.932 57.34 17.76z" fill="#6d6d6d"/><path d="m273.347 91.344c-12.826 6.226-37.856 6.225-50.68 0 12.669-15.113 38.039-15.079 50.68 0z" fill="#797a7a"/><path d="m263.726 69.084c-8.982 3.904-22.422 3.915-31.45-.01 2.336-12.578 17.919-17.479 27.05-8.38 2.241 2.24 3.81 5.15 4.4 8.39z" fill="#797a7a"/><path d="m256.007 408.014v-88c0-4.42-3.58-8-8-8s-8 3.58-8 8v88c0 13.255-10.745 24-24 24h64c-13.255 0-24-10.745-24-24z" fill="#5fc68f"/><path d="m256.007 408.014c0 13.255 10.745 24 24 24 0 .1 1.091 0-24 0 0-24.834-.104-24 0-24z" fill="#5fc68f"/><path d="m240.007 408.014c0 13.255-10.745 24-24 24 0 .1-1.091 0 24 0 0-24.834.103-24 0-24z" fill="#5fc68f"/><path d="m256.007 472.014v-16c0-13.255 10.745-24 24-24-7.107 0-57.7 0-64 0 13.255 0 24 10.745 24 24v16c0 13.255-10.745 24-24 24h64c-13.255 0-24-10.745-24-24z" fill="#f9cfac"/></svg>