<svg id="Layer_1" enable-background="new 0 0 496.007 496.007" height="512" viewBox="0 0 496.007 496.007" width="512" xmlns="http://www.w3.org/2000/svg"><path d="m293.936 280.154c0 55.129-72.095 59.37-186.74 119.72-5.561-14.376-2.635-6.822-13.27-34.26 106.6-89.6 80.6-76.28 108.15-94.65 92.812 9.281 78.185 7.817 91.86 9.19z" fill="#5fc68f"/><path d="m284.376 279.194c-6.806 46.981-75.471 54.243-181.59 109.28l-8.86-22.86c106.6-89.6 80.6-76.28 108.15-94.65z" fill="#7adbae"/><path d="m403.116 473.044h-48.91c-11.96 0-20.731-11.23-17.83-22.83 4.642-18.56 1.847.404 13.57-102.37-86.95-7.886-78.583 1.535-109.5-8.32-4.24-1.35-8.05-2.83-10.81-4.26-22.78-11.79-36.74-45.93-27.56-64.3.155.016 91.743 9.19 91.87 9.19 64.8 15.91 29.38 4.92 79.7 22.39.05.01.08.03.13.04 14.95 5.2 23.732 20.69 20.54 36.19-8.315 40.378-4.383 21.232-21.79 105.69l22.99 5.75c10.378 2.586 14.345 10.635 14.54 10.83 3.12 5.31-.78 12-6.94 12z" fill="#f9cfac"/><path d="m410.056 461.044h-43.85c-11.96 0-20.731-11.23-17.83-22.83 4.642-18.56 1.847.404 13.57-102.37-86.95-7.886-78.583 1.535-109.5-8.32-4.24-1.35-8.05-2.83-10.81-4.26-18.12-9.38-30.66-32.9-30.4-51.38 82.055 8.206 82.605 8.27 82.71 8.27 64.8 15.91 29.38 4.92 79.7 22.39.05.01.08.03.13.04 14.95 5.2 23.732 20.69 20.54 36.19-3.487 16.931-9.455 45.841-21.79 105.69l22.99 5.75c10.378 2.586 14.345 10.635 14.54 10.83z" fill="#ffe4cc"/><path d="m394.316 338.774c-4.037 19.598-1.643 7.98-10.64 51.6h-38.58c1.639-14.337.589-5.132 4.85-42.53-41.48-3.839-57.934-3.546-83.57-3.4-10.09.07-28.31-4.82-36.74-9.18-23.045-11.93-36.639-46.144-27.56-64.3l91.86 9.19c64.81 15.91 29.39 4.92 79.71 22.39.05.01.08.03.13.04 15.005 5.219 23.717 20.763 20.54 36.19z" fill="#5fc68f"/><path d="m375.109 303.081c12.894 5.141 20.025 19.041 17.398 32.671-.725 3.76-1.39 7.181-1.39 7.181-4.31 20.897-22.718 36.07-44.269 36.07-.652 0-.844 3.457 3.099-31.16-.306-.028-5.011-11.872-16.367-12.757-31.615-2.463-45.862-2.134-67.203-2.013-10.09.07-28.31-4.82-36.74-9.18-16.07-8.32-27.75-27.76-30.01-44.94.44-2.88 1.24-5.57 2.45-7.99l91.86 9.19c64.81 15.91 29.39 4.92 79.71 22.39.117.024 1.006.356 1.462.538z" fill="#7adbae"/><path d="m183.706 142.374c6.413 34.222 4.479 24.216 4.89 26.09 8.856 40.391 13.48 32.749 13.48 102.5 89.746 8.978 91.767 9.19 91.87 9.19.132-65.476 3.903-71.753 13.47-111.69 0-.1.722-3.845 4.89-26.09-15.279 0-114.634 0-128.6 0z" fill="#b3cec9"/><path d="m74.413 463.646c.829 4.756-2.711 9.181-7.535 9.375-11.448.461-22.429-6.307-26.802-17.587-4.093-10.555-1.884-4.815-11.27-29.08-3.099-8.012-.246-17.129 6.93-21.92l58.19-38.82c3.482 8.99 8.581 22.153 13.27 34.26-4.299 2.738-35.976 22.914-39.5 25.16 3.441 19.784 6.738 38.732 6.717 38.612z" fill="#f9cfac"/><path d="m67.696 425.034 4.447 25.573c.888 5.105-3.242 9.746-8.409 9.36-10.268-.768-19.685-7.292-23.658-17.533-12.102-31.196-11.27-28.951-11.271-29.339 1.32-3.447 3.691-6.497 6.931-8.661l58.19-38.82 9.23 23.83-24.496 15.605c-6.823 4.347-10.964 11.88-10.964 19.985z" fill="#ffe4cc"/><path d="m284.746 83.923c0 18.975-6.181 30.745-11.55 42.94-9.081 20.625-41.294 20.637-50.38 0-6.053-13.746-11.551-24.503-11.551-42.941 0-29.552 39.567-44.67 62.722-23.62 6.648 6.044 10.759 14.394 10.759 23.621z" fill="#ffe4cc"/><path d="m284.746 83.923c0 18.847-6.005 30.345-11.55 42.94-9.083 20.631-41.298 20.63-50.38 0-2.98-6.769-13.722-27.893-11.31-46.75 2.063-16.551 17.503-29.59 36.5-29.59 20.735.001 36.74 15.352 36.74 33.4z" fill="#f9cfac"/><path d="m284.506 80.114c-1.214 15.376-5.886 24.431-11.31 36.75-9.083 20.631-41.297 20.63-50.38 0-5.335-12.117-10.067-21.148-11.31-36.75 3.401-27.282 40.469-39.804 62.481-19.81 5.72 5.199 9.559 12.11 10.519 19.81z" fill="#ffe4cc"/><path d="m284.746 83.923c0 4.55-.39 9.09-1.18 13.57-1.67-5.84-5.03-11.06-9.58-15.19-20.271-18.412-54.498-9.435-61.54 15.19-2.564-14.725-1.662-27.054 9.58-37.19 23.334-21.194 62.72-5.776 62.72 23.62z" fill="#6d6d6d"/><path d="m266.376 55.434h-36.74c0-15.078-.029-14.635.07-15.67 1.308-15.601 20.301-22.385 31.3-11.42 6.722 6.745 5.37 13.767 5.37 27.09z" fill="#6d6d6d"/><path d="m195.046 142.374c5.282 28.186 3.689 19.945 4.028 21.488 5.443 24.822 9.176 27.574 10.46 51.269 1.036 19.13 15.821 34.672 34.884 36.579 21.615 2.162 40.936-13.867 42.549-35.651 1.969-26.607 5.061-25.987 13.999-73.685-39.204 0-66.708 0-105.92 0z" fill="#cae0dd"/><path d="m496.006 160.964c-.12 10.14-8.7 18.15-18.84 18.15h-174.05c-12.301 0-21.017-11.862-17.67-23.36 2.148-7.756 9.314-13.38 17.67-13.38h130.17c9.33 0 15.56-2.08 21.31-5.99 7.92-5.38 18.76-2.57 23.04 5.99 10.274 0 18.483 8.362 18.37 18.59z" fill="#f9cfac"/><path d="m211.266 160.744c0 10.094-8.171 18.37-18.37 18.37h-174.05c-16.657 0-25.076-19.712-13.47-31.37 3.341-3.32 7.927-5.37 13-5.37 4.28-8.56 15.12-11.37 23.04-5.99 5.75 3.91 11.98 5.99 21.31 5.99h130.17c10.216 0 18.37 8.314 18.37 18.37z" fill="#f9cfac"/><path d="m495.306 155.714c-2.25 7.78-9.65 13.4-18.14 13.4h-174.05c-8.41 0-15.5-5.65-17.67-13.36 2.148-7.756 9.314-13.38 17.67-13.38h130.17c9.33 0 15.56-2.08 21.31-5.99 7.92-5.38 18.76-2.57 23.04 5.99 8.273 0 15.456 5.487 17.67 13.34z" fill="#ffe4cc"/><path d="m210.566 155.754c-2.16 7.684-9.233 13.36-17.67 13.36h-174.05c-8.49 0-15.89-5.62-18.14-13.4 2.206-7.824 9.368-13.34 17.67-13.34 4.28-8.56 15.12-11.37 23.04-5.99 5.75 3.91 11.98 5.99 21.31 5.99h130.17c8.41 0 15.51 5.66 17.67 13.38z" fill="#ffe4cc"/><g fill="#797a7a"><path d="m275.726 62.014c-12.33 7.982-43.115 7.979-55.44 0 14.247-15.284 41.175-15.303 55.44 0z"/><path d="m266.306 39.764c-9.568 5.654-27.033 5.653-36.6 0 1.308-15.601 20.301-22.385 31.3-11.42 2.97 2.98 4.93 6.98 5.3 11.42z"/></g></svg>