<svg id="Layer_1" enable-background="new 0 0 496.036 496.036" height="512" viewBox="0 0 496.036 496.036" width="512" xmlns="http://www.w3.org/2000/svg"><path d="m487.915 311.126c-27.9 106.41-124.73 184.91-239.9 184.91-130.58 0-237.59-100.92-247.29-229.02 104.882 179.625 353.985 199.864 487.19 44.11z" fill="#5fc68f"/><path d="m471.405 328.906c-40.12 82.94-125.07 140.15-223.39 140.15-118.14 0-216.98-82.6-241.93-193.21 102.543 162.628 329.113 188.337 465.32 53.06z" fill="#7adbae"/><path d="m487.915 311.126c-134.364 156.86-383.172 134.18-487.19-44.11-3.291-43.83 4.828-87.397 23.9-126.82 90.464 177.3 324.67 218.675 470.33 84.77 2.63 28.083.455 57.627-7.04 86.16z" fill="#5fc68f"/><path d="m495.565 233.016c-.99 16.5-3.59 32.56-7.65 48.03-134.364 156.86-383.172 134.18-487.19-44.11-.1-1.29-.18-2.59-.26-3.89 1.97-33.12 10.44-64.49 24.16-92.85 90.464 177.3 324.67 218.675 470.33 84.77.25 2.67.45 5.36.61 8.05z" fill="#7adbae"/><path d="m494.955 224.966c-145.897 134.124-380.033 92.203-470.33-84.77 15.086-31.126 36.362-58.641 62.65-81.01 76.772 138.315 259.447 170.585 378.9 70.82 16.111 29.714 25.749 62.058 28.78 94.96z" fill="#5fc68f"/><path d="m489.675 192.126c-140.61 123.295-358.408 88.873-454.76-71.01 13.97-23.43 31.7-44.35 52.36-61.93 76.772 138.315 259.447 170.585 378.9 70.82 10.47 19.31 18.45 40.16 23.5 62.12z" fill="#7adbae"/><path d="m466.175 130.006c-119.495 99.8-302.159 67.44-378.9-70.82 23.343-19.912 50.173-35.306 79.07-45.38 59.814 81.967 169.898 105.103 256.51 58.36 17.925 17.804 32.316 37.516 43.32 57.84z" fill="#5fc68f"/><path d="m454.535 110.686c-112.603 83.32-274.671 58.283-355.53-60.91 20.26-15.25 42.93-27.46 67.34-35.97 59.814 81.967 169.898 105.103 256.51 58.36 11.8 11.72 22.43 24.62 31.68 38.52z" fill="#7adbae"/><path d="m422.855 72.166c-86.77 46.828-196.779 23.493-256.51-58.36 86.95-30.366 187.344-10.447 256.51 58.36z" fill="#5fc68f"/><path d="m404.695 55.806c-73.922 30.746-162.895 14.938-221.78-47.129 76.062-20.648 158.83-4.251 221.78 47.129z" fill="#7adbae"/></svg>