<svg id="Layer_1" enable-background="new 0 0 496.026 496.026" height="512" viewBox="0 0 496.026 496.026" width="512" xmlns="http://www.w3.org/2000/svg"><circle cx="248.025" cy="248.013" fill="#af469a" r="248"/><circle cx="248.025" cy="248.013" fill="#f9cafc" r="248"/><circle cx="248.025" cy="248.013" fill="#279ed6" r="200"/><circle cx="248.025" cy="248.013" fill="#f6a1ff" r="200"/><circle cx="248.025" cy="248.013" fill="#c172b2" r="152"/><circle cx="248.025" cy="248.013" fill="#9b5391" r="104"/><path d="m296.785 138.573c0 25.148-8.213 40.828-15.33 56.99-12.046 27.356-54.799 27.389-66.86 0-4.961-11.267-17.631-36.032-15.11-61.25 2.331-22.15 22.799-40.07 48.54-40.07 26.475 0 48.76 19.425 48.76 44.33z" fill="#f9cfac"/><path d="m296.565 134.313c-1.341 21.116-7.898 33.871-15.11 50.25-12.046 27.356-54.799 27.389-66.86 0-7.347-16.683-13.741-29.128-15.11-50.25 3.864-36.722 53.594-53.847 83.02-27.09 7.78 7.08 12.95 16.54 14.06 27.09z" fill="#ffe4cc"/><g fill="#6d6d6d"><path d="m296.785 138.573c0 6.882-.671 13.525-1.89 19.75-5.702-18.147-24.19-32.08-46.87-32.08-22.618 0-41.215 13.875-46.968 32.08-1.282-6.616-2.098-13.237-1.901-19.698.785-25.737 21.677-44.382 48.868-44.382 26.747 0 48.761 19.666 48.761 44.33z"/><path d="m296.785 138.573c0 12.344 1.328-.983-12.7-13.76-19.904-18.09-52.205-18.101-72.12 0-13.962 12.693-12.7 26.093-12.7 13.76 0-24.258 21.5-44.685 48.691-44.685 26.746 0 48.829 20.021 48.829 44.685z"/><path d="m272.405 82.053v18.72h-48.76c0-19.587-.182-20.521.54-23.81 2.349-11.122 12.248-19.28 23.84-19.28 13.47 0 24.38 10.883 24.38 24.37z"/></g><path d="m321.375 222.453c-3.86-3.87-8.84-5.96-13.91-6.27-.921-.062 6.855-.04-117.55-.04-5.61 0-11.101 2.16-15.24 6.31-9.45 11.815-8.572 10.712-9.07 11.35 12.886 68.991 21.468 44.997 21.468 152.988h121.904c0-66.814 2.514-78.831 8.978-102.638 11.77-41.877 8.113-32.259 8.94-33.51 1.745-7.391 3.55-16.593 3.55-16.86-.497-.606.633.802-9.07-11.33z" fill="#b3cec9"/><path d="m309.434 221.426c-3.516-3.526-8.14-5.284-12.755-5.284-10.258 0-85.195 0-95.559 0-12.31 0-14.462 5.17-22.094 14.783 8.767 46.778 17.001 45.343 17.734 101.79.365 28.065 23.199 50.634 51.266 50.634 27.989 0 50.9-22.492 51.266-50.634.435-33.481 3.323-45.502 7.336-59.838 8.313-29.653 6.866-26.19 7.422-27.858 1.212-5.079 2.977-13.771 2.977-14.104-.422-.512.599.76-7.593-9.489z" fill="#cae0dd"/><path d="m204.035 258.213c-28.628 28.629-19.561 19.56-53.53 53.53-9.04 9.04-21.27 14.16-34.04 14.28-15.73 0-19.073.38-91.48.38-16.411 0-28.769-15.518-23.92-31.43 3.085-10.283 12.559-17.32 23.34-17.32 5.65-11.3 20-15.18 30.43-8.05 14.641 10.021 25.579 8.073 61.07 7.79l54.09-54.1c9.588-9.568 25.073-9.536 34.62.14 9.473 9.64 8.946 25.254-.58 34.78z" fill="#f9cfac"/><path d="m418.678 451.684c0 24.473-19.831 44.329-44.329 44.329h-252.648c-35.358 0-56.156-39.292-37.171-68.482 4.578-7.052 11.153-12.806 19.16-16.359l83.383-24.382h121.904l83.383 24.382c16.025 7.121 26.318 23.026 26.318 40.512z" fill="#5fc68f"/><path d="m418.36 446.408c-2.615 21.838-21.194 39-44.011 39-11.164 0-20.273-9.045-20.273-20.273v-18.47l14.14-7.07-87.488 12.498c-7.483 1.069-15.115-.169-21.876-3.55-12.244-6.122-24.134-5.83-34.517-.638-7.544 3.772-16.152 4.868-24.407 3.099l-86.234-18.479 28.28 14.14v18.47c0 11.197-9.077 20.273-20.273 20.273-22.769 0-41.388-17.113-44.011-39 1.837-15.419 11.68-28.881 26-35.236l83.383-24.382h121.904l83.383 24.382c14.379 6.39 24.162 19.858 26 35.236z" fill="#7adbae"/><path d="m211.455 465.541c-26.959 13.479-29.586 13.78-33.468 19.867-1.988 3.111-3.102 6.77-3.102 10.605h-24.383v-45.708c54.804 13.698 42.796 10.697 60.953 15.236z" fill="#f9cfac"/><path d="m345.547 450.305v45.708h-170.662c0-7.549 4.314-14.344 10.906-17.64 30.829-15.415 22.446-10.689 37.948-21.025 12.619-8.403 30.666-3.192 35.713 11.975l.76 2.306z" fill="#f9cfac"/><path d="m197.315 462.006c-12.23 6.115-14.338 6.74-17.561 10.43-7.604 8.709-17.172 12.972-29.252 12.972v-35.103z" fill="#ffe4cc"/><path d="m345.547 450.305v35.103h-158.102c-3.824 0-5.274-5.225-1.655-7.035 30.829-15.415 22.446-10.689 37.948-21.025 12.619-8.403 30.666-3.192 35.713 11.975l.76 2.306z" fill="#ffe4cc"/><path d="m496.025 302.233c-.11 13.48-11.51 24.17-25 24.17-45.422 0-25.17.078-91.47-.39.193.189-19.206.534-34.01-14.27-27.773-27.773-31.113-31.112-53.53-53.53-15.047-15.048-5.935-40.822 15.45-42.03 6.478-.429 13.46 1.99 18.59 7.11l54.09 54.1c34.836.278 46.358 2.28 61.07-7.79 10.43-7.13 24.78-3.25 30.43 8.05 13.519 0 24.488 10.968 24.38 24.58z" fill="#f9cfac"/><path d="m210.455 233.353c-2.43 8.36-.927 5.367-59.95 64.39-9.402 9.402-22.069 14.249-34.15 14.29-67.302.226-47.341.37-91.37.37-11.13 0-20.84-7.29-23.92-17.43 3.085-10.283 12.559-17.32 23.34-17.32 5.65-11.3 20-15.18 30.43-8.05 14.641 10.021 25.579 8.073 61.07 7.79l54.09-54.1c13.235-13.207 35.4-7.106 40.46 10.06z" fill="#ffe4cc"/><path d="m494.985 294.963c-3.09 10.14-12.81 17.44-23.96 17.44-45.422 0-25.17.078-91.47-.39.193.189-19.206.534-34.01-14.27-56.791-56.791-57.447-55.781-59.95-64.39 5.097-17.293 27.281-23.211 40.46-10.06l54.09 54.1c34.836.278 46.358 2.28 61.07-7.79 10.43-7.13 24.78-3.25 30.43 8.05 10.762 0 20.248 7.028 23.34 17.31z" fill="#ffe4cc"/><path d="m271.865 76.963c-1.36 8.47-11.52 15.05-23.84 15.05s-22.48-6.58-23.84-15.05c5.404-25.588 42.384-25.086 47.68 0z" fill="#6d6d6d"/></svg>