<svg id="Layer_1" enable-background="new 0 0 496.002 496.002" height="512" viewBox="0 0 496.002 496.002" width="512" xmlns="http://www.w3.org/2000/svg"><path d="m144 144.001h352v304c0 26.51-21.49 48-48 48h-376z" fill="#6cc2dd"/><path d="m496 96.001c0-26.516-21.49-48-48-48v96z" fill="#83d3f2"/><path d="m448 496.001c26.51 0 48-21.49 48-48 0-25.46 0-338.649 0-352 0-26.506-21.479-48-48-48v352c13.26 0 25.26 5.37 33.94 14.06 29.932 29.897 9.023 81.94-33.94 81.94z" fill="#83d3f2"/><path d="m0 424.001c0 39.76 32.24 72 72 72z" fill="#6cc2dd"/><path d="m144 72.001v352c0-39.76-32.24-72-72-72s-72 32.24-72 72v-352c0-39.759 32.239-72 72-72 39.76 0 72 32.24 72 72z" fill="#83d3f2"/><circle cx="72" cy="424.001" fill="#6cc2dd" r="72"/><circle cx="72" cy="424.001" fill="#83d3f2" r="59"/><circle cx="72" cy="424.001" fill="#6cc2dd" r="40"/><circle cx="72" cy="424.001" fill="#83d3f2" r="20"/><g fill="#6cc2dd"><path d="m48 320.001c-4.418 0-8-3.582-8-8v-256c0-4.418 3.582-8 8-8s8 3.582 8 8v256c0 4.418-3.582 8-8 8z"/><path d="m96 320.001c-4.418 0-8-3.582-8-8v-256c0-4.418 3.582-8 8-8s8 3.582 8 8v256c0 4.418-3.582 8-8 8z"/></g></svg>