<svg id="Layer_1" enable-background="new 0 0 496 496" height="512" viewBox="0 0 496 496" width="512" xmlns="http://www.w3.org/2000/svg"><path d="m406.397 392c-52.593-42.512-264.162-42.614-316.88 0-38.649-31.219 42.827-64 158.44-64 115.157 0 197.177 32.71 158.44 64z" fill="#fecb82"/><path d="m415.957 408c0 26.51-75.22 48-168 48-115.156 0-196.448-31.829-158.44-64 22.94-19.417 85.212-32.25 158.362-32.25 89.777 0 168.078 20.583 168.078 48.25z" fill="#edac5f"/><path d="m247.957 384c-4.418 0-8-3.582-8-8v-24c0-4.418 3.582-8 8-8s8 3.582 8 8v24c0 4.418-3.582 8-8 8z" fill="#b3cec9"/><path d="m249.538 88.001c-6.21 0-10.123-6.88-6.778-12.237 11.687-18.72 1.141-19.699-7.491-33.527-10.259-16.434 6.216-37.057 8.129-39.354 2.827-3.396 7.871-3.857 11.267-1.03 3.391 2.822 3.856 7.856 1.042 11.253-3.522 4.275-10.141 15.412-6.865 20.659 6.467 10.357 25.707 21.297 7.491 50.473-1.518 2.429-4.127 3.763-6.795 3.763z" fill="#cae0dd"/><path d="m339.117 496h-182.32c-18.84 0-37.28-5.37-53.17-15.48-35.129-22.346-45.87-68.966-23.67-104.52 0 26.51 75.22 48 168 48s168-21.49 168-48c31.942 51.155-4.391 120-76.84 120z" fill="#fecb82"/><path d="m263.957 136v200c0 8.84-7.16 16-16 16s-16-7.16-16-16v-200z" fill="#cae0dd"/><path d="m263.957 112v24h-32v-40z" fill="#f45d5d"/></svg>