<svg id="Layer_1" enable-background="new 0 0 496 496" height="512" viewBox="0 0 496 496" width="512" xmlns="http://www.w3.org/2000/svg"><path d="m496 360c0 75.11-111.03 136-248 136s-248-60.89-248-136c0-77.902 116.163-136 248-136 133.284 0 248 59.019 248 136z" fill="#6d6d6d"/><path d="m496 360c0 75.11-111.03 136-248 136s-248-60.89-248-136c0-77.902 116.163-136 248-136 133.284 0 248 59.019 248 136z" fill="#535655"/><path d="m494.7 346c-12.77 68.53-118.35 122-246.7 122s-233.93-53.47-246.7-122c12.77-68.53 118.35-122 246.7-122s233.93 53.47 246.7 122z" fill="#6d6d6d"/><path d="m440 264c0 57.44-85.96 104-192 104s-192-46.56-192-104c0-61.958 94.496-104 192-104 100.696 0 192 43.863 192 104z" fill="#535655"/><path d="m438.28 250c-12.62 50.82-93 90-190.28 90s-177.66-39.18-190.28-90c12.62-50.82 93-90 190.28-90s177.66 39.18 190.28 90z" fill="#6d6d6d"/><path d="m384 160c0 44.18-60.89 80-136 80s-136-35.82-136-80c0-47.756 67.099-80 136-80 70.171 0 136 33.118 136 80z" fill="#535655"/><path d="m381.93 146c-11.26 37.51-66.94 66-133.93 66s-122.67-28.49-133.93-66c11.26-37.51 66.94-66 133.93-66s122.67 28.49 133.93 66z" fill="#6d6d6d"/><path d="m336 64c0 35.35-39.4 64-88 64s-88-28.65-88-64c0-37.737 42.748-64 88-64 43.876 0 88 25.486 88 64z" fill="#535655"/><path d="m333.89 50c-8.78 28.61-43.9 50-85.89 50s-77.11-21.39-85.89-50c8.78-28.61 43.9-50 85.89-50s77.11 21.39 85.89 50z" fill="#6d6d6d"/></svg>