<svg id="Layer_1" enable-background="new 0 0 496.308 496.308" height="512" viewBox="0 0 496.308 496.308" width="512" xmlns="http://www.w3.org/2000/svg"><path d="m136.154 200.308h224v40h-224z" fill="#b3cec9"/><path d="m360.154 187.308c0 22.03-17.848 40-40 40h-144c-22.091 0-40-17.909-40-40 0-.1-4.784 0 224 0z" fill="#cae0dd"/><path d="m384.154 148.578c0 27.2-24 33.6-24 51.73h-224c0-18.13-24-24.53-24-51.73 0-13.33 3.48-27.54 11.06-38.89 9.15-13.7 14.3-29.68 15.67-46.09l4.04-48.49c.69-8.35 7.7-14.749 16.08-14.68 2.255.019 4.958.045 9.02.08 8.75.076 15.87 7.18 15.9 15.93v23.85c.1 35.37 28.88 63.98 64.25 63.94 35.36-.05 64.013-28.7 64.06-64.06.034-25.985-.112-25.468.4-27.57 1.049-6.637 8.127-12.853 15.83-12.59l9.15.12c8.25.1 15.06 6.45 15.75 14.67l4.06 48.8c1.37 16.41 6.52 32.39 15.67 46.09 7.58 11.35 11.06 25.56 11.06 38.89z" fill="#7adbae"/><path d="m384.154 148.578c0 27.2-24 33.6-24 51.73h-224c0-18.13-24-24.53-24-51.73 0-13.33 3.48-27.54 11.06-38.89 9.15-13.7 14.3-29.68 15.67-46.09l4.04-48.49c.69-8.35 7.7-14.749 16.08-14.68 2.255.019 4.958.045 9.02.08 8.75.076 15.87 7.18 15.9 15.93v23.85c.1 35.37 28.88 63.98 64.25 63.94 35.36-.05 64.013-28.7 64.06-64.06.034-25.675-.109-25.484.4-27.57.99-6.264 7.826-12.57 14.94-12.57.574-.037.13-.025 10.04.1 8.25.104 15.06 6.45 15.75 14.67l4.06 48.8c1.37 16.41 6.52 32.39 15.67 46.09 7.58 11.35 11.06 25.56 11.06 38.89z" fill="#5fc68f"/><path d="m370.154 133.218c0 22.819-22.4 46.41-51.77 46.41h-140.46c-22.14 0-42.36-13.59-49.79-34.46-4.778-13.4-.548-33.834 7.69-46.44 15.291-23.424 14.442-43.736 17.93-85.23.565-6.721 5.66-12.03 12.12-13.01.169 0-.598-.004 2.15.02 8.75.076 15.87 7.18 15.9 15.93v23.85c.1 35.37 28.88 63.98 64.25 63.94 35.36-.05 64.013-28.7 64.06-64.06.035-26.446-.033-24.8.18-26.32.955-8.01 8.548-13.828 14.9-13.8 9.285.042 14.647 6.254 15.22 13.17 3.468 41.821 2.687 62.127 17.95 85.51 6.62 10.13 9.67 22.69 9.67 34.49z" fill="#7adbae"/><path d="m136.154 272.888h224v39.999h-224z" fill="#b3cec9"/><path d="m357.004 272.888c-6.111 14.39-20.329 24.42-36.85 24.42h-144c-16.56 0-30.77-10.07-36.85-24.42z" fill="#cae0dd"/><path d="m368.106 384.886c-.417-17.329-8-48-8-72-47.077 0-175.544.001-223.952.001 0 24-7.583 54.67-8 71.999-.769 32 8 71.422 8 111.422h88l16.105-96c1.592-8.759 14.149-8.759 15.742 0l16.105 96h88c0-40 8.769-79.422 8-111.422z" fill="#7adbae"/><path d="m368.106 384.886c-.417-17.329-8-48-8-72-47.077 0-175.544.001-223.952.001 0 24-7.583 54.67-8 71.999-.769 32 8 71.422 8 111.422h88l16.105-96c1.592-8.759 14.149-8.759 15.742 0l16.105 96h88c0-40 8.769-79.422 8-111.422z" fill="#5fc68f"/><path d="m357.089 378.274c-.378-15.738-7.265-43.592-7.265-65.388-23.956 0-178.328 0-203.387 0 0 21.796-6.887 49.651-7.265 65.388-.161 6.695.138 13.749.693 21.084 3.406 44.984 40.942 80.106 86.491 80.106l14.626-87.184c1.446-7.954 12.85-7.954 14.296 0 .018.1 14.726 87.184 14.626 87.184 45.331 0 83.069-34.905 86.491-80.106.556-7.335.855-14.388.694-21.084z" fill="#7adbae"/></svg>