<svg id="Layer_1" enable-background="new 0 0 495.997 495.997" height="512" viewBox="0 0 495.997 495.997" width="512" xmlns="http://www.w3.org/2000/svg"><path d="m175.982 199.997h144.033v32h-144.033z" fill="#b3cec9"/><path d="m175.998 135.997h144v32h-144z" fill="#b3cec9"/><path d="m316.788 135.997c-5.2 10.65-16.14 18-28.79 18h-80c-12.65 0-23.59-7.35-28.79-18z" fill="#cae0dd"/><path d="m316.788 199.997c-5.2 10.65-16.14 18-28.79 18h-80c-12.65 0-23.59-7.35-28.79-18z" fill="#cae0dd"/><path d="m335.998 95.997c0 24-16 27.51-16 40h-144c0-12.49-16-16-16-40s11.81-40.91 12.75-52.21l2.79-33.4c.48-5.74 5.3-10.148 11.07-10.1 6.635.055 6.451.043 6.64.07 5.83.27 10.495 5.06 10.525 10.95v16.42c.07 24.36 19.885 44.06 44.245 44.03 24.35-.03 44.08-19.76 44.11-44.11v-16.65c.01-5.63 4.25-10.26 9.69-10.91.893-.13.756-.098 7.78-.01 5.68.071 10.37 4.44 10.85 10.1l2.8 33.61c.94 11.3 12.75 36.21 12.75 52.21z" fill="#5fc68f"/><path d="m324.348 83.287c0 21.098-17.12 34.71-35.43 34.71h-81.84c-12.68 0-24.62-6.5-31.04-17.43-12.744-21.724 5.785-51.864 6.67-62.58l2.42-28.97c.37-4.48 3.8-8.03 8.12-8.66 5.83.27 10.495 5.06 10.525 10.95v16.42c.07 24.36 19.885 44.06 44.245 44.03 24.35-.03 44.08-19.76 44.11-44.11v-16.65c.01-5.63 4.25-10.26 9.69-10.91 4.76.23 8.64 3.96 9.04 8.74l2.43 29.16c.81 9.81 11.06 31.42 11.06 45.3z" fill="#7adbae"/><path d="m327.998 295.997c0-24-8-47.474-8-64-86.695-.72-53.373-.753-144.016 0 0 16.526-7.984 40-7.984 64 0 48 16 80 24 200h32l18.564-212.353c1.097-6.031 9.743-6.031 10.84 0l18.596 212.353h32c8-120 24-152 24-200z" fill="#5fc68f"/><path d="m318.927 288.677c0-21.278-7.093-42.09-7.093-56.742-76.852-.638-47.304-.668-127.671 0 0 14.652-7.093 35.464-7.093 56.742 0 38.566 11.65 65.482 19.113 149.371 1.4 15.737 14.578 27.949 30.536 27.949l16.458-188.272c.972-5.347 8.638-5.347 9.611 0 16.854 192.453 16.588 188.272 16.488 188.272 15.879 0 29.129-12.133 30.536-27.949 7.465-83.889 19.115-110.805 19.115-149.371z" fill="#7adbae"/></svg>