<svg id="Layer_1" enable-background="new 0 0 496 496" height="512" viewBox="0 0 496 496" width="512" xmlns="http://www.w3.org/2000/svg"><path d="m496 416-72 80c-118.26-86.724-120-87.905-120-88.01-30.858-.484-56-25.64-56-56.92 0 31.336-25.188 56.437-56 56.92 0 .1 1.63-1.185-120 88.01l-72-80 134.14-72.66c0-154.509 44.035-257.374 70.57-328.64 5.693-15.29 25.216-19.694 36.75-8.16 4.04 4.04 6.54 9.61 6.54 15.78-.642 4.381-18.322 124.986-18.98 129.49 11.51 4.975 18.98 16.309 18.98 28.86 0-12.461 7.382-23.852 18.98-28.86-.658-4.506-18.339-125.12-18.98-129.49 0-12.25 9.931-22.32 22.32-22.32 9.38 0 17.693 5.898 20.97 14.7 32.64 87.665 70.57 169.713 70.57 303.72v24.92z" fill="#ffe4cc"/><g fill="#f9cfac"><path d="m256 192.74v187.45c-5.08-8.52-8-18.48-8-29.12 0 10.64-2.92 20.6-8 29.12v-187.45c0-18.15-14.77-32.93-32.93-32.93-4.41 0-8 3.59-8 8v126.33c0 4.42-3.58 8-8 8s-8-3.58-8-8v-126.33c0-13.23 10.77-24 24-24 27.148 0 48.93 22.117 48.93 48.93z"/><path d="m312.93 167.81v126.33c0 4.42-3.58 8-8 8s-8-3.58-8-8v-126.33c0-4.41-3.59-8-8-8-18.16 0-32.93 14.78-32.93 32.93v187.45c-5.08-8.52-8-18.48-8-29.12 0 10.64-2.92 20.6-8 29.12v-187.45c0-26.801 21.763-48.93 48.93-48.93 13.23 0 24 10.77 24 24z"/></g></svg>