<svg id="Layer_1" enable-background="new 0 0 496 496" height="512" viewBox="0 0 496 496" width="512" xmlns="http://www.w3.org/2000/svg"><g fill="#6cc2dd"><path d="m287.92 448c-.01.17-.02.34-.03.51z"/><path d="m208.11 448.51c-.01-.17-.02-.34-.03-.51z"/><path d="m208.11 47.49c-.01.17-.02.34-.03.51z"/><path d="m287.92 48c-.01-.17-.02-.34-.03-.51z"/><path d="m448.51 287.89c25.933 12.786 11.792 48.043 28.61 55.02-16.787-6.958-31.782 27.922-59.12 18.68 19.004 21.752-7.497 48.913 5.36 61.77-12.859-12.859-40 13.657-61.77-5.36 9.259 27.333-25.651 42.318-18.68 59.12-6.952-16.772-42.265-2.712-55.02-28.61-1.912 28.829-39.89 29.301-39.89 47.49 0-18.185-37.973-18.655-39.89-47.49-12.786 25.933-48.042 11.792-55.02 28.61 6.959-16.79-27.923-31.78-18.68-59.12-21.753 19.006-48.912-7.497-61.77 5.36 12.859-12.859-13.657-40 5.36-61.77-27.334 9.26-42.318-25.651-59.12-18.68 16.771-6.952 2.713-42.265 28.61-55.02-28.817-1.912-29.31-39.89-47.49-39.89 18.184 0 18.656-37.973 47.49-39.89-25.933-12.786-11.792-48.043-28.61-55.02 16.79 6.96 31.78-27.923 59.12-18.68-19.005-21.752 7.497-48.913-5.36-61.77 12.859 12.859 40-13.657 61.77 5.36-9.259-27.333 25.651-42.318 18.68-59.12 6.954 16.777 42.265 2.712 55.02 28.61 1.913-28.829 39.89-29.302 39.89-47.49 0 18.185 37.973 18.655 39.89 47.49 12.786-25.932 48.042-11.792 55.02-28.61-6.959 16.79 27.923 31.78 18.68 59.12 21.753-19.006 48.912 7.497 61.77-5.36-12.859 12.859 13.657 40-5.36 61.77 27.333-9.26 42.318 25.651 59.12 18.68-16.771 6.952-2.712 42.265-28.61 55.02 28.828 1.912 29.302 39.89 47.49 39.89-18.17 0-18.665 37.974-47.49 39.89z"/><path d="m448.51 208.11c-.17-.01-.34-.02-.51-.03z"/><path d="m448.51 287.89c-.17.01-.34.02-.51.03z"/><path d="m48 287.92c-.17-.01-.34-.02-.51-.03z"/><path d="m48 208.08c-.17.01-.34.02-.51.03z"/><path d="m418 361.59c-.11-.13-.23-.27-.35-.4z"/><path d="m361.59 418c-.13-.11-.27-.23-.4-.35z"/><path d="m78.35 134.81c-.12-.13-.24-.27-.35-.4z"/><path d="m134.81 78.35c-.13-.12-.27-.24-.4-.35z"/><path d="m361.59 78c-.13.11-.27.23-.4.35z"/><path d="m418 134.41c-.11.13-.23.27-.35.4z"/><path d="m134.81 417.65c-.13.12-.27.24-.4.35z"/><path d="m78.35 361.19c-.12.13-.24.27-.35.4z"/><path d="m361.59 418c-.05-.16-.11-.33-.17-.5z"/><path d="m287.89 448.51c-.08-.15-.16-.3-.23-.46z"/><path d="m134.58 78.5c-.06-.17-.12-.34-.17-.5z"/><path d="m208.34 47.95c-.07-.16-.15-.31-.23-.46z"/><path d="m418 134.41c-.16.05-.33.11-.5.17z"/><path d="m448.51 208.11c-.15.08-.3.16-.46.23z"/><path d="m78.5 361.42c-.17.06-.34.12-.5.17z"/><path d="m47.95 287.66c-.16.07-.31.15-.46.23z"/><path d="m448.51 287.89c-.15-.08-.3-.16-.46-.23z"/><path d="m418 361.59c-.16-.05-.33-.11-.5-.17z"/><path d="m47.95 208.34c-.16-.07-.31-.15-.46-.23z"/><path d="m78.5 134.58c-.17-.06-.34-.12-.5-.17z"/><path d="m287.89 47.49c-.08.15-.16.3-.23.46z"/><path d="m361.59 78c-.05.16-.11.33-.17.5z"/><path d="m208.34 448.05c-.07.16-.15.31-.23.46z"/><path d="m134.58 417.5c-.06.17-.12.34-.17.5z"/></g><path d="m283.896 427.839c-.009.153-.018.306-.027.459z" fill="#83d3f2"/><path d="m212.131 428.297c-.009-.153-.018-.306-.027-.459z" fill="#83d3f2"/><path d="m212.131 67.703c-.009.153-.018.306-.027.459z" fill="#83d3f2"/><path d="m283.896 68.161c-.009-.153-.018-.306-.027-.459z" fill="#83d3f2"/><path d="m428.297 283.869c23.318 11.497 10.603 43.2 25.726 49.474-15.094-6.257-28.578 25.108-53.16 16.797 17.088 19.559-6.741 43.983 4.82 55.543-11.563-11.563-35.967 12.28-55.543-4.82 8.326 24.577-23.065 38.052-16.797 53.16-6.251-15.081-38.005-2.439-49.474-25.726-1.72 25.923-35.869 26.348-35.869 42.703 0-16.351-34.145-16.774-35.869-42.703-11.497 23.318-43.199 10.603-49.474 25.726 6.258-15.097-25.108-28.576-16.797-53.16-19.56 17.09-43.982-6.742-55.543 4.82 11.563-11.563-12.281-35.968 4.82-55.543-24.578 8.326-38.052-23.065-53.16-16.797 15.081-6.251 2.439-38.005 25.726-49.474-25.912-1.719-26.355-35.869-42.703-35.869 16.338 0 16.784-34.146 42.703-35.869-23.318-11.497-10.603-43.2-25.726-49.474 15.098 6.258 28.577-25.108 53.16-16.797-17.089-19.559 6.741-43.983-4.82-55.543 11.563 11.563 35.968-12.281 55.543 4.82-8.326-24.578 23.065-38.052 16.797-53.16 6.253 15.085 38.005 2.438 49.474 25.726 1.72-25.923 35.869-26.348 35.869-42.703 0 16.351 34.145 16.774 35.869 42.703 11.497-23.318 43.199-10.603 49.474-25.726-6.258 15.097 25.108 28.576 16.797 53.16 19.56-17.09 43.982 6.742 55.543-4.82-11.563 11.563 12.28 35.967-4.82 55.543 24.577-8.326 38.052 23.065 53.16 16.797-15.081 6.251-2.439 38.004-25.726 49.474 25.922 1.72 26.348 35.869 42.703 35.869-16.338 0-16.783 34.146-42.703 35.869z" fill="#83d3f2"/><path d="m428.297 212.131c-.153-.009-.306-.018-.459-.027z" fill="#83d3f2"/><path d="m428.297 283.869c-.153.009-.306.018-.459.027z" fill="#83d3f2"/><path d="m68.161 283.896c-.153-.009-.306-.018-.459-.027z" fill="#83d3f2"/><path d="m68.161 212.104c-.153.009-.306.018-.459.027z" fill="#83d3f2"/><path d="m400.863 350.139c-.099-.117-.207-.243-.315-.36z" fill="#83d3f2"/><path d="m350.139 400.863c-.117-.099-.243-.207-.36-.315z" fill="#83d3f2"/><path d="m95.452 146.22c-.108-.117-.216-.243-.315-.36z" fill="#83d3f2"/><path d="m146.22 95.452c-.117-.108-.243-.216-.36-.315z" fill="#83d3f2"/><path d="m350.139 95.137c-.117.099-.243.207-.36.315z" fill="#83d3f2"/><path d="m400.863 145.861c-.099.117-.207.243-.315.36z" fill="#83d3f2"/><path d="m146.22 400.548c-.117.108-.243.216-.36.315z" fill="#83d3f2"/><path d="m95.452 349.78c-.108.117-.216.243-.315.36z" fill="#83d3f2"/><path d="m350.139 400.863c-.045-.144-.099-.297-.153-.45z" fill="#83d3f2"/><path d="m283.869 428.297c-.072-.135-.144-.27-.207-.414z" fill="#83d3f2"/><path d="m146.013 95.587c-.054-.153-.108-.306-.153-.45z" fill="#83d3f2"/><path d="m212.338 68.116c-.063-.144-.135-.279-.207-.414z" fill="#83d3f2"/><path d="m400.863 145.861c-.144.045-.297.099-.45.153z" fill="#83d3f2"/><path d="m428.297 212.131c-.135.072-.27.144-.414.207z" fill="#83d3f2"/><path d="m95.587 349.987c-.153.054-.306.108-.45.153z" fill="#83d3f2"/><path d="m68.116 283.662c-.144.063-.279.135-.414.207z" fill="#83d3f2"/><path d="m428.297 283.869c-.135-.072-.27-.144-.414-.207z" fill="#83d3f2"/><path d="m400.863 350.139c-.144-.045-.297-.099-.45-.153z" fill="#83d3f2"/><path d="m68.116 212.338c-.144-.063-.279-.135-.414-.207z" fill="#83d3f2"/><path d="m95.587 146.014c-.153-.054-.306-.108-.45-.153z" fill="#83d3f2"/><path d="m283.869 67.703c-.072.135-.144.27-.207.414z" fill="#83d3f2"/><path d="m350.139 95.137c-.045.144-.099.297-.153.45z" fill="#83d3f2"/><path d="m212.338 427.884c-.063.144-.135.279-.207.414z" fill="#83d3f2"/><path d="m146.013 400.413c-.054.153-.108.306-.153.45z" fill="#83d3f2"/><circle cx="247.92" cy="248" fill="#5e96ea" r="192"/><circle cx="247.92" cy="248" fill="#7aacf4" r="161"/><path d="" style="fill:none;stroke:#000;stroke-width:16;stroke-linecap:round;stroke-linejoin:round;stroke-miterlimit:10"/><path d="m247.92 440-160-296h320z" fill="#6cc2dd"/><path d="m114.756 160h266.328l-133.164 246.353z" fill="#83d3f2"/><path d="m302.272 232h-110.352c-4.418 0-8-3.582-8-8s3.582-8 8-8h110.352c4.418 0 8 3.582 8 8s-3.582 8-8 8z" fill="#4d7abc"/><path d="m235.064 294.25c-3.436 0-4.042-1.028-16.135-10.111-12.85-9.651-8.066-29.687 7.237-32.962l49.714-10.653v-16.524c0-4.418 3.582-8 8-8s8 3.582 8 8v22.99c0 3.772-2.635 7.032-6.324 7.822l-56.04 12.01c-1.614.345-2.478 2.146-1.741 3.62.379.757-.089.265 12.096 9.409 6.157 4.62 2.835 14.399-4.807 14.399z" fill="#4d7abc"/><path d="m254.878 354.982c-1.959 0-1.113.134-19.19-6.76-17.282-6.591-26.489-23.821-25.464-41.988.852-15.115 13.548-27.821 28.673-28.672l25.253-1.425c19.168-1.08 28.707 22.065 13.715 37.053-3.124 3.124-8.189 3.125-11.313-.001-3.124-3.124-3.124-8.189.001-11.313 2.254-2.253 3.778-6.543 1.602-8.719-1.637-1.637-1.903-1.111-28.358.38-6.978.393-13.205 6.619-13.599 13.598-.621 11.012 4.325 21.995 15.191 26.139l16.341 6.232c8.275 3.155 5.982 15.476-2.852 15.476z" fill="#4d7abc"/><path d="m247.096 208.668c-13.655 0-20.811-6.054-31.978-13.382-3.694-2.424-4.723-7.384-2.299-11.078 2.425-3.692 7.386-4.721 11.078-2.299 10.469 6.869 14.746 10.759 23.199 10.759 8.648 0 13.075-4.116 23.199-10.759 3.693-2.423 8.652-1.396 11.078 2.299 2.424 3.694 1.394 8.654-2.299 11.078-11.228 7.368-18.323 13.382-31.978 13.382z" fill="#4d7abc"/></svg>