<svg id="Layer_1" enable-background="new 0 0 496 496" height="512" viewBox="0 0 496 496" width="512" xmlns="http://www.w3.org/2000/svg"><path d="m496 392c0 35.358-28.639 64-64 64h-368c-35.35 0-64-28.65-64-64 0-8.839 7.142-16 16-16h464c8.844 0 16 7.174 16 16z" fill="#5e96ea"/><path d="m494.73 385.75c-5.951 29.424-31.907 51.25-62.73 51.25h-368c-30.98 0-56.82-22.01-62.73-51.25 2.386-5.698 8.083-9.75 14.73-9.75h464c6.62 0 12.3 4.02 14.73 9.75z" fill="#71a6f4"/><path d="m184 376h128l-16 32h-96z" fill="#83d3f2"/><path d="m472 76v264c0 19.88-16.12 36-36 36h-376c-19.88 0-36-16.12-36-36v-264c0-19.88 16.12-36 36-36h376c19.801 0 36 16.036 36 36z" fill="#5e96ea"/><path d="m471.07 67.82c-12.161 154.837-141.706 276.18-299.07 276.18h-112c-19.88 0-36-16.12-36-36v-232c0-19.88 16.12-36 36-36h376c17.07 0 31.36 11.88 35.07 27.82z" fill="#71a6f4"/><path d="m432 344h-368c-4.418 0-8-3.582-8-8v-256c0-4.418 3.582-8 8-8h368c4.418 0 8 3.582 8 8v256c0 4.418-3.582 8-8 8z" fill="#83d3f2"/><path d="m72 88h352v240h-352z" fill="#aeecff"/><path d="m424 88v64l-176 176h-97.95l239.99-240z" fill="#bef0fc"/><path d="m347 88-240 240h-17.95l239.99-240z" fill="#bef0fc"/><path d="m242 88-170 170v-58l112-112z" fill="#bef0fc"/><g fill="#4d7abc"><path d="m248 168c-14.762 0-32-10.476-32-40 0-32 21.613-32 32-32s32 0 32 32c0 29.524-17.238 40-32 40zm0-56c-11.381 0-16 .613-16 16 0 8.963 2.079 24 16 24s16-15.037 16-24c0-15.387-4.619-16-16-16z"/><path d="m225.197 217.102c-15.023 0-38.29-.929-41.059-15.62-2.018-10.707 7.496-21.305 30.847-34.36 14.619-8.174 29.35-14.264 29.969-14.519 4.087-1.683 8.759.265 10.442 4.351 1.683 4.085-.265 8.761-4.35 10.444-11.234 4.578-44.43 20.229-50.693 30.591 8.321 4.008 30.408 3.2 39.646 2.617v-8.606c0-4.418 3.582-8 8-8s8 3.582 8 8v16c0 4.103-3.104 7.54-7.185 7.958-.505.052-11.314 1.144-23.617 1.144z"/><path d="m270.695 217.102c-12.304 0-23.112-1.092-23.619-1.144-4.395-.45-7.592-4.377-7.142-8.771.449-4.396 4.375-7.59 8.771-7.146 10.155 1.093 37.636 2.378 46.833-2.053-6.29-10.411-39.342-25.93-50.692-30.591-4.085-1.682-6.034-6.357-4.352-10.443 1.682-4.087 6.357-6.033 10.443-4.352.62.255 15.35 6.345 29.969 14.519 23.351 13.056 32.865 23.652 30.847 34.36-2.768 14.69-26.019 15.621-41.058 15.621z"/><path d="m284.792 312.001c-2.585 0-5.122-1.251-6.664-3.563-13.076-19.615-55.439-28.438-81.343-28.438-30.01 0-35.481-23.833-21.657-37.657 13.646-13.646 61.74-24.198 71.243-26.175 4.324-.897 8.561 1.876 9.461 6.202.9 4.325-1.877 8.562-6.202 9.462-73.967 15.4-75.653 32.168-52.845 32.168 19.734 0 75.208 6.389 94.656 35.563 3.577 5.363-.362 12.438-6.649 12.438z"/><path d="m204.777 312.001c-6.3 0-10.22-7.082-6.649-12.438 9.315-13.973 28.355-22.114 44.397-26.836 4.238-1.25 8.686 1.176 9.934 5.414s-1.176 8.686-5.415 9.934c-11.854 3.491-28.745 10.075-35.603 20.363-1.541 2.312-4.079 3.563-6.664 3.563z"/><path d="m299.215 280c-4.418 0-8-3.582-8-8s3.582-8 8-8c22.757 0 21.495-16.821-54.37-32.158-4.331-.876-7.131-5.097-6.256-9.427.876-4.332 5.099-7.124 9.427-6.257 9.769 1.976 59.192 12.521 72.856 26.186 6.581 6.58 8.866 16.16 5.686 23.838-2.138 5.161-8.533 13.818-27.343 13.818z"/></g></svg>