<svg id="Layer_1" enable-background="new 0 0 496.045 496.045" height="512" viewBox="0 0 496.045 496.045" width="512" xmlns="http://www.w3.org/2000/svg"><path d="m80.001 320.023c0 156.844.362 146.251-.85 151.36-3.32 14.12-16.01 24.64-31.15 24.64-17.67 0-32-14.33-32-32v-144z" fill="#5fc68f"/><path d="m80.001 320.023c0 156.844.362 146.251-.85 151.36-20.776 14.362-50.15-.25-50.15-26.36v-125z" fill="#7adbae"/><path d="m96.001 304.023c0 8.836-7.142 16-16 16h-64c-14.303 0-21.295-17.311-11.32-27.32 2.946-2.93 6.955-4.68 11.32-4.68h64c8.84 0 16 7.16 16 16z" fill="#5fc68f"/><path d="m96.001 304.023c0 2.628 4.2 2-69 2-8.84 0-16-7.16-16-16 0-2.667-3.99-2 69-2 8.84 0 16 7.16 16 16z" fill="#7adbae"/><path d="m480.001 320.023c0 156.844.362 146.251-.85 151.36-3.32 14.12-16.01 24.64-31.15 24.64-17.67 0-32-14.33-32-32v-144z" fill="#5fc68f"/><path d="m480.001 320.023c0 156.844.362 146.251-.85 151.36-20.776 14.362-50.15-.25-50.15-26.36v-125z" fill="#7adbae"/><path d="m496.001 304.023c0 8.836-7.142 16-16 16h-64c-14.303 0-21.295-17.311-11.32-27.32 2.946-2.93 6.955-4.68 11.32-4.68h64c8.84 0 16 7.16 16 16z" fill="#5fc68f"/><path d="m496.001 304.023c0 2.628 4.2 2-69 2-8.84 0-16-7.16-16-16 0-2.667-3.99-2 69-2 8.84 0 16 7.16 16 16z" fill="#7adbae"/><g fill="#b3cec9"><path d="m448.001 304.023c-4.418 0-8-3.582-8-8v-88c0-105.869-86.131-192-192-192s-192 86.131-192 192v88c0 4.418-3.582 8-8 8s-8-3.582-8-8v-88c0-114.691 93.309-208 208-208s208 93.309 208 208v88c0 4.418-3.582 8-8 8z"/><path d="m248.001 304.023c-83.813 0-152-68.187-152-152s68.187-152 152-152 152 68.187 152 152-68.187 152-152 152zm0-288c-74.991 0-136 61.01-136 136s61.009 136 136 136c74.99 0 136-61.01 136-136s-61.01-136-136-136z"/><path d="m248.001 208.023c-57.346 0-104-46.654-104-104s46.654-104 104-104 104 46.654 104 104-46.655 104-104 104zm0-192c-48.523 0-88 39.477-88 88s39.477 88 88 88 88-39.477 88-88-39.477-88-88-88z"/></g></svg>