<svg id="Layer_1" enable-background="new 0 0 495.965 495.965" height="512" viewBox="0 0 495.965 495.965" width="512" xmlns="http://www.w3.org/2000/svg"><path d="m393.599 313.988c-2.048 0-4.095-.781-5.658-2.343l-44.335-44.336c-3.124-3.125-3.124-8.191 0-11.315 3.126-3.123 8.191-3.122 11.315 0l44.335 44.336c5.056 5.057 1.407 13.658-5.657 13.658z" fill="#b3cec9"/><path d="m234.296 154.684c-2.048 0-4.095-.781-5.658-2.343l-44.336-44.335c-3.124-3.124-3.124-8.19 0-11.315 3.125-3.123 8.19-3.123 11.315 0l44.336 44.335c5.043 5.042 1.42 13.658-5.657 13.658z" fill="#b3cec9"/><path d="m349.802 357.785c-2.048 0-4.095-.781-5.658-2.343l-44.336-44.336c-3.124-3.125-3.124-8.19 0-11.315 3.125-3.123 8.19-3.123 11.315 0l44.336 44.336c5.056 5.057 1.407 13.658-5.657 13.658z" fill="#b3cec9"/><path d="m190.499 198.482c-2.048 0-4.095-.781-5.658-2.343l-44.336-44.336c-3.124-3.125-3.124-8.19 0-11.315 3.125-3.123 8.19-3.123 11.315 0l44.336 44.336c5.056 5.057 1.407 13.658-5.657 13.658z" fill="#b3cec9"/><path d="m306.005 401.582c-2.048 0-4.095-.781-5.658-2.343l-44.336-44.335c-3.124-3.124-3.124-8.19 0-11.315 3.125-3.123 8.19-3.123 11.315 0l44.336 44.335c5.043 5.043 1.42 13.658-5.657 13.658z" fill="#b3cec9"/><path d="m146.701 242.279c-2.048 0-4.095-.781-5.658-2.343l-44.335-44.336c-3.124-3.125-3.124-8.191 0-11.315 3.127-3.123 8.192-3.121 11.315 0l44.335 44.336c5.056 5.057 1.407 13.658-5.657 13.658z" fill="#b3cec9"/><path d="m14.588 179.175-5.474-5.474c-21.087-21.089-.508-55.984 11.313-44.163 3.125 3.124 3.125 8.19.001 11.314-5.937 5.938-5.937 15.597 0 21.535l5.474 5.473c24.051 24.05 63.183 24.05 87.23 0l54.746-54.746c24.05-24.049 24.05-63.18 0-87.229l-5.474-5.476c-5.937-5.935-15.597-5.937-21.534.001-3.123 3.124-8.189 3.124-11.314-.001-11.791-11.791 23.073-32.402 44.162-11.314l5.475 5.476c30.288 30.288 30.288 79.57 0 109.858l-54.746 54.746c-30.29 30.289-79.57 30.288-109.859 0z" fill="#6d6d6d"/><path d="m344.328 495.965c-14.438 0-21.425-8.475-27.556-14.606-30.541-30.544-30.152-82.48.141-109.998l54.478-54.478c30.109-32.884 79.366-30.748 109.986-.128l5.474 5.474c21.087 21.089.508 55.984-11.313 44.163-3.125-3.124-3.125-8.19-.001-11.314 5.937-5.938 5.937-15.597 0-21.535l-5.474-5.473c-24.341-24.341-63.183-26.384-86.973-.27-.183.2-54.993 55.02-55.301 55.298-23.634 21.325-23.842 62.809.298 86.947l5.474 5.476c5.937 5.934 15.597 5.936 21.534-.001 3.125-3.123 8.191-3.122 11.314.001 3.124 3.124 3.124 8.19-.001 11.314-6.087 6.087-14.083 9.13-22.08 9.13z" fill="#6d6d6d"/><path d="m139.632 32.235-107.38 107.38c-3.61 3.6-9.46 3.6-13.07 0l-8.83-8.83c-3.44-3.44-3.6-8.9-.5-12.53.369-.438-5.257 5.225 107.88-107.92 3.61-3.61 9.46-3.61 13.07 0l8.83 8.83c3.589 3.583 3.612 9.448 0 13.07z" fill="#edac5f"/><path d="m140.123 19.695c-.292.369 7.637-7.427-107.87 107.92-3.608 3.603-9.462 3.603-13.07 0-9.578-9.565-8.985-8.973-9.33-9.36.369-.438-5.257 5.225 107.88-107.92 3.61-3.61 9.46-3.61 13.07 0 9.405 9.406 9.029 9.011 9.32 9.36z" fill="#fecb82"/><path d="m365.167 485.592-8.83-8.83c-3.609-3.609-3.609-9.46 0-13.069l107.374-107.374c3.609-3.609 9.46-3.609 13.069 0l8.83 8.83c3.609 3.609 3.609 9.46 0 13.069l-107.375 107.374c-3.608 3.609-9.459 3.609-13.068 0z" fill="#edac5f"/><g fill="#cae0dd"><path d="m291.772 234.068c-6.153 0-10.067-6.759-6.853-12.118l16.424-27.373c2.273-3.789 7.185-5.017 10.977-2.744 3.788 2.274 5.017 7.188 2.744 10.977l-16.424 27.373c-1.5 2.5-4.15 3.885-6.868 3.885z"/><path d="m308.196 250.491c-6.153 0-10.067-6.759-6.853-12.118l16.424-27.373c2.273-3.788 7.185-5.018 10.977-2.744 3.788 2.274 5.017 7.188 2.744 10.977l-16.425 27.373c-1.499 2.501-4.15 3.885-6.867 3.885z"/><path d="m324.62 266.916c-6.153 0-10.067-6.759-6.853-12.118l16.424-27.373c2.274-3.788 7.186-5.018 10.977-2.744 3.788 2.274 5.017 7.188 2.744 10.977l-16.424 27.373c-1.499 2.5-4.15 3.885-6.868 3.885z"/><path d="m341.044 283.34c-6.153 0-10.067-6.759-6.853-12.118l16.424-27.373c2.273-3.788 7.186-5.017 10.977-2.744 3.788 2.274 5.017 7.188 2.744 10.977l-16.424 27.373c-1.5 2.5-4.15 3.885-6.868 3.885z"/><path d="m258.924 201.219c-6.153 0-10.067-6.759-6.853-12.118l16.424-27.372c2.273-3.789 7.186-5.018 10.977-2.744 3.788 2.274 5.017 7.188 2.744 10.977l-16.424 27.373c-1.499 2.499-4.15 3.884-6.868 3.884z"/><path d="m242.5 184.796c-6.153 0-10.067-6.759-6.853-12.118l16.425-27.373c2.273-3.789 7.185-5.018 10.977-2.744 3.788 2.274 5.017 7.188 2.744 10.977l-16.425 27.373c-1.5 2.5-4.15 3.885-6.868 3.885z"/><path d="m226.076 168.372c-6.153 0-10.067-6.759-6.853-12.118l16.424-27.373c2.273-3.789 7.185-5.017 10.977-2.744 3.788 2.274 5.017 7.188 2.744 10.977l-16.424 27.373c-1.499 2.5-4.15 3.885-6.868 3.885z"/><path d="m275.348 217.644c-6.153 0-10.067-6.759-6.853-12.118l16.424-27.373c2.273-3.788 7.186-5.017 10.977-2.744 3.788 2.274 5.017 7.188 2.744 10.977l-16.424 27.373c-1.499 2.5-4.15 3.885-6.868 3.885z"/><path d="m247.975 277.865c-6.153 0-10.067-6.759-6.853-12.118l16.424-27.373c2.273-3.789 7.185-5.017 10.977-2.744 3.788 2.274 5.017 7.188 2.744 10.977l-16.424 27.373c-1.5 2.5-4.15 3.885-6.868 3.885z"/><path d="m264.398 294.289c-6.149 0-10.068-6.757-6.852-12.118l16.425-27.373c2.272-3.789 7.187-5.016 10.976-2.743 3.788 2.273 5.017 7.187 2.743 10.976l-16.425 27.373c-1.498 2.5-4.149 3.885-6.867 3.885z"/><path d="m280.823 310.713c-6.153 0-10.067-6.759-6.853-12.118l16.424-27.374c2.273-3.789 7.186-5.018 10.977-2.744 3.788 2.274 5.017 7.188 2.744 10.977l-16.424 27.373c-1.499 2.501-4.15 3.886-6.868 3.886z"/><path d="m297.247 327.137c-6.153 0-10.067-6.759-6.853-12.118l16.424-27.373c2.273-3.788 7.186-5.017 10.977-2.744 3.788 2.274 5.017 7.188 2.744 10.977l-16.424 27.373c-1.5 2.5-4.15 3.885-6.868 3.885z"/><path d="m215.126 245.017c-6.149 0-10.068-6.757-6.852-12.118l16.425-27.373c2.272-3.789 7.188-5.017 10.976-2.743 3.788 2.273 5.017 7.187 2.743 10.976l-16.425 27.372c-1.498 2.501-4.149 3.886-6.867 3.886z"/><path d="m198.703 228.593c-6.153 0-10.067-6.759-6.853-12.118l16.424-27.373c2.273-3.788 7.186-5.018 10.977-2.744 3.788 2.274 5.017 7.188 2.744 10.977l-16.424 27.373c-1.5 2.5-4.15 3.885-6.868 3.885z"/><path d="m182.279 212.169c-6.153 0-10.067-6.759-6.853-12.118l16.424-27.373c2.273-3.789 7.185-5.017 10.977-2.744 3.788 2.274 5.017 7.188 2.744 10.977l-16.424 27.373c-1.5 2.5-4.15 3.885-6.868 3.885z"/><path d="m231.551 261.441c-6.153 0-10.067-6.759-6.853-12.118l16.424-27.373c2.273-3.788 7.185-5.017 10.977-2.744 3.788 2.274 5.017 7.188 2.744 10.977l-16.424 27.373c-1.5 2.5-4.15 3.885-6.868 3.885z"/><path d="m204.178 321.662c-6.153 0-10.067-6.759-6.853-12.118l16.424-27.373c2.273-3.789 7.185-5.017 10.977-2.744 3.788 2.274 5.017 7.188 2.744 10.977l-16.424 27.373c-1.5 2.5-4.151 3.885-6.868 3.885z"/><path d="m220.601 338.086c-6.153 0-10.067-6.759-6.853-12.118l16.424-27.372c2.273-3.789 7.186-5.017 10.977-2.744 3.788 2.274 5.017 7.188 2.744 10.977l-16.424 27.373c-1.499 2.499-4.15 3.884-6.868 3.884z"/><path d="m237.025 354.51c-6.153 0-10.067-6.759-6.853-12.118l16.425-27.374c2.273-3.789 7.186-5.018 10.977-2.744 3.788 2.274 5.017 7.188 2.744 10.977l-16.425 27.374c-1.5 2.501-4.15 3.885-6.868 3.885z"/><path d="m253.45 370.934c-6.153 0-10.067-6.759-6.853-12.118l16.424-27.374c2.273-3.788 7.186-5.017 10.977-2.744 3.788 2.274 5.017 7.188 2.744 10.977l-16.424 27.373c-1.5 2.501-4.15 3.886-6.868 3.886z"/><path d="m171.329 288.815c-6.153 0-10.067-6.759-6.853-12.118l16.425-27.373c2.273-3.788 7.186-5.018 10.977-2.744 3.788 2.274 5.017 7.188 2.744 10.977l-16.425 27.373c-1.499 2.5-4.15 3.885-6.868 3.885z"/><path d="m154.905 272.39c-6.153 0-10.067-6.759-6.853-12.118l16.424-27.373c2.273-3.788 7.186-5.018 10.977-2.744 3.788 2.274 5.017 7.188 2.744 10.977l-16.424 27.374c-1.499 2.499-4.15 3.884-6.868 3.884z"/><path d="m138.482 255.966c-6.153 0-10.067-6.759-6.853-12.118l16.424-27.373c2.273-3.789 7.185-5.017 10.977-2.744 3.788 2.274 5.017 7.188 2.744 10.977l-16.424 27.373c-1.5 2.5-4.15 3.885-6.868 3.885z"/><path d="m187.754 305.238c-6.153 0-10.067-6.759-6.853-12.118l16.424-27.373c2.273-3.788 7.185-5.017 10.977-2.744 3.788 2.274 5.017 7.188 2.744 10.977l-16.424 27.373c-1.5 2.501-4.15 3.885-6.868 3.885z"/></g><path d="m486.123 365.68c-.292.369 7.637-7.427-107.87 107.92-3.608 3.603-9.462 3.603-13.07 0-9.578-9.565-8.985-8.973-9.33-9.36.369-.438-5.257 5.225 107.88-107.92 3.61-3.61 9.46-3.61 13.07 0 9.405 9.406 9.029 9.011 9.32 9.36z" fill="#fecb82"/></svg>