<svg id="Layer_1" enable-background="new 0 0 496 496" height="512" viewBox="0 0 496 496" width="512" xmlns="http://www.w3.org/2000/svg"><path d="m410.57 443.821c-23.79 2.21-30.05 15.74-50.57 15.74h-142.06c-19.42-2.18-32.719-16.4-33.46-36.37-.834-22.459-2.369-9.858 14.81-85.87 7.156-31.661 8.023-93.815 8.71-93.815 0 .171-2.474 0 32 0v160.055c88 0 54-16 88-16 14.8 0 24.56 6.61 36 14.27v3.67c0 8.873 7.196 16.06 16.13 16 7.86-.06 14.28-5.98 15.61-13.5 1.068 0-.809-3.976 14.83 35.82z" fill="#b3cec9"/><path d="m408 437.281-48 6.28h-80c-22.03 0-40-17.848-40-40 88 0 54-16 88-16 14.8 0 24.56 6.61 36 14.27 0 4.878-.351 9.942 4.68 14.99 9.179 9.148 24.758 4.197 27.06-8.82 1.086 0-.524-3.242 12.26 29.28z" fill="#cae0dd"/><path d="m418 276.501h-34c-11.05 0-20-8.95-20-20v-67.5c13.529 0 23.847-4.029 32-14.5v75.47c12.543 2.344 22 13.361 22 26.53z" fill="#f9cfac"/><path d="m472 88.011c0 38.037.547 37.996-1.72 43-8.795 19.649-39.266 12.621-55.03-2.48 8.991-22.314 5.036-13.76 17.66-37.52 14.754 0 27.88-8.02 34.49-20.1 2.981 5.283 4.6 10.838 4.6 17.1z" fill="#f9cfac"/><path d="m472 88.011c0 38.037.547 37.996-1.72 43-18.534 8.5-44.794-12.882-32.48-40.3l5.21-9.8c9.43 0 18.25-3.273 25.04-8.82 2.53 4.77 3.95 10.19 3.95 15.92z" fill="#ffe4cc"/><path d="m280 187.561c0 9.565-8.047 20.311-17.11 23.63l-22.89 8.37v23.945h-32v-55.945z" fill="#ffe4cc"/><path d="m280 187.561c0 5.5-2.65 11.37-6.62 16h-65.38v-16z" fill="#f9cfac"/><path d="m416.95 269.031h-20.95c-11.05 0-20-8.95-20-20v-47.76l20-4.91v53.61c10.06 1.88 18.16 9.35 20.95 19.06z" fill="#ffe4cc"/><path d="m418 276.501c0 13.2-9.48 24.19-22 26.53v102.06c0 14.412-17.078 21.937-27.32 11.73-2.89-2.9-4.68-6.9-4.68-11.32v-109c0-11.05 8.95-20 20-20z" fill="#f9cfac"/><path d="m418 276.501c0 13.2-9.48 24.19-22 26.53v102.06c0 5.457-2.698 10.578-7.12 13.63-6.404-2.143-10.88-8.185-10.88-15.16v-109c0-7.97 4.66-14.85 11.4-18.06z" fill="#ffe4cc"/><path d="m80 131.561v37.67l-32-5.67c-25.676 6.774-23.991 6.54-27.17 6.54-10.96 0-20.35-11.19-20.83-22.54l40-16z" fill="#f9cfac"/><path d="m80 131.561c0 12.03-10.864 21.205-22.775 19.094l-9.225-1.634-23.69 6.25c-8.309 1.42-15.4-2.746-19.96-9.45l35.65-14.26z" fill="#ffe4cc"/><path d="m421.5 133.941c-20.498 20.499-18.505 55.06-57.5 55.06-3.53.46-8.39-1.44-12-1.44-105.851 0-70.815.123-154.28.09-18.455-.007-20.815-1.261-117.72-18.42v-37.67h112s2.75-1.86 10.57-5.86 17.71-8 25.98-8c11.489 0 26.838 7.403 35.45 13.86l70.46-7.92 13.49 14.04c11.805 12.266 32.59 3.841 32.59-13.11v-11.53c6.27 1.72 12.9 2.17 19.5 1.23h4.83c3.237 6.673 7.988 12.491 12.95 16.55 3.953 3.394 3.985 2.675 3.68 3.12z" fill="#b3cec9"/><path d="m417.82 130.821c-13.13 24.535-38.995 40.74-68.06 40.74h-45.76c-22.091 0-40-17.909-40-40 0-.101 51.235-5.759 51.111-5.745 11.936-1.342 24.152 2.832 32.839 11.865 11.798 12.269 32.59 3.944 32.59-13.609v-11.031c6.27 1.72 12.9 2.17 19.5 1.23h4.83c3.237 6.673 7.988 12.491 12.95 16.55z" fill="#cae0dd"/><path d="m380.54 113.041c0 12.491.105 12.75-.34 15.1-2.264 11.851-14.979 18.578-26.02 13.84-4.815-2.034-6.019-4.153-19.72-18.34-88.801-91.95-82.969-85.006-84.54-88.17-3.799-7.598-.942-16.794 6.18-20.91 6.063-3.523 14.265-2.729 19.9 2.9 6.725-3.596 15.044-.066 17.14 7.262 2.586 9.043 7.454 17.32 14.14 24.018l51.91 51.91c6 6 13.38 10.22 21.35 12.39z" fill="#f9cfac"/><path d="m380.54 113.041c0 12.491.105 12.75-.34 15.1-5.488 3.861-12.446 4.395-18.26 1.9-4.709-1.989-5.627-3.747-19.72-18.34-88.801-91.949-82.969-85.006-84.54-88.17-1.4-2.79-1.93-5.92-1.58-8.97 6.063-3.523 14.265-2.729 19.9 2.9 6.725-3.596 15.044-.066 17.14 7.262 5.125 17.921 10.853 20.731 66.05 75.928 6 6 13.38 10.22 21.35 12.39z" fill="#ffe4cc"/><path d="m240 243.506v216.055h-22.06c-19.42-2.18-32.719-16.4-33.46-36.37-.834-22.459-2.369-9.858 14.81-85.87 7.156-31.661 8.023-93.815 8.71-93.815 0 .171-2.474 0 32 0z" fill="#5fc68f"/><path d="m240 243.451v180.471c0 25.44-37.89 26.53-39.24 1.13-.046-1.011.424 2.527-.48-32.541-.344-13.357 15.683-65.955 21.337-107.197 1.246-9.088-5.804-17.193-14.977-17.193-.11 0 .513-4.219.59-24.67z" fill="#7adbae"/><path d="m264 131.561v56c-97.459.132-60.726 3.498-184-18.33v-37.67h112s2.75-1.86 10.57-5.86 17.71-8 25.98-8c13.64 0 32.486 10.897 35.45 13.86z" fill="#5fc68f"/><path d="m263.97 131.531c-.83 17.83-15.55 42.22-33.58 42.22-35.523 0-49.154.797-71.56-3.41l-55.241-10.357c-13.609-2.552-23.589-14.437-23.589-28.423h112s2.75-1.86 10.57-5.86 17.71-8 25.98-8c11.38 0 26.485 7.214 35.42 13.83z" fill="#7adbae"/><path d="m467.4 70.911c-6.58 11.96-19.55 20.1-34.49 20.1-12.626 23.764-8.668 15.205-17.66 37.52-4.26-4.1-7.79-8.92-10.38-14.26-4.538-9.381-4.87-16.541-4.87-25.45 3.486-1.743 6.47-4.911 7.89-8.96 4.665-13.302 5.464-14.013 5.18-18.83 17.189-13.818 43.469-9.287 54.33 9.88z" fill="#6d6d6d"/><path d="m413.12 62.361c0 3.572-.839 4.936-4.97 16.75-1.423 4.069-3.647 7.154-7.45 9.33-13.197 7.46-28.741-4.982-23.8-18.99 2.244-6.361 1.299-3.704 4.33-12.3 5.986-16.976 31.89-12.769 31.89 5.21z" fill="#6d6d6d"/><path d="m461.76 63.561c-11.197 18.436-54.509 21.833-75.83 7.623-13.213-8.806-.31-29.471 16.14-23.943 6.32 2.12 10.47 7.67 11 13.79 14.509-11.664 35.735-10.423 48.69 2.53z" fill="#797a7a"/><path d="m470.71 393.912c-12.32 6.4-20.709 19.01-20.709 33.53-28.141 12.651-38.551 17.323-38.821 16.999-10.871-10.74-15.609-25.656-14.69-36.44.752-10.363 9.65-18.56 20.54-18.56 35.574 0 42.988-1.414 53.68 4.471z" fill="#f9cfac"/><path d="m462.43 390.631c-5.355 4.844-9.304 11.138-11.191 18.238-1.747 6.574-6.551 11.91-12.755 14.699-5.962 2.68-8.638 3.882-8.504 3.823-11.599 5.087-25.213-.115-30.284-11.721-1.487-3.403-2.611-6.784-2.946-9.719 1.69-9.39 10.14-16.51 20.28-16.51 38.706 0 39.341-.396 45.4 1.19z" fill="#ffe4cc"/><g fill="#6d6d6d"><path d="m480.374 447.344c-4.313-.15-5.15.501-18.895 5.09-3.863 1.29-6.913 3.84-8.829 7.01h-4.708c-14.32 0-27.271-5.67-36.594-14.83 22.365-9.804 13.446-5.838 38.653-17.171 0-14.52 8.387-27.13 20.709-33.53 19.909 10.69 24.574 36.663 9.664 53.431z"/><path d="m484.886 478.453-12.672 4.23c-8.602 2.88-17.988-1.56-20.945-9.91-2.961-8.333 1.597-17.465 10.21-20.34 13.47-4.497 14.462-5.11 18.039-5.11 6.904 0 13.252 4.226 15.577 10.79 2.968 8.36-1.606 17.461-10.209 20.34z"/></g></svg>