<svg id="Layer_1" enable-background="new 0 0 496.005 496.005" height="512" viewBox="0 0 496.005 496.005" width="512" xmlns="http://www.w3.org/2000/svg"><path d="m380.01 179.062c-.39.18-.78.37-1.17.57-10.52-15.715-34.74-8.032-34.74 10.6v16.28l-19.08 12.87c-28.61 9.54-52.91-29.52-47.69-19.07-9.54-19.08-48.41 28.61-48.41 28.61l-57.23-38.15c36.908-46.095 83.948-66.77 124-66.77 33.076 0 65.076 28.431 84.32 55.06z" fill="#b3cec9"/><path d="m228.92 228.922c-2.59 69.26-.41 59.61-7.62 114.46-.01.05-.02.1-.02.14-2.16 16.3-16.07 28.48-32.51 28.48h-188.77c0-11.478 6.974-21.868 17.71-26.16 29.738-11.888 28.939-11.99 33.06-11.99 6.54 0 12.16 3.92 14.64 9.53 1.947 0-7.14 1.199 104.84-14.6-5.186-45.408-18.421-47.174-23.78-72.33-2.116-9.925-2.211-22.758 1.1-32.39 5.39-15.61 24.12-33.29 24.12-33.29 5.917 3.945 51.467 34.309 57.23 38.15z" fill="#f9cfac"/><path d="m228.5 228.642c-1.94 56.61-.43 51.2-7.2 102.74-.01.05-.02.1-.02.14-2.16 16.3-16.07 28.48-32.51 28.48h-186.09c2.98-6.32 8.27-11.46 15.03-14.16l27.12-10.85c7.854-3.158 17.052.409 20.58 8.39 1.947 0-7.14 1.199 104.84-14.6-.49-4.29-1.05-8.19-1.67-11.76l1.67-.24c-5.618-49.545-22.544-50.031-25.03-81 .37-4.19 1.14-8.2 2.35-11.72 5.39-15.61 24.12-33.29 24.12-33.29z" fill="#ffe4cc"/><path d="m416.603 372.002h-53.423c-10.538 0-19.08-8.542-19.08-19.08v-162.69c0-20.075 27.338-26.644 36.16-8.14 2.843 5.841 1.99-4.198 1.99 156.53 11.431 1.417 20.955 1.626 30.04 11.93 4.172 4.697 7.058 10.787 7.87 17.45.285 2.197-1.465 4-3.557 4z" fill="#f9cfac"/><path d="m412.182 360.002h-37.412c-10.538 0-19.08-8.542-19.08-19.08 0-176.223-.411-164.49.94-168.61 9.199-3.37 19.364.832 23.63 9.78 2.843 5.841 1.99-4.198 1.99 156.53 10.95 1.357 23.766 1.544 32.977 15.796 1.555 2.407-.179 5.584-3.045 5.584z" fill="#ffe4cc"/><path d="m380.01 179.062c-.39.18-.78.37-1.17.57-10.52-15.715-34.74-8.032-34.74 10.6v3.35l-19.08 12.88c-28.61 9.54-52.91-29.52-47.69-19.08-3.066-6.13-9.163-5.362-16.025-1.497-24.681 13.899-55.527 14.688-82.645-3.393 36.88-41.63 81.17-58.49 117.03-58.49 33.076 0 65.076 28.431 84.32 55.06z" fill="#cae0dd"/><path d="m228.92 228.922c-2.59 69.26-.41 59.61-7.62 114.46-.01.05-.02.1-.02.14-2.16 16.3-16.07 28.48-32.51 28.48h-64.77v-36.69l46.25-6.53c-4.689-41.32-16.159-46.5-22.21-66.25-4.288-13.9-3.75-28.975-.47-38.47 5.39-15.61 24.12-33.29 24.12-33.29 56.373 37.575 50.067 33.371 57.23 38.15z" fill="#5fc68f"/><path d="m171.69 190.772c34.055 22.699 53.012 62.234 49.199 102.983-1.417 15.147-4.529 37.432-4.529 37.767-2.16 16.3-16.07 28.48-32.51 28.48h-35.16c-13.636 0-24.69-11.054-24.69-24.69 0-.101-1.426.201 46.25-6.53-2.45-21.59-6.75-33.33-11.18-42.43-3.47-10.37-7.5-16.82-11.03-23.82-4.288-13.9-3.75-28.975-.47-38.47 5.495-15.914 24.222-33.222 24.12-33.29z" fill="#7adbae"/><path d="m464.03 228.162c-2.91 26.729-29.443 44.305-54.13 37.47-4.54-15.63-.47-33.43 12.13-46.02-9.882-32.25-6.029-21.351-16.745-46.52 7.05-.14 14.085.95 20.775 3.27 12.77 4.431 19.435 11.225 25.56 17.35-3.031 9.097 1.121 14.712 7.61 28.22 1.346 2.803 2.771 4.336 4.8 6.23z" fill="#6d6d6d"/><path d="m409.89 265.632c-12.535-3.32-17.892-10.142-27.64-19.88 0-58.97 1.124-59.487-3.41-66.12 7.549-3.872 16.683-6.323 26.445-6.54 11.233 26.396 7.361 15.847 16.745 46.52-12.558 12.544-16.681 30.307-12.14 46.02z" fill="#f9cfac"/><path d="m422.03 219.612c-8.72 8.71-13.36 19.93-13.88 31.18-4.476-2.901-5.881-4.631-15.93-14.68 0-59.274.376-57.009-.98-61.12 4.537-1.158 9.077-1.79 14.045-1.9 11.233 26.396 7.361 15.847 16.745 46.52z" fill="#ffe4cc"/><path d="m484.93 230.512c-9.616 4.781-21.12.954-25.7-8.58-6.422-13.367-10.648-19.102-7.61-28.22 5.301-16.508 28.252-18.91 35.81-3.15 2.405 5.016.85 1.745 6.72 14.02 4.556 9.527.43 21.13-9.22 25.93z" fill="#6d6d6d"/><path d="m485.747 197.298c-16.988 12.607-48.671 14.37-69.407 3.745-2.831-9.259-.52-3.207-11.055-27.95 15.557-.309 31.07 5.355 42.805 17.09l3.53 3.53c5.301-16.508 28.252-18.91 35.81-3.15 1.131 2.358.417 5.176-1.683 6.735z" fill="#797a7a"/></svg>