<svg id="Layer_1" enable-background="new 0 0 496 496" height="512" viewBox="0 0 496 496" width="512" xmlns="http://www.w3.org/2000/svg"><path d="m240 291.923v56c-144 0-168-80-200-120-15.877-3.172-25.207-3.488-33.36-13.44-4.18-5.09-6.64-11.58-6.64-18.56 3.939 0 57.241.001 57.49 0 7.332-.015 13.172 5.757 13.45 12.91l1.06.42c-.89 10.67 40 73.51 96 81.51 0 0 2.75-1.86 10.57-5.86s17.71-8 25.98-8c11.637 0 26.186 8.073 35.45 15.02z" fill="#f9cfac"/><path d="m240 291.923v40c-144 0-168-80-200-120-14.949-2.986-27.162-3.403-35.23-16h52.72c7.332-.015 14.232 6.176 14.51 13.33-.89 10.67 40 73.51 96 81.51 0 0 2.75-1.86 10.57-5.86s17.71-8 25.98-8c11.637 0 26.186 8.073 35.45 15.02z" fill="#ffe4cc"/><path d="m240 291.923v56c-102.04 0-143.82-40.17-170.89-77.81 8.304-9.434 2.834-3.218 23.13-26.28 17.17 20.27 44.04 42.4 75.76 46.93 0 0 2.75-1.86 10.57-5.86s17.71-8 25.98-8c11.637 0 26.186 8.073 35.45 15.02z" fill="#5fc68f"/><path d="m240 291.923c0 22.645-19.892 40.357-42.466 37.372-49.927-6.602-81.36-24.883-103.6-46.125-11.026-10.532-11.767-27.891-1.694-39.337.391-.444 30.437 40.457 75.76 46.93 0 0 2.75-1.86 10.57-5.86s17.71-8 25.98-8c11.637 0 26.186 8.073 35.45 15.02z" fill="#7adbae"/><path d="m328 339.923c-31 9.95-56 8-88 8v-56c72 0 80-13.2 128-40 2.59 5.34 23.9 23.94 24 24 0 8.11 23.935 64-64 64z" fill="#b3cec9"/><path d="m394.38 289.353c-2.86 16.9-16.95 34.57-66.38 34.57-16.46 5.283-31.229 7.211-46.252 7.858-22.677.976-41.748-17.035-41.748-39.858 72 0 80-13.2 128-40 2.59 5.34 23.9 23.94 24 24 0 2 1.51 7.03 2.38 13.43z" fill="#cae0dd"/><path d="m366.03 251.913c-13.522.252-26.382-4.796-35.9-14.33-3.464-3.47-2.885-2.664-2.73-3.73 1.1-7.555-1.426-12.059-6.16-21.94-1.625-3.391-2.375-4.248-4.48-6.19 2.421-22.328 24.589-37.166 45.4-31.43 3.883 13.367.217 28.213-10.17 38.6 7.873 25.732 4.621 16.882 14.04 39.02z" fill="#6d6d6d"/><path d="m366.03 251.913c-9.419-22.138-6.168-13.292-14.04-39.02 10.529-10.528 14.002-25.483 10.17-38.6 5.998 1.62 11.161 4.651 15.35 8.84 27.076 27.075 26.894 26.251 28.85 30.78 8.87 20.385-18.108 37.492-40.33 38z" fill="#f9cfac"/><path d="m406.36 213.913c-7.788 18.66-40.922 20.438-50.74-5.18 7.08-9.32 9.5-20.99 7.21-31.74.18-.79.32-1.59.44-2.38 10.777 3.249 13.478 7.758 38.99 33.27 1.78 1.78 3.15 3.83 4.1 6.03z" fill="#ffe4cc"/><path d="m327.4 233.853c-3.881 14.427-23.784 16.946-30.26 3.4l-5.64-11.76c-3.855-8.06-.283-17.759 7.73-21.74 8.291-4.125 17.864-.519 21.55 7.2 5.396 11.3 8.615 15.552 6.62 22.9z" fill="#6d6d6d"/><path d="m495.997 164.582c.085 4.744-1.942 9.285-5.297 12.64l-118.38 118.38c-6.592 6.592-17.339 6.661-24 0-6.612-6.611-6.652-17.348 0-24l82.71-82.71c6.794-6.794 11.724-15.095 14.467-24.119 2.591-8.523 11.284-14.558 21.533-11.881 10.51-10.509 28.699-3.285 28.967 11.69z" fill="#f9cfac"/><path d="m494.31 157.483c-1.574 2.712 6.511-5.734-121.34 122.12-8.214 8.215-22.162 5.941-27.28-4.61 1.542-2.628-5.127 4.367 85.34-86.1 6.794-6.794 11.724-15.095 14.467-24.119 2.591-8.523 11.284-14.558 21.533-11.881 8.141-8.141 22.056-6.043 27.28 4.59z" fill="#ffe4cc"/><path d="m363.05 191.863c-12.638 19.147-44.285 25.67-67.99 14.83 6.007-5.807 15.404-6.262 21.7-.97 2.412-22.244 24.503-37.19 45.4-31.43 1.65 5.68 1.94 11.7.89 17.57z" fill="#797a7a"/></svg>