<svg id="Layer_1" enable-background="new 0 0 496 496" height="512" viewBox="0 0 496 496" width="512" xmlns="http://www.w3.org/2000/svg"><path d="m307.356 261.26c-70.88 34.74-90.24-13.95-90.24-13.95-15.905-54.044-12.64-170.918-12.64-247.31 98.6 14.08 172.7 110.82 102.88 261.26z" fill="#b3cec9"/><path d="m360.936 341.37v7.42c-6.143 3-11.434 8.687-13.98 15.87-8.3 23.413-9.705 25.341-9.17 33.36-30.852 24.777-77.205 15.965-96.25-17.5 11.522-20.964 34.414-35.61 61.1-35.61 22.375-42.096 15.369-26.946 31.28-66.46 16.944 16.293 27.02 38.65 27.02 62.92z" fill="#6d6d6d"/><path d="m402.926 379.18c-.503 2.636-.321 1.848-8.74 25.71-5.219 14.794-21.74 22.66-36.92 17.56-11.717-3.937-19.57-14.707-19.57-26.79 0-6.17 1.186-8.996 6.968-25.41 1.889-5.362 3.671-11.045 9.083-16.27 19.894-19.896 54.579-2.244 49.179 25.2z" fill="#6d6d6d"/><path d="m360.106 329.43c-1.77 3.052-1.51 2.762-9.88 26.56-1.428 4.062-1.772 7.653-1.51 11.58-27.394 22.005-67.579 17.727-89.4-7.86 11.86-9.26 26.92-14.8 43.32-14.8 22.375-42.096 15.369-26.946 31.28-66.46 14.314 13.764 23.534 31.671 26.19 50.98z" fill="#797a7a"/><path d="m402.926 379.18c-14.497 25.101-54.3 15.242-54.3-13.96 0-3.12.531-6.19 1.6-9.23 8.034-22.844 8.081-23.458 9.88-26.56.985 6.984.83 11.402.83 19.36 21.276-10.95 46.595 6.987 41.99 30.39z" fill="#797a7a"/><path d="m333.916 278.45c-15.917 39.529-8.91 24.373-31.28 66.46-26.46 0-49.44 14.42-61.1 35.61-5.19-8.95-8.14-19.3-8.14-30.3v-62c0-19.642 16.401-35.42 36.43-35.42 24.15 0 47.014 9.188 64.09 25.65z" fill="#f9cfac"/><path d="m327.816 273.09c-5.365 13.315-6.606 16.355-6.54 16.23-9.722 18.291-25.696 32.41-44.934 40.091-7.033 2.808-13.484 6.709-19.131 11.484-9.182 7.765-23.815 1.613-23.815-11.196v-41.48c0-19.642 16.401-35.42 36.43-35.42 21.53.001 41.968 7.326 57.99 20.291z" fill="#ffe4cc"/><path d="m205.846 496h-84.99c-15.66 0-28.36-12.71-28.34-28.37.09-79.3.02-228.85.07-382.6.02-19.26 7.66-48.42 21.17-61.93 13.56-13.59 44.54-23.09 63.75-23.1h26.97c.46.07.91.13 1.37.21l-.46 45.77-.69 69.21c-24.19 147.34-26.87 163.68-27.1 165.11 0 0-.01.09-.02.1-.21 1.32-2.89 17.61-28.41 173.09l29.19 7.29c16.15 4.04 27.49 18.56 27.49 35.22z" fill="#ffe4cc"/><path d="m279.136 255.07c0 7.62-3.048 14.789-8.31 20.05-45.324 45.318-30.523 30.513-64.98 64.97l-14.17 113.4c19.609 0 46.025 13.291 54.185 31.353 2.366 5.236-1.608 11.157-7.354 11.157h-46.831c-23.478 0-42.51-19.032-42.51-42.51v-113.38c0-14.691 5.75-29.23 16.6-40.08 72.467-72.467 67.942-69.376 76.68-72.03 18.258-5.622 36.69 8.047 36.69 27.07z" fill="#f9cfac"/><path d="m191.676 496h-16.69c-23.48 0-42.51-19.03-42.51-42.51 0-121.69-.548-117.098 1.33-125.57 0-.1-.629-.052 16.69 0-1.875 8.461-1.33 3.836-1.33 125.57 0 23.48 19.03 42.51 42.51 42.51z" fill="#f9cfac"/><path d="m254.136 275.12c-45.304 45.298-30.538 30.528-64.98 64.97l-14.17 113.4c19.609 0 46.025 13.291 54.185 31.353 2.366 5.236-1.608 11.157-7.354 11.157h-30.14c-23.478 0-42.51-19.032-42.51-42.51v-113.38c0-14.691 5.75-29.23 16.6-40.08 72.467-72.467 67.942-69.376 76.68-72.03 20.274 6.158 26.852 31.959 11.689 47.12z" fill="#ffe4cc"/><path d="m204.476 0h-26.97c-19.21.01-50.19 9.51-63.75 23.1-13.51 13.51-21.15 42.67-21.17 61.93 0 .16-.15 242.73-.02 242.73 55.71.07 35.88.09 57.93.16 4.07-18.47 13.75-26.37 25.54-38.16 4.06-24.73-1.18 7.21 28.66-174.57l.69-69.21.46-45.77z" fill="#5fc68f"/><path d="m204.476 0c-19.498 141.614-10.406 82.439-44.52 289.76-10.907 10.907-11.262 11.192-13.041 13.248-13.264 15.322-31.959 24.781-54.349 24.752-.135 0 .02-242.57.02-242.73.021-19.264 7.661-48.421 21.17-61.93 13.56-13.59 44.54-23.09 63.75-23.1z" fill="#7adbae"/><path d="m160.076 289.03c-.171 1.037 1.344-.734-10.39 11-7.7 7.7-12.94 17.38-15.26 27.84h-.61c4.147-18.699 14.496-27.08 26.26-38.84z" fill="#5fc68f"/><path d="m307.356 261.26c-9.15-4.21-19.14-6.98-29.65-8.01-1.52-23.94-30.91-35.63-48.33-18.21-12.77-62.41-21.3-122.12-23.99-189.06-.6-14.93-.91-30.22-.91-45.98.46.07.91.13 1.37.21 97.91 14.77 171.01 111.31 101.51 261.05z" fill="#cae0dd"/></svg>