<svg id="Layer_1" enable-background="new 0 0 496.012 496.012" height="512" viewBox="0 0 496.012 496.012" width="512" xmlns="http://www.w3.org/2000/svg"><path d="m277.761 282.736c0 59.52-68.06 64.18-191.75 129.3-6.815-17.572-3.566-9.191-14.34-37 115.13-96.77 96.97-82.38 126.73-102.22 84.84 10.608 69.821 8.731 79.36 9.92z" fill="#5fc68f"/><path d="m270.781 281.866c-9.64 47.67-76.28 56.31-190.18 116.22l-8.93-23.05c115.13-96.77 96.97-82.38 126.73-102.22z" fill="#7adbae"/><path d="m43.341 439.206 7.388 42.412c.809 4.643-2.549 9.002-7.248 9.355-12.219.917-24.857-5.711-30.259-19.676-4.154-10.736-1.577-4.078-11.88-30.66-3.36-8.67-.24-18.52 7.49-23.68l62.84-41.92c10.922 28.166 7.762 20.014 14.34 37z" fill="#f9cfac"/><path d="m35.341 427.206 5.067 29.091c2.651 15.221-15.401 25.487-26.944 15.218-.385-.342.832 2.548-12.123-30.879-3.36-8.67-.24-18.52 7.49-23.68l62.84-41.92 9.12 23.52z" fill="#ffe4cc"/><path d="m361.331 45.336c-8.15 14.83-24.24 24.93-42.76 24.93-15.661 29.461-10.756 18.855-21.9 46.52-5.28-5.08-9.66-11.06-12.87-17.68-5.628-11.634-6.04-20.511-6.04-31.56 4.377-2.191 8.024-6.141 9.78-11.11 6.151-17.408 6.705-17.574 6.43-23.35 21.331-17.153 53.9-11.476 67.36 12.25z" fill="#6d6d6d"/><path d="m294.031 34.736c0 4.324-1.011 6.575-4.499 16.476-2.347 6.662-3.721 11.748-10.901 15.864-16.611 9.16-35.639-6.014-29.37-23.98l5.22-14.82c3.66-10.35 15.22-15.86 25.85-12.29 8.131 2.731 13.7 10.224 13.7 18.75z" fill="#6d6d6d"/><path d="m396.091 346.046c-4.364 21.165-1.78 8.619-11.49 55.73h-41.66l5.24-45.93c-47.16-4.28-63.58-3.83-90.26-3.67-10.9.07-30.58-5.21-39.68-9.92-24.153-12.502-29.995-49.129-19.84-69.44l79.36 9.92c70 17.19 41.66 5.32 96.01 24.18.05.01.09.04.14.05 16.14 5.62 25.632 22.34 22.18 39.08z" fill="#5fc68f"/><path d="m396.091 346.046c-4.364 21.165-1.78 8.619-11.49 55.73-17.426 0-31.208-14.912-29.708-32.371l2.348-27.319c-47.16-4.28-72.64-3.83-99.32-3.67-10.9.07-30.58-5.21-39.68-9.92-14.73-7.63-22.5-23.91-24.21-40.01.64-5.78 2.12-11.17 4.37-15.67l79.36 9.92c70 17.19 41.66 5.32 96.01 24.18.05.01.09.04.14.05 16.14 5.62 25.632 22.34 22.18 39.08z" fill="#7adbae"/><path d="m406.691 491.056h-53.92c-12.91 0-22.381-12.13-19.25-24.65 5.011-20.039 2.841-6.973 9.42-64.63h41.66c-2.984 14.497-.489 2.388-12.04 58.42l24.84 6.21c10.288 2.572 17.045 11.524 17.32 16.15.3 4.37-3.22 8.5-8.03 8.5z" fill="#f9cfac"/><path d="m414.721 482.556h-50.95c-12.91 0-22.381-12.13-19.25-24.65 5.012-20.04 2.822-6.811 8.45-56.13h31.63c-2.984 14.497-.489 2.388-12.04 58.42l24.84 6.21c10.288 2.572 17.046 11.523 17.32 16.15z" fill="#ffe4cc"/><path d="m367.041 66.546v43.4c0 13.7-11.42 24.8-25.51 24.8-17.532 0-34.032-7.142-44.86-17.96 11.144-27.666 6.241-17.061 21.9-46.52 18.52 0 34.61-10.1 42.76-24.93 3.64 6.27 5.71 13.51 5.71 21.21z" fill="#f9cfac"/><path d="m367.041 104.996c-3.01 10.42-12.86 18.06-24.55 18.06-15.91 0-30.825-5.733-42.11-15.48 6.475-16.073 2.528-7.845 18.19-37.31 18.52 0 34.61-10.1 42.76-24.93 7.441 12.817 5.71 20.618 5.71 59.66z" fill="#ffe4cc"/><path d="m367.041 194.266c0 19.84-22.75 42.58-29.76 49.6-9.92 9.92-59.52 38.87-59.52 38.87l-79.36-9.11c51.227-35.432 84.261-94.775 98.68-156.46 6.152 5.839 13.581 10.45 21.38 13.39 15.337 11.493 11.041 8.272 18.82 14.11 12.22 11.264 29.76 32.962 29.76 49.6z" fill="#b3cec9"/><path d="m352.641 186.586c0 19.84-22.75 42.58-29.76 49.6-1.417 1.417-3.644 3.223-6.421 5.277-29.999 22.194-67.411 31.95-104.485 27.694l-6.455-.741c29.46-22.67 72.13-69.25 91.02-148.96 13.07 7.055-2.317-3.974 26.34 17.53 12.221 11.264 29.761 32.962 29.761 49.6z" fill="#cae0dd"/><path d="m495.901 28.146c-.49 4.96-2.86 9.55-6.39 13.08l-146.87 146.87c-8.204 8.203-21.557 8.223-29.76 0-8.197-8.198-8.241-21.519 0-29.76 20.188-20.188 79.756-79.756 102.56-102.56 8.42-8.42 14.53-18.71 17.93-29.9 3.186-10.475 13.818-18.021 26.71-14.74 13.846-13.848 37.756-2.79 35.82 17.01z" fill="#f9cfac"/><path d="m481.511 31.306-146.87 146.87c-7.165 7.165-18.301 8.108-26.49 2.68-2.94-7.54-1.36-16.43 4.73-22.52 39.737-39.737 69.983-69.983 102.56-102.56 8.42-8.42 14.53-18.71 17.93-29.9 3.186-10.475 13.818-18.021 26.71-14.74 6.982-6.983 18.074-8.249 26.48-2.67 2.983 7.532 1.414 16.376-5.05 22.84z" fill="#ffe4cc"/><path d="m349.041 31.716c-12.588 17.924-54.806 22.887-83.277 16.681-9.051-1.973-14.361-11.383-11.283-20.121 3.626-10.294 15.173-15.876 25.85-12.29 7.83 2.63 12.98 9.51 13.64 17.1 15.833-12.732 38.589-13.288 55.07-1.37z" fill="#797a7a"/></svg>