<svg id="Layer_1" enable-background="new 0 0 495.952 495.952" height="512" viewBox="0 0 495.952 495.952" width="512" xmlns="http://www.w3.org/2000/svg"><path d="m210.099 449.16c-4.861 5.056-10.54 9.229-17 12.37-11.837 5.726-20.922 5.81-30.34 5.81-1.906-3.944-5.769-7.672-10.68-9.41-16.523-5.848-16.899-6.448-22.45-6.17-16.829-20.949-10.525-52.158 11.78-64.77 14.472 7.996 23.96 23.512 23.96 41.11 30.048 15.974 17.964 10.255 44.73 21.06z" fill="#6d6d6d"/><path d="m227.369 406.03c0 16.929-6.79 32.167-17.27 43.13-26.393-10.654-15.36-5.448-44.73-21.06 0-17.68-9.571-33.188-23.96-41.11 12.287-7.144 18.623-5.49 62.11-5.49 13.186 0 23.85 10.987 23.85 24.53z" fill="#f9cfac"/><path d="m212.605 418.499c-5.328 12.698-19.853 18.778-32.626 13.631-.105-.042.902.48-14.76-7.85-1.12-14.25-8.47-26.68-19.25-34.41-1.02-1.27-2.1-2.47-3.24-3.61 11.74-6.271 17.796-4.76 60.79-4.76 4.01 0 7.79 1.02 11.11 2.82 6.818 10.908 3.031 22.131-2.024 34.179z" fill="#ffe4cc"/><path d="m163.909 482.78c-3.43 10.19-14.29 15.62-24.24 12.1l-14.66-5.16c-10.018-3.538-15.242-14.702-11.82-24.85 2.617-7.788 9.618-12.796 17.04-13.15 5.042-.153 5.865.546 21.85 6.21 10.024 3.551 15.241 14.676 11.83 24.85z" fill="#6d6d6d"/><path d="m187.979 440.12c-15.595 11.8-33.901 12.513-49.163 3.299-1.569-.947-16.735-6.125-16.837-6.159-5.954-19.447 2.399-40.64 19.43-50.27 14.472 7.996 23.96 23.512 23.96 41.11z" fill="#797a7a"/><path d="m148.909 467.42c-3.43 10.19-14.29 15.62-24.24 12.1l-12.12-4.26c-3.019-14.828 10.895-27.446 24.88-22.49l5.041 1.775c5.143 1.81 8.271 7.427 6.439 12.875z" fill="#797a7a"/><path d="m369.659 324.28c-.458 86.957-54.064 150.089-123.99 171.67-17.489 0-33.54-9.867-41.41-25.59-4.115-8.221-2.798-5.583-5.87-11.74 8.144-5.012 15.546-12.968 17.94-17.07 9.816-14.132 12.472-31.839 10.44-41.01l17.053-3.41c19.052-3.81 34.984-16.803 42.547-34.7.043-.101-.462 2.521 6.99-38.15z" fill="#b3cec9"/><path d="m337.669 324.28c-9.955 65.911-56.807 121.55-122 141.67-5.048 0-10.05-.824-14.84-2.44l-2.44-4.89c17.902-11.017 28.98-31.133 28.98-52.59 0-1.89-.21-3.73-.6-5.49l17.053-3.41c18.722-3.744 34.854-16.495 42.547-34.7l6.99-38.15z" fill="#cae0dd"/><path d="m369.659 320.16c0 13.581-8.63 31.632-16.53 42.27h-66.76c8.394-284.626 6.99-207.565 6.99-362.43 11.51 0 21.87 7.01 26.15 17.72l10.85 27.11c3.237 8.158-.615 17.133-8.39 20.57 0 8.19 19.654 130.012 31.16 211.19 0 0 2.22 3.28 6.99 12.6s9.54 21.11 9.54 30.97z" fill="#f9cfac"/><path d="m356.659 320.16c0 13.581-8.63 31.632-16.53 42.27h-53.76c8.405-285.025 6.99-209.145 6.99-359.25 5.86 3.05 10.59 8.13 13.15 14.54l10.85 27.11c3.237 8.158-.615 17.133-8.39 20.57 0 8.19 19.654 130.012 31.16 211.19 0 0 2.22 3.28 6.99 12.6s9.54 21.11 9.54 30.97z" fill="#ffe4cc"/><path d="m369.069 326.88-29.62 35.55h-53.08l6.99-238.44h36.68c18.828 120.468 13.771 86.854 23.09 152.6 0 0 2.22 3.28 6.99 12.6 6.161 12.037 11.105 24.822 8.95 37.69z" fill="#5fc68f"/><path d="m357.069 326.88-29.62 35.55h-41.08l6.99-238.44h24.68c18.828 120.468 13.771 86.854 23.09 152.6 0 0 2.22 3.28 6.99 12.6 6.161 12.037 11.105 24.822 8.95 37.69z" fill="#7adbae"/><path d="m383.819 351.22c0 6.36-2.07 12.78-6.4 18.19l-17.3 21.63-8.83 79.36c-5.42 15.5-20.149 25.664-36.57 25.55-76.987-.535-71.385.167-73.53-.22-16.798-2.971-20.052-25.885-4.58-33.34 6.801-3.281 13.437-4.561 20.77-4.58 57.955-.147 55.09-.28 55.54-.28.109-.483 18.387-84.633 18.59-85.57 40.274-48.34 38.042-45.682 38.15-45.79.102.101 14.16 7.482 14.16 25.05z" fill="#f9cfac"/><path d="m373.819 341.22c0 6.36-2.07 12.78-6.4 18.19l-17.3 21.63-8.83 79.36c-5.42 15.5-20.149 25.664-36.57 25.55-76.043-.529-72.578.541-76.9-1.18-3.378-8.547.412-18.343 8.79-22.38 12.524-6.041 16.844-4.71 76.04-4.86.436-.001-1.172 6.65 18.86-85.57 40.726-48.881 37.902-45.542 38.15-45.79 1.189 1.189 4.16 8.171 4.16 15.05z" fill="#ffe4cc"/></svg>