<svg id="Layer_1" enable-background="new 0 0 495.997 495.997" height="512" viewBox="0 0 495.997 495.997" width="512" xmlns="http://www.w3.org/2000/svg"><path d="m302.646 55.787c0 17.188-5.477 27.729-10.57 39.3-8.311 18.882-37.796 18.889-46.11 0-2.688-6.107-12.506-25.443-10.36-42.75 1.852-15.027 15.84-27.12 33.41-27.12 18.443 0 33.63 13.557 33.63 30.57z" fill="#f9cfac"/><path d="m302.436 52.337c-1.121 14.26-5.553 22.83-10.36 33.75-8.311 18.882-37.796 18.889-46.11 0-4.925-11.188-9.253-19.567-10.36-33.75 3.092-25.095 37.143-36.403 57.19-18.17 5.25 4.77 8.77 11.11 9.64 18.17z" fill="#ffe4cc"/><path d="m302.646 55.787c0 4.76-.47 9.52-1.42 14.19-9.564-28.93-54.936-28.83-64.41 0-.95-4.67-1.42-9.42-1.42-14.19 0-9.136 4.966-18.005 10.2-21.93 21.27-18.777 57.05-4.959 57.05 21.93z" fill="#6d6d6d"/><path d="m285.836 29.717h-33.63c0-13.274-.375-15.196 1.17-19.08 4.439-11.289 18.999-14.234 27.54-5.72 6.25 6.283 4.92 12.994 4.92 24.8z" fill="#6d6d6d"/><path d="m210.176 109.287c1.378 9.668 3.195 18.632 4.47 23.87 8.956 36.799 12.34 30.043 12.34 93.82h67.25l16.9-15.04c.745-62.411 9.509-51.997 16.73-102.65-43.497 0-74.011 0-117.69 0z" fill="#b3cec9"/><path d="m269.021 205.017c-18.919 0-34.506-15.035-35.071-34.05-.485-16.33-8.847-33.987-12.794-61.68h95.73c-3.909 27.423-11.693 41.26-12.77 60.86-1.147 20.876-16.951 34.87-35.095 34.87z" fill="#cae0dd"/><path d="m235.396 126.097c0 9.252-7.503 16.82-16.82 16.82h-159.3c-15.204 0-22.966-18.064-12.32-28.71 3.05-3.04 7.25-4.92 11.89-4.92 2.56-5.12 7.69-8 12.95-8 9.333 0 9.827 8 27.65 8h119.13c9.331 0 16.82 7.58 16.82 16.81z" fill="#f9cfac"/><path d="m393.906 197.087c-18.03 22.58-39.89 49.39-58.72 70.93-14.534 16.651-35.618 26.22-57.76 26.22l-6.73 134.51h-39.25c-4.73-41.1-10.47-68.44-12.87-92.48-8.402-84.059 8.41-92.456 8.41-109.29h67.25c21.938-19.523 8.029-7.147 68.56-61z" fill="#5fc68f"/><path d="m362.796 165.977c14.203 14.203 15.306 36.874 2.534 52.376-10.23 12.417-20.579 24.719-30.144 35.664-14.534 16.651-35.618 26.22-57.76 26.22l-5.713 114.183c-.57 11.387-9.968 20.327-21.37 20.327-10.675 0-19.783-7.899-21.21-18.583-5.751-43.06-12.865-68.268-12.827-108.677.037-39.833 10.68-47.74 10.68-60.51h67.25c69.974-62.272 68.663-60.896 68.56-61z" fill="#7adbae"/><path d="m270.696 428.747-1.68 33.62v17.63c0 8.837-7.163 16-16 16h-44.224c-4.052 0-7.067-4.064-5.486-8 2.51-6.28 7.91-11.18 14.77-12.89l17.32-4.33c-1.14-15.51-2.49-29.42-3.95-42.03z" fill="#f9cfac"/><path d="m262.296 428.747-1.28 25.62v17.63c0 8.837-7.163 16-16 16h-28.945c-6.134 0-8.189-8.247-2.751-11.086 2.987-1.56 3.376-1.459 22.076-6.134-1.14-15.51-2.49-29.42-3.95-42.03z" fill="#ffe4cc"/><path d="m442.006 109.167-3.79 33.75h-118.76c-10.679 0-18.665-9.842-16.44-20.32 1.611-7.677 8.425-13.31 16.44-13.31 122.832 0 120.262.056 122.55-.12z" fill="#f9cfac"/><path d="m235.026 122.597c-1.579 7.525-8.292 13.32-16.45 13.32h-159.3c-8.16 0-15.22-5.68-16.87-13.35 1.63-7.631 8.399-13.28 16.44-13.28 3.916-7.831 13.835-10.423 21.09-5.48 5.26 3.57 10.96 5.48 19.51 5.48h119.13c8.09 0 14.84 5.71 16.45 13.31z" fill="#ffe4cc"/><path d="m441.216 109.217-3 26.7h-118.76c-8.09 0-14.84-5.71-16.44-13.32 1.611-7.677 8.425-13.31 16.44-13.31 127.537 0 120.034.033 121.76-.07z" fill="#ffe4cc"/><path d="m293.316 34.667c-11.658 7.454-37.504 6.996-47.72-.81 14.262-12.591 36.913-10.617 47.72.81z" fill="#797a7a"/><path d="m285.096 11.887c-8.646 5.952-24.4 5.355-31.72-1.25 5.835-14.839 27.193-13.803 31.72 1.25z" fill="#797a7a"/><path d="m441.506 139.627c-17.979 17.891-.473-1.437-47.6 57.46l-31.11-31.11 44.03-39.19 5.94-41.61c7.959-7.959 21.526-4.336 24.47 6.49l8.63 31.63c1.59 5.83-.075 12.066-4.36 16.33z" fill="#f9cfac"/><path d="m429.176 137.947c-10.552 10.514 2.52-3.836-42.27 52.14l-24.11-24.11 44.03-39.19 5.94-41.61c4.69-4.69 11.32-5.36 16.59-2.9.759 1.582.334.387 7.71 27.44-13.115 3.084-16.045 19.935-7.89 28.23z" fill="#ffe4cc"/><path d="m453.966 117.287v17.63c0 4.41-3.58 8-8 8-10.394 0-17.22-6.348-17.22-17.63 0-17.5 25.22-21.453 25.22-8z" fill="#f9cfac"/><path d="m449.966 130.917c0 4.41-3.58 8-8 8-3.749 0-6.868-.43-10.36-2.87-2.564-3.69-2.86-6.903-2.86-10.76 0-12.946 14.027-18.272 20.51-15.29.941 2.046.71 1.537.71 20.92z" fill="#ffe4cc"/></svg>