<svg id="Layer_1" enable-background="new 0 0 496.112 496.112" height="512" viewBox="0 0 496.112 496.112" width="512" xmlns="http://www.w3.org/2000/svg"><path d="m272.419 264c-62.168 0-55.731.362-56.63-.84-5.537-7.401-13.23-23.017-13.23-34.61 0-8.27 4-18.16 8-25.98s5.86-10.57 5.86-10.57l19.37-96h30.77z" fill="#5fc68f"/><path d="m211.309 256c-.101 0-8.75-15.078-8.75-27.45 0-8.27 4-18.16 8-25.98s5.86-10.57 5.86-10.57l19.37-96h23.05l3.729 106.922c1.012 29.01-22.231 53.078-51.259 53.078z" fill="#7adbae"/><path d="m266.559 0v96h-30.77c7.495-44.283 6.77-39.513 6.77-41.14-6.521-2.88-9.749-10.423-7.04-17.26l9.1-22.74c3.554-8.877 12.163-14.86 21.94-14.86z" fill="#f9cfac"/><path d="m256.059 2.46v93.54h-20.27c7.495-44.283 6.77-39.513 6.77-41.14-6.521-2.88-9.749-10.423-7.04-17.26l9.1-22.74c2.21-5.52 6.34-9.87 11.44-12.4z" fill="#ffe4cc"/><path d="m284.839 368.06c-2.19 7.31-6.73 11.27-11.02 15.72-11.671-9.684-29.386 1.112-25.75 16.08-5.589-1.292-16.889-.281-26.9 4.45-7.135-20.932-5.11-26.648-5.11-140.31h56c9.209 64.466 9.77 61.299 13.69 73.06 3.282 9.846 3.153 20.805-.91 31z" fill="#b3cec9"/><path d="m280.059 339.32c0 42.401-48.385 36.354-63.08 47.29-.61-4.35-.92-8.77-.92-13.2 0-111.068.1-109.41 0-109.41 27.789 0 51.745 19.558 57.312 46.784 1.975 9.656 6.688 16.368 6.688 28.536z" fill="#cae0dd"/><path d="m259.459 471.45c-10.675 18.818-36.852 23.93-54.33 9.88.135-2.299-.052-4.274-.85-6.54-4.098-11.628-4.995-17.641-12.22-21.25 0-8.06.062-15.511 4.87-25.45 2.641-5.454 6.268-10.294 10.38-14.26 8.991 22.314 5.036 13.76 17.66 37.52 14.94 0 27.91 8.14 34.49 20.1z" fill="#6d6d6d"/><path d="m264.059 419.35c0 36.128 1.381 41.791-4.6 52.1-6.462-11.773-19.385-20.1-34.49-20.1-12.626-23.764-8.668-15.205-17.66-37.52 12.467-11.944 30.951-16.238 40.76-13.97 9.089 1.989 15.99 9.91 15.99 19.49z" fill="#f9cfac"/><path d="m249.059 419.35c0 37.397.138 36.464-.35 39.82-6.58-4.91-14.81-7.82-23.74-7.82-12.626-23.764-8.668-15.205-17.66-37.52 7.642-7.321 17.062-11.931 26.94-13.67 8.557 2.397 14.81 10.091 14.81 19.19z" fill="#ffe4cc"/><path d="m205.179 480c0 18.043-25.921 22.137-31.89 5.21-4.541-12.878-4.955-13.555-5.18-16.26-1.014-12.623 12.665-21.332 23.95-15.528 3.506 1.751 6.667 5.057 8.094 9.078.049.1-.195-.334 4.24 12.25.609 1.73.786 3.52.786 5.25z" fill="#6d6d6d"/><path d="m320.049 493.85c-5.186 3.004-.26 2.15-102.03 2.15-8.915 0-16.349-7.106-16.41-15.87-.06-8.943 7.137-16.13 16-16.13 3.728-7.455 13.156-9.906 20.07-5.22 9.552 6.514 15.924 5.22 46.66 5.22-38.11-66.015-35.554-61.151-36.27-64.14-3.618-14.891 14.005-25.826 25.75-16.08 3.206 2.646-.413-2.672 52.09 88.22 4.419 7.65 1.8 17.44-5.86 21.85z" fill="#f9cfac"/><path d="m304.049 485.85c-5.188 3.005-.452 2.15-100.22 2.15-6.213-10.325 1.247-24 13.78-24 2.44-4.88 7.32-7.61 12.33-7.61 8.897 0 9.376 7.61 26.3 7.61h28.1c-6.152-10.657-29.229-50.662-34.57-59.89-5.687-9.826.448-22.355 11.78-23.87 8.035 13.917 41.094 71.181 48.36 83.76 4.419 7.65 1.8 17.44-5.86 21.85z" fill="#ffe4cc"/></svg>