<svg id="Layer_1" enable-background="new 0 0 496.027 496.027" height="512" viewBox="0 0 496.027 496.027" width="512" xmlns="http://www.w3.org/2000/svg"><path d="m213.804 464.901c0-17.667 5.757-28.624 10.756-39.978 8.455-19.202 38.446-19.214 46.906 0 5.635 12.798 10.756 22.812 10.756 39.978 0 27.513-36.842 41.592-58.4 21.993-6.188-5.626-10.018-13.402-10.018-21.993z" fill="#ffe4cc"/><path d="m282.222 464.901c0 17.008-15.134 31.099-34.209 31.099-18.714 0-34.209-13.763-34.209-31.099 0-6.054.794-12.632 2.469-18.861 11.538 25.928 52.05 25.878 63.48-.02 1.619 6.026 2.469 12.642 2.469 18.881z" fill="#f9cfac"/><path d="m290.773 290.76h-85.52c-9.911-61.389-1.879-98.83 7.87-171.04h69.78c8.874 65.731 18.069 107.869 7.87 171.04z" fill="#7adbae"/><path d="m288.543 56.92-4.54-40.86c-1.01-9.14-8.74-16.06-17.94-16.06-9.887 0-18.05 8.011-18.05 18.05 0-10.043-8.168-18.05-18.05-18.05-9.2 0-16.93 6.92-17.94 16.06l-4.54 40.86c-.92 8.25 3.85 15.7 11.02 18.68l-5.38 44.12h69.78l-5.38-44.12c7.17-2.98 11.94-10.43 11.02-18.68z" fill="#ffe4cc"/><path d="m282.222 464.901c0 17.008-15.134 31.099-34.209 31.099-18.714 0-34.209-13.763-34.209-31.099 0-4.56.429-9.101 1.269-13.581 1.6 5.2 4.66 9.86 8.75 13.57 18.594 16.911 50.162 9.078 57.13-13.57.84 4.47 1.269 9.011 1.269 13.581z" fill="#6d6d6d"/><path d="m276.243 410.48h-56.33c-16.82 0-29.79-14.81-27.58-31.48.401-3.025.37-2.698.37-2.72 8.818-37.337 12.55-20.145 12.55-85.52h85.52c0 62.818 2.54 48.016 12.57 85.6 4.236 15.872-8.28 34.12-27.1 34.12z" fill="#b3cec9"/><path d="m302.883 374.49c-3.44 11.18-13.89 19.66-26.64 19.66h-56.33c-12.77 0-23.33-8.54-26.7-19.96 8.58-34.77 12.04-19.79 12.04-83.43h85.52c0 63.82 3.48 48.58 12.11 83.73z" fill="#cae0dd"/><path d="m248.013 51.31v188.138" style="fill:none;stroke:#000;stroke-width:16;stroke-linecap:round;stroke-linejoin:round;stroke-miterlimit:10"/><path d="m256.013 3.05v116.67h-16v-116.67c4.923 3.315 8 8.861 8 15 0-6.153 3.09-11.693 8-15z" fill="#f9cfac"/><path d="m256.013 119.72v119.73c0 4.42-3.58 8-8 8s-8-3.58-8-8v-119.73z" fill="#5fc68f"/><path d="m318.433 212.88v179.46c0 5.01-2.03 9.54-5.31 12.83-11.372 11.339-30.97 3.338-30.97-12.83v-125.04c0-10.26-2.55-20.27-7.3-29.16-4.489-8.397-2.431-19.548 7.3-25.26 0-9.957 8.058-18.14 18.14-18.14 10.108 0 18.14 8.204 18.14 18.14z" fill="#f9cfac"/><path d="m221.173 238.14c-4.75 8.89-7.3 18.9-7.3 29.16v125.04c0 16.184-19.605 24.161-30.97 12.83-3.28-3.29-5.31-7.82-5.31-12.83v-179.46c0-9.947 8.045-18.14 18.14-18.14 10.087 0 18.14 8.189 18.14 18.14 9.656 5.668 11.831 16.785 7.3 25.26z" fill="#f9cfac"/><g fill="#ffe4cc"><path d="m318.433 212.88v167.61c0 8.874-6.355 16.223-14.7 17.81-8.37-1.61-14.69-8.97-14.69-17.81v-125.04c0-18.134-7.328-28.212-8.6-32.22 1.425-4.36 4.204-7.77 8.6-10.35 0-8.614 6.078-16.13 14.68-17.81 1.433 0 6.08 1.673 9.4 4.98 3.4 3.41 5.31 8.02 5.31 12.83z"/><path d="m215.653 223.23c-1.252 3.944-8.6 14.161-8.6 32.22v125.04c0 8.85-6.34 16.229-14.73 17.81-8.433-1.575-14.73-9.001-14.73-17.81v-167.61c0-8.657 6.138-16.176 14.73-17.82 8.603 1.646 14.73 9.175 14.73 17.82 4.397 2.581 7.176 5.99 8.6 10.35z"/></g></svg>