<svg id="Layer_1" enable-background="new 0 0 498.829 498.829" height="512" viewBox="0 0 498.829 498.829" width="512" xmlns="http://www.w3.org/2000/svg"><path d="m288.887 378.575c-16.544 20.085-39.979 40.735-40.785 40.735-.23.23-9.356-7.822-13.725-11.89-119.681-110.968-114.904-281.575 13.63-388.03 118.079 97.796 131.452 249.225 40.88 359.185z" fill="#f6a1ff"/><path d="m346.337 191.42c-5.51 46.12-24.657 91.332-57.45 131.15-16.543 20.086-39.984 40.74-40.79 40.74-.101.101-85.417-63.08-98.42-171.92 7.493-62.699 40.167-123.828 98.33-172 53.605 44.397 90.266 104.088 98.33 172.03z" fill="#f9cafc"/><path d="m248.007 417.39c-.994.97-9.43 12.233-25.32 25.35-.662 0-55.118 51.634-133.69 32.41-35.161-8.602-65.524-29.44-88.99-57.76 6.935-9.247 23.367-25.291 40.27-36.38 63.247-41.521 143.921-32.804 200.31 27.92 5.35 5.755 7.102 8.149 7.42 8.46z" fill="#5fc68f"/><path d="m221.367 390.97c-59.338 71.801-152.467 81.92-221.26 26.3 59.659-71.932 152.591-81.782 221.26-26.3z" fill="#7adbae"/><path d="m496.007 417.39c-.994.97-9.43 12.233-25.32 25.35-.662 0-55.118 51.634-133.69 32.41-35.161-8.602-65.524-29.44-88.99-57.76 31.259-37.747 74.889-62 124-62 61.459 0 96.855 36.65 98.7 36.65 16.124 13.329 24.201 24.278 25.3 25.35z" fill="#5fc68f"/><path d="m495.987 417.41c-68.664 56.428-162.396 47.184-222.54-25.46 63.998-52.844 153.492-49.407 215.14 16.98 3.08 3.314 7.498 8.38 7.4 8.48z" fill="#7adbae"/><path d="m189.337 84.34c-16.35 24.91-27.85 51.42-34.49 78.59-22.75-11.83-47.86-20.34-74.82-25.01 3.66-29.32 12.34-59.29 26.45-89.05 30.86 8.06 58.6 20.14 82.86 35.47z" fill="#f6a1ff"/><path d="m416.047 138.42c-26.9 4.94-51.92 13.72-74.56 25.83-6.58-27.63-18.19-54.6-34.81-79.91 24.26-15.33 52-27.41 82.86-35.47 14.19 29.93 22.89 60.07 26.51 89.55z" fill="#f6a1ff"/><path d="m249.417 419.34c-.141.001.108.006-1.315-.03 83.469-69.198 114.801-165.509 93.385-255.06 48.064-25.709 102.536-34.151 155.94-29.1 15.221 161.983-95.195 282.847-248.01 284.19z" fill="#f6a1ff"/><path d="m278.687 390.29c4.202-4.479 9.969-11.434 10.2-11.715 0-1.195 82.737-88.304 52.6-214.325 46.082-24.649 98.014-33.419 149.31-29.65 1.742 134.099-85.146 236.773-212.11 255.69z" fill="#f9cafc"/><path d="m247.907 419.31c-152.362-3.469-261.628-123.07-246.51-284.16 52.882-5.024 106.306 3.265 153.45 27.78-23.849 97.415 15.429 191.884 93.06 256.38z" fill="#f6a1ff"/><path d="m210.597 382.69c-118.332-21.874-201.71-118.694-202.58-248.09 50.506-3.699 101.358 4.684 146.83 28.33-19.977 81.6 4.928 160.779 55.75 219.76z" fill="#f9cafc"/><g fill="#f6a1ff"><path d="m248.007 171.39c4.418 0 8-3.582 8-8v-32c0-4.418-3.582-8-8-8s-8 3.582-8 8v32c0 4.418 3.582 8 8 8z"/><path d="m437.312 205.66c-3.309-2.931-8.365-2.624-11.293.684l-28.114 31.742c-4.575 5.166-.852 13.305 5.985 13.305 2.21 0 4.411-.911 5.991-2.695l28.114-31.742c2.93-3.309 2.623-8.366-.683-11.294z"/><path d="m389.312 259.853c-3.309-2.931-8.364-2.623-11.293.684l-122.012 137.755v-186.902c0-4.418-3.582-8-8-8s-8 3.582-8 8v186.902l-122.011-137.755c-2.93-3.307-7.986-3.613-11.293-.684-3.308 2.929-3.614 7.985-.685 11.293 0 0 105.131 118.697 135.595 153.091.985 1.256 2.55 2.462 4.57 2.936 4.097.951 9.611-.726 10.879-5.941l132.933-150.086c2.93-3.308 2.623-8.364-.683-11.293z"/><path d="m69.996 206.343c-2.931-3.306-7.986-3.613-11.293-.684-3.308 2.929-3.614 7.985-.685 11.293l28.114 31.742c1.581 1.784 3.781 2.695 5.992 2.695 6.841 0 10.556-8.144 5.986-13.305z"/></g></svg>