<svg id="Layer_1" enable-background="new 0 0 504 504" height="512" viewBox="0 0 504 504" width="512" xmlns="http://www.w3.org/2000/svg"><path d="m424 448h-24c-22.056 0-40-17.944-40-40 0-4.418 3.582-8 8-8s8 3.582 8 8c0 13.233 10.767 24 24 24h24c35.29 0 64-28.71 64-64v-40c0-35.29-28.71-64-64-64h-24c-13.233 0-24 10.767-24 24 0 4.418-3.582 8-8 8s-8-3.582-8-8c0-22.056 17.944-40 40-40h24c44.112 0 80 35.888 80 80v40c0 44.112-35.888 80-80 80z" fill="#b3cec9"/><path d="m351.945 172c0 64.07-78.745 116-175.945 116s-176-51.93-176-116 78.8-116 176-116 175.945 51.93 175.945 116z" fill="#7adbae"/><g style="fill:none;stroke:#000;stroke-width:16;stroke-linecap:round;stroke-linejoin:round;stroke-miterlimit:10"><path d="m176 240c-73.26 0-128-35.9-128-68s54.74-68 128-68 128 35.9 128 68-54.74 68-128 68z"/><path d="m101.562 172c36.092-26.522 112.751-26.548 148.877 0-36.092 26.522-112.752 26.548-148.877 0z"/><path d="m176 240c-73.26 0-128-35.9-128-68s54.74-68 128-68 128 35.9 128 68-54.74 68-128 68z"/><path d="m101.562 172c36.092-26.522 112.751-26.548 148.877 0-36.092 26.522-112.752 26.548-148.877 0z"/><path d="m176 240c-73.26 0-128-35.9-128-68s54.74-68 128-68 128 35.9 128 68-54.74 68-128 68z"/><path d="m101.562 172c36.092-26.522 112.751-26.548 148.877 0-36.092 26.522-112.752 26.548-148.877 0z"/></g><path d="m408 304v88c0 8.84-7.16 16-16 16h-216c-92.969 0-176-49.4-176-116v-120l176 116c231.449 0 216.527-.083 218.18.15 7.81 1.06 13.82 7.75 13.82 15.85z" fill="#5fc68f"/><path d="m394.33 378.33c0 8.84-7.16 16-16 16h-216c-61.357 0-110.606-20.349-139.86-45.57-14.31-16.77-22.47-36.14-22.47-56.76v-120l176 116c231.449 0 216.527-.083 218.18.15.226 1.605.15-3.59.15 90.18z" fill="#7adbae"/><path d="m351.945 172v116h-175.945c97.2 0 175.945-51.93 175.945-116z" fill="#5fc68f"/><path d="m368 384c-4.418 0-8-3.582-8-8v-56c0-4.418 3.582-8 8-8s8 3.582 8 8v56c0 4.418-3.582 8-8 8z" fill="#5fc68f"/><path d="m351.945 172c0 64.07-78.745 116-175.945 116s-176-51.93-176-116c0-68.884 86.243-116 176-116 90.354 0 175.945 47.764 175.945 116z" fill="#5fc68f"/><path d="m351.65 164.67c-5.74 60.65-82.19 108.66-175.65 108.66s-169.91-48.01-175.65-108.66c5.73-60.65 82.19-108.67 175.65-108.67s169.92 48.02 175.65 108.67z" fill="#7adbae"/><path d="m176 248c-108.494 0-187.37-76.714-95.427-128.992 26.096-14.837 59.986-23.008 95.427-23.008 108.494 0 187.37 76.714 95.427 128.992-26.096 14.837-59.986 23.008-95.427 23.008zm0-136c-73.253 0-120 35.536-120 60s46.747 60 120 60 120-35.536 120-60-46.747-60-120-60z" fill="#5fc68f"/><path d="m96.824 178.446c-4.341-3.19-4.353-9.694 0-12.893 38.907-28.591 119.382-28.638 158.352 0 4.341 3.19 4.353 9.694 0 12.893-38.907 28.592-119.382 28.638-158.352 0zm20.454-6.446c33.34 15.993 84.162 15.965 117.443 0-33.339-15.993-84.161-15.965-117.443 0z" fill="#5fc68f"/></svg>