<svg id="Layer_1" enable-background="new 0 0 496 496" height="512" viewBox="0 0 496 496" width="512" xmlns="http://www.w3.org/2000/svg"><path d="m192 96v-40c0-30.93 25.07-56 56-56 30.932 0 56 25.079 56 56v40z" fill="#7adbae"/><path d="m304 336v104c0 30.93-25.07 56-56 56s-56-25.07-56-56v-104z" fill="#7adbae"/><path d="m448 96h-400c-26.51 0-48 21.49-48 48v144c0 26.51 21.49 48 48 48h400c26.51 0 48-21.49 48-48v-144c0-26.51-21.49-48-48-48z" fill="#b3cec9"/><path d="m448 96h-400c-26.51 0-48 21.49-48 48v112c0 26.51 21.49 48 48 48h400c26.51 0 48-21.49 48-48v-112c0-26.51-21.49-48-48-48z" fill="#cae0dd"/><path d="m168 227.26c0 21.67-16.345 42.74-45.26 42.74-27.779 0-48.221-26.136-41.46-53.1l15.91-63.68c4-16 18.38-27.22 34.87-27.22 19.809 0 35.94 16.06 35.94 35.94z" fill="#b3cec9"/><path d="m373.26 270c-28.94 0-45.26-21.136-45.26-42.74v-65.32c0-9.92 4.02-18.91 10.53-25.41 19.57-19.6 53.474-10.542 60.28 16.69 17.13 68.54 17.19 66.915 17.19 74.04 0 23.61-19.13 42.74-42.74 42.74z" fill="#b3cec9"/><circle cx="248" cy="440" fill="#5fc68f" r="56"/><circle cx="248" cy="440" fill="#7adbae" r="24"/></svg>