<svg id="Layer_1" enable-background="new 0 0 496 496" height="512" viewBox="0 0 496 496" width="512" xmlns="http://www.w3.org/2000/svg"><circle cx="248" cy="248" fill="#cae0dd" r="248"/><path d="m496 248c0 136.97-111.03 248-248 248s-248-111.03-248-248c0-137.552 111.622-248 248-248 136.577 0 248 110.668 248 248z" fill="#6cc2dd"/><path d="m248 476c-176.158 0-295.577-183.434-221.38-339.9 38.784-81.787 124.67-136.1 221.38-136.1s182.596 54.313 221.38 136.1c74.129 156.321-45.121 339.9-221.38 339.9z" fill="#83d3f2"/><g fill="#e1f8ff"><path d="m320.171 438.355 47.689-227.095-119.86-46.53-119.86 46.53 47.689 227.095c1.792 8.534-9.534 13.367-14.444 6.143l-136-200c-2.892-4.251-1.072-10.094 3.72-11.956l80.586-31.283-21.52-102.472c-1.304-6.207 4.811-11.396 10.725-9.103l149.104 57.883 149.104-57.883c5.914-2.294 12.028 2.897 10.725 9.103l-21.52 102.472 80.586 31.283c4.793 1.862 6.611 7.705 3.72 11.956l-136 200c-4.874 7.172-16.247 2.444-14.444-6.143zm62.807-221.226-38.828 184.895 107.58-158.205zm-338.707 26.689 107.58 158.205-38.828-184.895zm225.835-87.67 101.087 39.242 17.944-85.45zm-163.244-46.208 17.944 85.45 101.087-39.242z"/><path d="m432 376h-368c-6.107 0-9.965-6.587-6.978-11.914l184-328c3.04-5.417 10.886-5.469 13.955 0l184 328c2.988 5.326-.87 11.914-6.977 11.914zm-354.34-16h340.68l-170.34-303.648z"/></g></svg>