<svg id="Layer_1" enable-background="new 0 0 496 496" height="512" viewBox="0 0 496 496" width="512" xmlns="http://www.w3.org/2000/svg"><path d="m431.17 297.13c23.617-21.057 34.886-49.01 64.83-49.01-29.927 0-41.22-28.069-64.86-49.15l-49.01-85.04c-6.42-30.99-25-54.75-10.03-80.65-14.99 25.93-44.89 21.625-74.99 31.565h-98.15c-30.05-9.93-59.91-5.755-74.86-31.675 14.96 25.95-3.69 49.71-10.12 80.74l-49.15 84.96c-23.617 21.057-34.886 49.01-64.83 49.01 29.927 0 41.22 28.069 64.86 49.15l49.01 85.04c6.42 30.99 25 54.75 10.03 80.65 14.99-25.93 44.89-21.625 74.99-31.565h98.15c30.05 9.93 59.91 5.755 74.86 31.675-14.96-25.95 3.69-49.71 10.12-80.74z" fill="#f6a1ff"/><path d="m404.031 289.851c20.118-17.937 29.718-41.748 55.225-41.748-25.493 0-35.113-23.91-55.25-41.868l-41.749-72.44c-5.469-26.398-21.296-46.638-8.544-68.701-12.769 22.088-38.239 18.421-63.879 26.888h-83.608c-25.598-8.459-51.034-4.902-63.769-26.982 12.743 22.105-3.143 42.345-8.621 68.777l-41.868 72.372c-20.118 17.937-29.718 41.749-55.225 41.749 25.493 0 35.113 23.91 55.25 41.868l41.749 72.44c5.469 26.398 21.296 46.638 8.544 68.701 12.769-22.088 38.239-18.421 63.879-26.888h83.608c25.598 8.459 51.034 4.902 63.768 26.982-12.743-22.105 3.143-42.345 8.621-68.777z" fill="#f6bbff"/><path d="m176.08 372.56c2.694 75.466 71.92 76.372 71.92 123.44 0-47.035 69.231-48.022 71.92-123.44 66.658 35.404 102.096-24.095 142.85-.56-40.739-23.531-6.957-83.981-70.95-124 63.997-40.008 30.206-100.462 70.95-124-40.735 23.529-76.168-35.959-142.85-.56-2.694-75.466-71.92-76.372-71.92-123.44 0 47.035-69.231 48.022-71.92 123.44-66.658-35.404-102.096 24.095-142.85.56 40.739 23.531 6.957 83.981 70.95 124-63.997 40.008-30.206 100.462-70.95 124 40.735-23.529 76.168 35.959 142.85.56z" fill="#c172b2"/><path d="m186.52 354.479c2.303 64.511 61.48 65.285 61.48 105.521 0-40.207 59.182-41.051 61.48-105.521 56.982 30.265 87.275-20.597 122.114-.479-34.826-20.115-5.947-71.79-60.651-106 54.707-34.201 25.821-85.879 60.651-106-34.822 20.113-65.111-30.739-122.114-.479-2.303-64.511-61.48-65.285-61.48-105.521 0 40.207-59.182 41.051-61.48 105.521-56.982-30.265-87.275 20.598-122.114.479 34.826 20.115 5.947 71.79 60.651 106-54.707 34.201-25.821 85.879-60.651 106 34.822-20.113 65.111 30.739 122.114.479z" fill="#d690cc"/><g fill="#895982"><path d="m208 332.288c-23.929 0-46.988-16.387-59.059-36.502l-8.373-13.956c-2.272-3.789-1.044-8.703 2.744-10.977 3.791-2.271 8.703-1.044 10.977 2.744l8.373 13.956c25.548 42.582 78.622 32.808 73.549 2.375-1.732-10.388-10.632-17.928-21.164-17.928h-15.047c-8.412 0-11.1-11.394-3.578-15.155l25.801-12.9c17.794-8.896 11.512-35.944-8.484-35.944h-53.739c-4.418 0-8-3.582-8-8s3.582-8 8-8h53.738c14.385 0 27.131 8.63 32.472 21.985 6.37 15.926.331 35.688-17.459 44.583 36.907 14.42 31.291 73.719-20.751 73.719z"/><path d="m314.844 336h-7.451c-26.152 0-39.013-31.693-20.71-49.997l3.66-3.66c3.125-3.123 8.189-3.123 11.314 0 3.124 3.125 3.124 8.189 0 11.314l-3.66 3.66c-4.463 4.463-5.161 11.514-1.66 16.766 4.572 6.855 11.075 5.917 18.507 5.917 5.065 0 9.619-2.814 11.885-7.346 10.507-21.016 11.553-44.352.701-69.678-5.821-13.585-24.599-14.813-32.175-2.185-11.55 19.251-32.671 31.209-55.119 31.209h-24.136c-4.418 0-8-3.582-8-8s3.582-8 8-8h24.136c16.861 0 32.724-8.981 41.398-23.439 14.228-23.717 49.614-21.534 60.602 4.113 12.71 29.667 11.519 57.904-1.097 83.136-4.994 9.987-15.031 16.19-26.195 16.19z"/><path d="m249.741 190.838-30.739-24.591c-3.449-2.76-4.009-7.795-1.249-11.245 2.761-3.449 7.795-4.007 11.245-1.249l30.738 24.591c12.481 9.986 31.118 6.36 38.821-7.862l5.266-9.721c2.104-3.886 6.961-5.329 10.845-3.224 3.885 2.104 5.328 6.96 3.224 10.845l-5.266 9.721c-12.481 23.04-42.669 28.906-62.885 12.735z"/><path d="m272 160h-8c-4.418 0-8-3.582-8-8s3.582-8 8-8h8c4.418 0 8 3.582 8 8s-3.582 8-8 8z"/></g></svg>