<svg id="Layer_1" enable-background="new 0 0 496 496" height="512" viewBox="0 0 496 496" width="512" xmlns="http://www.w3.org/2000/svg"><path d="m136 136c-93.5-48-81.6 112-136 112 54.4 0 42.5 160 136 112h224c93.5 48 81.6-112 136-112-54.4 0-42.5-160-136-112z" fill="#5e96ea"/><path d="m151.722 151.722c-80.375-41.262-70.145 96.278-116.909 96.278 46.763 0 36.534 137.54 116.909 96.278h192.555c80.375 41.262 70.146-96.278 116.909-96.278-46.764 0-36.534-137.54-116.909-96.278z" fill="#7aacf4"/><circle cx="248" cy="248" fill="#5e96ea" r="160"/><circle cx="248" cy="248" fill="#7aacf4" r="136"/><path d="m248 408-136-240h272z" fill="#6cc2dd"/><path d="m139.457 184h217.085l-108.542 191.547z" fill="#83d3f2"/><g fill="#4d7abc"><path d="m258.353 310.908c-20.998 0-41.645-15.042-51.119-32.472-2.523-4.642-7.377-7.527-12.665-7.527-4.418 0-8-3.582-8-8s3.582-8 8-8c11.154 0 21.397 6.086 26.723 15.888 4.767 8.773 13.855 17.305 25.049 21.783 16.513 6.605 37.002-1.216 34.193-18.072-1.334-8.007-8.195-13.818-16.312-13.818h-12.534c-7.972 0-11.025-10.452-4.305-14.743l19.537-12.475c13.287-8.485 7.297-29.201-8.528-29.201-21.651 0-19.095-1.428-31.51 10.985-3.124 3.123-8.189 3.123-11.313 0-3.125-3.125-3.125-8.19 0-11.314 17.149-17.15 19.295-15.671 42.824-15.671 31.61 0 43.845 41.273 17.397 58.521 32.438 12.258 27.599 64.116-17.437 64.116z"/><path d="m225.574 142.05c-3.342-2.891-3.707-7.942-.816-11.284s7.943-3.708 11.284-.815c8.889 7.689 21.787 8.083 31.104.97 3.512-2.682 8.533-2.007 11.213 1.505 2.681 3.513 2.007 8.533-1.505 11.214-15.317 11.689-36.644 11.073-51.28-1.59z"/><path d="m255.884 128h-8c-4.418 0-8-3.582-8-8s3.582-8 8-8h8c4.418 0 8 3.582 8 8s-3.581 8-8 8z"/></g></svg>