<svg id="Layer_1" enable-background="new 0 0 496 496" height="512" viewBox="0 0 496 496" width="512" xmlns="http://www.w3.org/2000/svg"><g fill="#edac5f"><path d="m160.01 95.59c-.01.13-.01.27-.01.41z"/><path d="m336 96c0-.14 0-.28-.01-.41z"/><path d="m160.01 95.59c-.01.13-.01.27-.01.41z"/><path d="m336 96c0-.14 0-.28-.01-.41z"/><path d="m72.36 248.21c-.12-.07-.24-.14-.36-.21z"/><path d="m160.36 95.79c-.12-.07-.23-.13-.35-.2z"/><path d="m72.36 248.21c-.12-.07-.24-.14-.36-.21z"/><path d="m160.36 95.79c-.12-.07-.23-.13-.35-.2z"/><path d="m335.99 95.59c-.12.07-.23.13-.35.2z"/><path d="m424 248c-.12.07-.24.14-.36.21z"/><path d="m335.99 95.59c-.12.07-.23.13-.35.2z"/><path d="m424 248c-.12.07-.24.14-.36.21z"/><path d="m462.77 372c-33.18-19.16-69.43 61.11-126.78 28.41.01-.13.01-.27.01-.41-.458.267-.459.147-.01.41-.34 66.004-87.99 57.273-87.99 95.59 0-38.32-87.63-29.58-87.99-95.59.12-.07.23-.13.35-.2-.418-.244-.391-.333-.35.2-57.343 32.706-93.588-47.571-126.78-28.41 33.18-19.16-18.2-90.68 38.77-124-56.982-33.331-5.586-104.825-38.77-124 33.18 19.16 69.43-61.11 126.78-28.41.34-66.004 87.99-57.273 87.99-95.59 0 38.32 87.63 29.58 87.99 95.59 57.343-32.706 93.588 47.571 126.78 28.41-33.18 19.16 18.2 90.68-38.77 124 56.982 33.331 5.586 104.825 38.77 124z"/></g><path d="m433.326 355c-28.631-16.533-59.911 52.732-109.399 24.515.009-.113.009-.233.009-.354-.397.232-.396.127-.009.354-.294 56.955-75.927 49.421-75.927 82.485 0-33.066-75.616-25.525-75.927-82.485.103-.061.198-.113.302-.173-.361-.211-.337-.288-.302.173-49.481 28.222-80.757-41.049-109.399-24.515 28.631-16.533-15.705-78.248 33.455-107-49.17-28.761-4.82-90.454-33.455-107 28.631 16.533 59.911-52.732 109.399-24.515.294-56.955 75.927-49.421 75.927-82.485 0 33.066 75.616 25.525 75.927 82.485 49.481-28.222 80.757 41.05 109.399 24.515-28.631 16.533 15.705 78.248-33.455 107 49.17 28.761 4.82 90.454 33.455 107z" fill="#f2b472"/><path d="m424 248c-.12-.07-.24-.14-.36-.21z" fill="#edac5f"/><path d="m72.36 247.79c-.12.07-.24.14-.36.21z" fill="#edac5f"/><circle cx="248" cy="248" fill="#fecb82" r="168"/><circle cx="248" cy="248" fill="#f9ce95" r="150"/><path d="m383.97 250.68c-1.42 73.87-61.76 133.32-135.97 133.32s-134.55-59.45-135.97-133.32c67.091 92.262 204.627 92.567 271.94 0z" fill="#e1f8ff"/><path d="m364.26 273.26c-11.71 53.43-59.32 93.42-116.26 93.42s-104.55-39.99-116.26-93.42c64.921 62.296 167.526 62.366 232.52 0z" fill="#fff"/><path d="m248 164.8c-15.409 0-23.465-4.997-37.052-11.496-3.985-1.906-5.671-6.683-3.765-10.669 1.907-3.986 6.68-5.673 10.669-3.765 12.596 6.027 18.556 9.93 30.147 9.93 11.404 0 16.564-3.437 30.147-9.93 3.986-1.905 8.763-.221 10.669 3.765s.221 8.763-3.765 10.669c-13.697 6.552-21.634 11.496-37.05 11.496z" fill="#c68e52"/><circle cx="248" cy="123.2" fill="#c68e52" r="8"/><path d="m292.8 198.4h-89.6c-4.418 0-8-3.582-8-8s3.582-8 8-8h89.6c4.418 0 8 3.582 8 8s-3.582 8-8 8z" fill="#c68e52"/><path d="m274.88 288c-4.418 0-8-3.582-8-8v-89.6c0-4.418 3.582-8 8-8s8 3.582 8 8v89.6c0 4.418-3.582 8-8 8z" fill="#c68e52"/><path d="m239.04 279.04c-24.583 0-43.84-13.354-43.84-30.4s19.257-30.399 43.84-30.399c4.418 0 8 3.582 8 8s-3.582 8-8 8c-15.934 0-27.84 7.603-27.84 14.399 0 6.798 11.906 14.4 27.84 14.4s27.84-7.603 27.84-14.4c0-4.418 3.582-8 8-8 16.787 0 8.363 38.4-35.84 38.4z" fill="#c68e52"/></svg>