<svg id="Layer_1" enable-background="new 0 0 496 496" height="512" viewBox="0 0 496 496" width="512" xmlns="http://www.w3.org/2000/svg"><path d="m408 48v400c0 26.51-21.49 48-48 48h-224c-26.51 0-48-21.49-48-48v-400c0-26.51 21.49-48 48-48h224c26.51 0 48 21.49 48 48z" fill="#5e96ea"/><path d="m408 48v136c0 150.22-121.78 272-272 272-26.51 0-48-21.49-48-48v-360c0-26.51 21.49-48 48-48h224c26.51 0 48 21.49 48 48z" fill="#7aacf4"/><path d="m376 48v392c0 8.837-7.163 16-16 16h-224c-8.837 0-16-7.163-16-16v-392c0-8.837 7.163-16 16-16h43.351c7.554 0 14.26 4.834 16.649 12s9.095 12 16.649 12h70.702c7.554 0 14.26-4.834 16.649-12s9.095-12 16.649-12h43.351c8.837 0 16 7.163 16 16z" fill="#83d3f2"/><path d="m360 48v392h-224v-392c46.922 0 44.315-.454 44.82 1.06 4.58 13.72 17.37 22.94 31.83 22.94h70.7c14.46 0 27.25-9.22 31.83-22.94.507-1.522-2.075-1.06 44.82-1.06z" fill="#aeecff"/><path d="m360 163.68v104.64l-171.67 171.68h-52.33v-52.33z" fill="#bef0fc"/><path d="m360 48v48l-224 224v-59.33l212.68-212.67z" fill="#bef0fc"/><g fill="#4d7abc"><path d="m248 208c-14.762 0-32-10.476-32-40 0-32 21.613-32 32-32s32 0 32 32c0 29.524-17.238 40-32 40zm0-56c-11.381 0-16 .613-16 16 0 8.963 2.079 24 16 24s16-15.037 16-24c0-15.387-4.619-16-16-16z"/><path d="m225.197 257.102c-15.023 0-38.29-.929-41.059-15.62-2.018-10.707 7.496-21.305 30.847-34.36 14.619-8.174 29.35-14.264 29.969-14.519 4.087-1.681 8.759.266 10.442 4.351s-.265 8.761-4.35 10.444c-11.234 4.578-44.43 20.229-50.693 30.591 8.32 4.008 30.428 3.201 39.646 2.617v-8.606c0-4.418 3.582-8 8-8s8 3.582 8 8v16c0 4.103-3.104 7.54-7.185 7.958-.505.052-11.314 1.144-23.617 1.144z"/><path d="m270.695 257.102c-12.304 0-23.112-1.092-23.619-1.144-4.395-.45-7.592-4.377-7.142-8.771.449-4.396 4.375-7.583 8.771-7.146 10.193 1.097 37.636 2.378 46.833-2.053-6.29-10.411-39.342-25.93-50.692-30.591-4.085-1.682-6.034-6.357-4.352-10.443s6.357-6.032 10.443-4.352c.62.255 15.35 6.345 29.969 14.519 23.351 13.056 32.865 23.652 30.847 34.36-2.768 14.69-26.019 15.621-41.058 15.621z"/><path d="m284.792 352.001c-2.585 0-5.122-1.251-6.664-3.563-13.076-19.615-55.439-28.438-81.343-28.438-30.01 0-35.481-23.833-21.657-37.657 13.646-13.646 61.74-24.198 71.243-26.175 4.323-.898 8.561 1.876 9.461 6.202.9 4.325-1.877 8.562-6.202 9.462-73.967 15.4-75.653 32.168-52.845 32.168 19.734 0 75.208 6.389 94.656 35.563 3.577 5.363-.362 12.438-6.649 12.438z"/><path d="m204.777 352.001c-6.3 0-10.22-7.082-6.649-12.438 9.315-13.973 28.355-22.114 44.397-26.836 4.239-1.252 8.686 1.177 9.934 5.414 1.248 4.238-1.176 8.686-5.415 9.934-11.854 3.491-28.745 10.075-35.603 20.363-1.541 2.312-4.079 3.563-6.664 3.563z"/><path d="m299.215 320c-4.418 0-8-3.582-8-8s3.582-8 8-8c22.757 0 21.495-16.821-54.37-32.158-4.331-.876-7.131-5.097-6.256-9.427.876-4.332 5.096-7.124 9.427-6.257 9.769 1.976 59.192 12.521 72.856 26.186 6.581 6.58 8.866 16.16 5.686 23.838-2.138 5.161-8.533 13.818-27.343 13.818z"/></g></svg>